<svg width="196" height="59" viewBox="0 0 196 59" fill="none" xmlns="http://www.w3.org/2000/svg">
<path d="M33.3881 15.8545V5.67267H37.4648C38.2139 5.67267 38.8386 5.78371 39.3391 6.00577C39.8396 6.22783 40.2158 6.53607 40.4677 6.93049C40.7196 7.32158 40.8455 7.77234 40.8455 8.28276C40.8455 8.68049 40.766 9.03016 40.6069 9.33176C40.4478 9.63006 40.229 9.87533 39.9506 10.0676C39.6755 10.2565 39.3607 10.3907 39.006 10.4703V10.5697C39.3938 10.5863 39.7567 10.6956 40.0948 10.8978C40.4362 11.1 40.7129 11.3834 40.925 11.748C41.1372 12.1092 41.2432 12.5401 41.2432 13.0406C41.2432 13.5808 41.109 14.0631 40.8405 14.4873C40.5754 14.9082 40.1826 15.2413 39.6623 15.4866C39.1419 15.7319 38.5006 15.8545 37.7383 15.8545H33.3881ZM35.5408 14.0945H37.2958C37.8957 14.0945 38.3332 13.9802 38.6083 13.7515C38.8834 13.5195 39.0209 13.2113 39.0209 12.8268C39.0209 12.5451 38.953 12.2965 38.8171 12.0811C38.6812 11.8656 38.4873 11.6966 38.2354 11.574C37.9868 11.4513 37.6902 11.39 37.3455 11.39H35.5408V14.0945ZM35.5408 9.93333H37.1367C37.4317 9.93333 37.6935 9.88195 37.9222 9.77921C38.1542 9.67315 38.3365 9.524 38.4691 9.33176C38.605 9.13953 38.6729 8.90918 38.6729 8.64071C38.6729 8.27282 38.542 7.97618 38.2802 7.7508C38.0216 7.52542 37.6537 7.41273 37.1765 7.41273H35.5408V9.93333ZM46.0843 16.0036C45.2988 16.0036 44.6227 15.8445 44.0559 15.5264C43.4925 15.2049 43.0583 14.7508 42.7534 14.1642C42.4484 13.5742 42.296 12.8765 42.296 12.0711C42.296 11.2856 42.4484 10.5962 42.7534 10.0029C43.0583 9.40965 43.4875 8.94729 44.041 8.61586C44.5978 8.28442 45.2507 8.1187 45.9998 8.1187C46.5036 8.1187 46.9726 8.1999 47.4068 8.3623C47.8443 8.5214 48.2254 8.76169 48.5502 9.08319C48.8784 9.40468 49.1336 9.80904 49.3159 10.2963C49.4981 10.7802 49.5893 11.3469 49.5893 11.9965V12.5782H43.1411V11.2657H47.5957C47.5957 10.9608 47.5294 10.6907 47.3968 10.4553C47.2642 10.22 47.0803 10.0361 46.845 9.9035C46.613 9.76761 46.3428 9.69966 46.0346 9.69966C45.7131 9.69966 45.4281 9.77424 45.1795 9.92338C44.9342 10.0692 44.742 10.2664 44.6028 10.515C44.4636 10.7603 44.3923 11.0337 44.389 11.3353V12.5832C44.389 12.961 44.4586 13.2875 44.5978 13.5626C44.7403 13.8377 44.9409 14.0498 45.1994 14.199C45.4579 14.3481 45.7645 14.4227 46.1191 14.4227C46.3544 14.4227 46.5699 14.3895 46.7654 14.3232C46.961 14.257 47.1284 14.1575 47.2676 14.0249C47.4068 13.8924 47.5128 13.73 47.5857 13.5377L49.5445 13.667C49.4451 14.1376 49.2413 14.5486 48.933 14.8999C48.6281 15.248 48.2337 15.5197 47.7498 15.7153C47.2692 15.9075 46.7141 16.0036 46.0843 16.0036ZM57.3251 10.3957L55.3862 10.515C55.353 10.3493 55.2818 10.2001 55.1724 10.0676C55.063 9.93167 54.9188 9.82395 54.7399 9.74441C54.5642 9.66155 54.3537 9.62012 54.1085 9.62012C53.7803 9.62012 53.5036 9.68972 53.2782 9.82892C53.0528 9.96481 52.9401 10.1471 52.9401 10.3758C52.9401 10.5581 53.0131 10.7122 53.1589 10.8382C53.3047 10.9641 53.555 11.0652 53.9096 11.1414L55.2917 11.4198C56.0341 11.5723 56.5876 11.8176 56.9522 12.1556C57.3168 12.4937 57.4991 12.9378 57.4991 13.488C57.4991 13.9885 57.3516 14.4276 57.0566 14.8055C56.765 15.1833 56.3639 15.4783 55.8535 15.6904C55.3464 15.8992 54.7614 16.0036 54.0985 16.0036C53.0876 16.0036 52.2822 15.7932 51.6823 15.3722C51.0857 14.948 50.7361 14.3713 50.6333 13.6421L52.7164 13.5328C52.7794 13.841 52.9319 14.0763 53.1738 14.2387C53.4158 14.3978 53.7257 14.4774 54.1035 14.4774C54.4747 14.4774 54.773 14.4061 54.9984 14.2636C55.2271 14.1177 55.3431 13.9305 55.3464 13.7018C55.3431 13.5096 55.2619 13.3521 55.1028 13.2295C54.9437 13.1035 54.6984 13.0074 54.367 12.9411L53.0445 12.6776C52.2988 12.5285 51.7436 12.27 51.3791 11.9021C51.0178 11.5342 50.8372 11.0652 50.8372 10.4951C50.8372 10.0046 50.9697 9.582 51.2349 9.22736C51.5034 8.87272 51.8795 8.59928 52.3634 8.40705C52.8507 8.21481 53.4207 8.1187 54.0737 8.1187C55.0382 8.1187 55.7971 8.32253 56.3507 8.7302C56.9075 9.13787 57.2323 9.69303 57.3251 10.3957ZM62.8945 8.21813V9.80904H58.2958V8.21813H62.8945ZM59.3398 6.38858H61.4577V13.5079C61.4577 13.7035 61.4875 13.8559 61.5472 13.9653C61.6069 14.0713 61.6897 14.1459 61.7958 14.189C61.9052 14.2321 62.0311 14.2536 62.1736 14.2536C62.2731 14.2536 62.3725 14.2454 62.4719 14.2288C62.5714 14.2089 62.6476 14.194 62.7006 14.184L63.0337 15.76C62.9277 15.7932 62.7785 15.8313 62.5863 15.8744C62.394 15.9208 62.1604 15.949 61.8853 15.9589C61.3749 15.9788 60.9274 15.9108 60.5429 15.7551C60.1618 15.5993 59.8652 15.3573 59.653 15.0292C59.4409 14.7011 59.3365 14.2868 59.3398 13.7863V6.38858ZM70.9646 16.0036C70.1924 16.0036 69.5245 15.8396 68.9611 15.5115C68.401 15.18 67.9684 14.7193 67.6635 14.1294C67.3586 13.5361 67.2061 12.8483 67.2061 12.0661C67.2061 11.2773 67.3586 10.5879 67.6635 9.99796C67.9684 9.40468 68.401 8.94398 68.9611 8.61586C69.5245 8.28442 70.1924 8.1187 70.9646 8.1187C71.7369 8.1187 72.4031 8.28442 72.9632 8.61586C73.5267 8.94398 73.9609 9.40468 74.2658 9.99796C74.5707 10.5879 74.7232 11.2773 74.7232 12.0661C74.7232 12.8483 74.5707 13.5361 74.2658 14.1294C73.9609 14.7193 73.5267 15.18 72.9632 15.5115C72.4031 15.8396 71.7369 16.0036 70.9646 16.0036ZM70.9746 14.363C71.3259 14.363 71.6192 14.2636 71.8546 14.0647C72.0899 13.8625 72.2672 13.5874 72.3865 13.2394C72.5092 12.8914 72.5705 12.4954 72.5705 12.0512C72.5705 11.6071 72.5092 11.211 72.3865 10.863C72.2672 10.515 72.0899 10.2399 71.8546 10.0377C71.6192 9.83555 71.3259 9.73446 70.9746 9.73446C70.6199 9.73446 70.3217 9.83555 70.0797 10.0377C69.8411 10.2399 69.6604 10.515 69.5378 10.863C69.4185 11.211 69.3588 11.6071 69.3588 12.0512C69.3588 12.4954 69.4185 12.8914 69.5378 13.2394C69.6604 13.5874 69.8411 13.8625 70.0797 14.0647C70.3217 14.2636 70.6199 14.363 70.9746 14.363ZM80.2068 8.21813V9.80904H75.4938V8.21813H80.2068ZM76.5726 15.8545V7.66628C76.5726 7.11278 76.6803 6.65373 76.8958 6.28915C77.1145 5.92457 77.4128 5.65113 77.7906 5.46884C78.1685 5.28655 78.5977 5.1954 79.0783 5.1954C79.4031 5.1954 79.6997 5.22026 79.9682 5.26998C80.24 5.31969 80.4422 5.36444 80.5747 5.40421L80.1969 6.99512C80.114 6.9686 80.0113 6.94374 79.8886 6.92054C79.7693 6.89734 79.6467 6.88574 79.5208 6.88574C79.2092 6.88574 78.9921 6.95866 78.8695 7.10449C78.7468 7.24701 78.6855 7.44753 78.6855 7.70605V15.8545H76.5726ZM88.8027 8.21813V9.80904H84.204V8.21813H88.8027ZM85.248 6.38858H87.3659V13.5079C87.3659 13.7035 87.3958 13.8559 87.4554 13.9653C87.5151 14.0713 87.5979 14.1459 87.704 14.189C87.8134 14.2321 87.9393 14.2536 88.0818 14.2536C88.1813 14.2536 88.2807 14.2454 88.3801 14.2288C88.4796 14.2089 88.5558 14.194 88.6088 14.184L88.9419 15.76C88.8359 15.7932 88.6867 15.8313 88.4945 15.8744C88.3022 15.9208 88.0686 15.949 87.7935 15.9589C87.2831 15.9788 86.8356 15.9108 86.4511 15.7551C86.07 15.5993 85.7734 15.3573 85.5612 15.0292C85.3491 14.7011 85.2447 14.2868 85.248 13.7863V6.38858ZM92.4643 11.4397V15.8545H90.3464V5.67267H92.4046V9.56543H92.4941C92.6665 9.11467 92.9449 8.76169 93.3293 8.50648C93.7138 8.24796 94.1961 8.1187 94.7761 8.1187C95.3064 8.1187 95.7687 8.2347 96.1632 8.46671C96.5609 8.6954 96.8691 9.02518 97.0879 9.45605C97.3099 9.88361 97.4193 10.3957 97.416 10.9923V15.8545H95.2981V11.3701C95.3014 10.8995 95.1821 10.5332 94.9401 10.2714C94.7015 10.0096 94.3668 9.87864 93.9359 9.87864C93.6475 9.87864 93.3923 9.93996 93.1703 10.0626C92.9515 10.1852 92.7792 10.3642 92.6532 10.5995C92.5306 10.8315 92.4676 11.1116 92.4643 11.4397ZM102.563 16.0036C101.777 16.0036 101.101 15.8445 100.534 15.5264C99.971 15.2049 99.5368 14.7508 99.2319 14.1642C98.9269 13.5742 98.7745 12.8765 98.7745 12.0711C98.7745 11.2856 98.9269 10.5962 99.2319 10.0029C99.5368 9.40965 99.966 8.94729 100.52 8.61586C101.076 8.28442 101.729 8.1187 102.478 8.1187C102.982 8.1187 103.451 8.1999 103.885 8.3623C104.323 8.5214 104.704 8.76169 105.029 9.08319C105.357 9.40468 105.612 9.80904 105.794 10.2963C105.977 10.7802 106.068 11.3469 106.068 11.9965V12.5782H99.6197V11.2657H104.074C104.074 10.9608 104.008 10.6907 103.875 10.4553C103.743 10.22 103.559 10.0361 103.323 9.9035C103.091 9.76761 102.821 9.69966 102.513 9.69966C102.192 9.69966 101.907 9.77424 101.658 9.92338C101.413 10.0692 101.221 10.2664 101.081 10.515C100.942 10.7603 100.871 11.0337 100.868 11.3353V12.5832C100.868 12.961 100.937 13.2875 101.076 13.5626C101.219 13.8377 101.419 14.0498 101.678 14.199C101.936 14.3481 102.243 14.4227 102.598 14.4227C102.833 14.4227 103.048 14.3895 103.244 14.3232C103.439 14.257 103.607 14.1575 103.746 14.0249C103.885 13.8924 103.991 13.73 104.064 13.5377L106.023 13.667C105.924 14.1376 105.72 14.5486 105.412 14.8999C105.107 15.248 104.712 15.5197 104.228 15.7153C103.748 15.9075 103.193 16.0036 102.563 16.0036ZM110.69 18.7181V8.21813H112.778V9.5008H112.873C112.965 9.29531 113.1 9.0865 113.275 8.87438C113.454 8.65894 113.686 8.47997 113.971 8.33745C114.26 8.19161 114.618 8.1187 115.045 8.1187C115.602 8.1187 116.116 8.26453 116.586 8.5562C117.057 8.84455 117.433 9.28039 117.715 9.86373C117.997 10.4437 118.138 11.1713 118.138 12.0463C118.138 12.8981 118 13.6173 117.725 14.2039C117.453 14.7873 117.082 15.2297 116.611 15.5313C116.144 15.8296 115.62 15.9788 115.04 15.9788C114.629 15.9788 114.28 15.9108 113.991 15.7749C113.706 15.6391 113.473 15.4684 113.29 15.2629C113.108 15.0541 112.969 14.8436 112.873 14.6315H112.808V18.7181H110.69ZM112.763 12.0363C112.763 12.4904 112.826 12.8865 112.952 13.2245C113.078 13.5626 113.26 13.8261 113.499 14.015C113.738 14.2006 114.028 14.2934 114.369 14.2934C114.714 14.2934 115.005 14.199 115.244 14.01C115.483 13.8178 115.663 13.5526 115.786 13.2146C115.912 12.8732 115.975 12.4804 115.975 12.0363C115.975 11.5955 115.914 11.2077 115.791 10.873C115.668 10.5382 115.488 10.2764 115.249 10.0874C115.01 9.89853 114.717 9.80407 114.369 9.80407C114.024 9.80407 113.733 9.89521 113.494 10.0775C113.259 10.2598 113.078 10.5183 112.952 10.8531C112.826 11.1878 112.763 11.5822 112.763 12.0363ZM119.55 15.8545V8.21813H121.603V9.55051H121.682C121.822 9.07656 122.055 8.7186 122.383 8.47665C122.711 8.23139 123.089 8.10875 123.517 8.10875C123.623 8.10875 123.737 8.11538 123.86 8.12864C123.983 8.1419 124.09 8.16013 124.183 8.18333V10.0626C124.084 10.0328 123.946 10.0062 123.77 9.98304C123.595 9.95984 123.434 9.94824 123.288 9.94824C122.977 9.94824 122.698 10.0162 122.453 10.1521C122.211 10.2847 122.019 10.4703 121.876 10.7089C121.737 10.9475 121.667 11.2226 121.667 11.5342V15.8545H119.55ZM128.373 16.0036C127.601 16.0036 126.933 15.8396 126.369 15.5115C125.809 15.18 125.377 14.7193 125.072 14.1294C124.767 13.5361 124.614 12.8483 124.614 12.0661C124.614 11.2773 124.767 10.5879 125.072 9.99796C125.377 9.40468 125.809 8.94398 126.369 8.61586C126.933 8.28442 127.601 8.1187 128.373 8.1187C129.145 8.1187 129.811 8.28442 130.371 8.61586C130.935 8.94398 131.369 9.40468 131.674 9.99796C131.979 10.5879 132.131 11.2773 132.131 12.0661C132.131 12.8483 131.979 13.5361 131.674 14.1294C131.369 14.7193 130.935 15.18 130.371 15.5115C129.811 15.8396 129.145 16.0036 128.373 16.0036ZM128.383 14.363C128.734 14.363 129.027 14.2636 129.263 14.0647C129.498 13.8625 129.675 13.5874 129.795 13.2394C129.917 12.8914 129.979 12.4954 129.979 12.0512C129.979 11.6071 129.917 11.211 129.795 10.863C129.675 10.515 129.498 10.2399 129.263 10.0377C129.027 9.83555 128.734 9.73446 128.383 9.73446C128.028 9.73446 127.73 9.83555 127.488 10.0377C127.249 10.2399 127.069 10.515 126.946 10.863C126.827 11.211 126.767 11.6071 126.767 12.0512C126.767 12.4954 126.827 12.8914 126.946 13.2394C127.069 13.5874 127.249 13.8625 127.488 14.0647C127.73 14.2636 128.028 14.363 128.383 14.363ZM136.322 15.9788C135.742 15.9788 135.217 15.8296 134.746 15.5313C134.279 15.2297 133.908 14.7873 133.633 14.2039C133.361 13.6173 133.225 12.8981 133.225 12.0463C133.225 11.1713 133.366 10.4437 133.648 9.86373C133.929 9.28039 134.304 8.84455 134.771 8.5562C135.242 8.26453 135.757 8.1187 136.317 8.1187C136.745 8.1187 137.101 8.19161 137.386 8.33745C137.675 8.47997 137.907 8.65894 138.082 8.87438C138.261 9.0865 138.397 9.29531 138.49 9.5008H138.555V5.67267H140.668V15.8545H138.58V14.6315H138.49C138.391 14.8436 138.25 15.0541 138.067 15.2629C137.888 15.4684 137.655 15.6391 137.366 15.7749C137.081 15.9108 136.733 15.9788 136.322 15.9788ZM136.994 14.2934C137.335 14.2934 137.623 14.2006 137.859 14.015C138.097 13.8261 138.28 13.5626 138.406 13.2245C138.535 12.8865 138.599 12.4904 138.599 12.0363C138.599 11.5822 138.536 11.1878 138.41 10.8531C138.285 10.5183 138.102 10.2598 137.864 10.0775C137.625 9.89521 137.335 9.80407 136.994 9.80407C136.646 9.80407 136.352 9.89853 136.114 10.0874C135.875 10.2764 135.694 10.5382 135.572 10.873C135.449 11.2077 135.388 11.5955 135.388 12.0363C135.388 12.4804 135.449 12.8732 135.572 13.2146C135.698 13.5526 135.878 13.8178 136.114 14.01C136.352 14.199 136.646 14.2934 136.994 14.2934ZM147.306 12.6031V8.21813H149.424V15.8545H147.39V14.4674H147.311C147.139 14.9149 146.852 15.2745 146.451 15.5463C146.053 15.818 145.568 15.9539 144.994 15.9539C144.484 15.9539 144.035 15.8379 143.647 15.6059C143.259 15.3739 142.956 15.0441 142.737 14.6166C142.522 14.189 142.412 13.6769 142.409 13.0803V8.21813H144.527V12.7025C144.53 13.1533 144.651 13.5096 144.89 13.7714C145.128 14.0332 145.448 14.1642 145.849 14.1642C146.104 14.1642 146.343 14.1061 146.565 13.9901C146.787 13.8708 146.966 13.6952 147.102 13.4632C147.241 13.2311 147.309 12.9445 147.306 12.6031ZM154.568 16.0036C153.786 16.0036 153.113 15.8379 152.55 15.5065C151.99 15.1717 151.559 14.7077 151.257 14.1144C150.959 13.5212 150.81 12.8384 150.81 12.0661C150.81 11.2839 150.96 10.5979 151.262 10.0079C151.567 9.41462 152 8.95227 152.56 8.62083C153.12 8.28607 153.786 8.1187 154.558 8.1187C155.224 8.1187 155.808 8.23967 156.308 8.48162C156.809 8.72357 157.205 9.0633 157.496 9.5008C157.788 9.9383 157.949 10.452 157.979 11.042H155.98C155.924 10.6608 155.775 10.3543 155.533 10.1222C155.294 9.88693 154.981 9.76926 154.593 9.76926C154.265 9.76926 153.978 9.85875 153.733 10.0377C153.491 10.2134 153.302 10.4703 153.166 10.8083C153.03 11.1464 152.962 11.5557 152.962 12.0363C152.962 12.5235 153.029 12.9378 153.161 13.2792C153.297 13.6206 153.488 13.8808 153.733 14.0597C153.978 14.2387 154.265 14.3282 154.593 14.3282C154.835 14.3282 155.052 14.2785 155.244 14.1791C155.44 14.0796 155.601 13.9355 155.727 13.7465C155.856 13.5543 155.94 13.324 155.98 13.0555H157.979C157.946 13.6388 157.786 14.1526 157.501 14.5967C157.22 15.0375 156.83 15.3822 156.333 15.6308C155.836 15.8794 155.248 16.0036 154.568 16.0036ZM163.396 8.21813V9.80904H158.798V8.21813H163.396ZM159.842 6.38858H161.96V13.5079C161.96 13.7035 161.99 13.8559 162.049 13.9653C162.109 14.0713 162.192 14.1459 162.298 14.189C162.407 14.2321 162.533 14.2536 162.676 14.2536C162.775 14.2536 162.874 14.2454 162.974 14.2288C163.073 14.2089 163.15 14.194 163.203 14.184L163.536 15.76C163.43 15.7932 163.28 15.8313 163.088 15.8744C162.896 15.9208 162.662 15.949 162.387 15.9589C161.877 15.9788 161.429 15.9108 161.045 15.7551C160.664 15.5993 160.367 15.3573 160.155 15.0292C159.943 14.7011 159.838 14.2868 159.842 13.7863V6.38858Z" fill="#595D5F"/>
<path d="M87.8926 28.0363V49.8545H83.9401V31.8822H83.8123L78.7093 35.1421V31.52L84.1319 28.0363H87.8926ZM106.408 37.8161L102.893 38.1997C102.793 37.8445 102.619 37.5107 102.371 37.1982C102.129 36.8857 101.802 36.6336 101.39 36.4418C100.978 36.2501 100.474 36.1542 99.8776 36.1542C99.0751 36.1542 98.4004 36.3282 97.8535 36.6762C97.3137 37.0242 97.0474 37.4752 97.0545 38.0292C97.0474 38.5051 97.2214 38.8921 97.5765 39.1904C97.9387 39.4887 98.5353 39.7338 99.3663 39.9255L102.157 40.5221C103.706 40.8559 104.856 41.385 105.609 42.1095C106.369 42.8339 106.753 43.782 106.76 44.9539C106.753 45.9838 106.451 46.8928 105.854 47.6812C105.265 48.4624 104.444 49.0732 103.393 49.5136C102.342 49.9539 101.135 50.1741 99.7711 50.1741C97.7683 50.1741 96.1561 49.7551 94.9345 48.917C93.7129 48.0718 92.9849 46.8964 92.7505 45.3907L96.5112 45.0285C96.6816 45.7671 97.0438 46.3247 97.5978 46.7011C98.1518 47.0775 98.8727 47.2657 99.7605 47.2657C100.677 47.2657 101.412 47.0775 101.966 46.7011C102.527 46.3247 102.807 45.8595 102.807 45.3055C102.807 44.8367 102.626 44.4497 102.264 44.1443C101.909 43.8389 101.355 43.6045 100.602 43.4411L97.8109 42.8552C96.2413 42.5285 95.0801 41.9781 94.3272 41.2039C93.5744 40.4227 93.2015 39.4355 93.2086 38.2423C93.2015 37.2338 93.4749 36.3602 94.0289 35.6215C94.59 34.8758 95.3677 34.3005 96.362 33.8957C97.3634 33.4838 98.5176 33.2778 99.8244 33.2778C101.742 33.2778 103.251 33.6862 104.352 34.5029C105.46 35.3197 106.145 36.4241 106.408 37.8161ZM118.111 33.4909V36.4738H108.704V33.4909H118.111ZM111.026 29.5704H114.883V44.9326C114.883 45.4511 114.961 45.8488 115.117 46.1258C115.281 46.3957 115.494 46.5803 115.757 46.6798C116.019 46.7792 116.311 46.8289 116.63 46.8289C116.872 46.8289 117.092 46.8112 117.291 46.7757C117.497 46.7401 117.653 46.7082 117.759 46.6798L118.409 49.6947C118.203 49.7657 117.909 49.8438 117.525 49.9291C117.149 50.0143 116.687 50.064 116.14 50.0782C115.174 50.1066 114.304 49.961 113.53 49.6414C112.756 49.3147 112.141 48.8105 111.687 48.1286C111.24 47.4468 111.019 46.5945 111.026 45.5718V29.5704Z" fill="#595D5F"/>
<path d="M10.424 14.6306C10.4577 14.0079 10.428 13.4302 10.3492 12.8914C10.3054 12.6217 10.2694 12.3632 10.215 12.1134C10.162 11.8637 10.098 11.6233 10.0251 11.3918C9.7206 10.4648 9.32843 9.68493 8.87557 9.04158C8.65121 8.72047 8.41683 8.43441 8.18753 8.18534C7.96514 7.93737 7.74563 7.72608 7.5429 7.55325C7.13738 7.20724 6.79895 7.01594 6.63863 6.98922C6.63863 6.98922 6.55593 7.15566 6.45146 7.4364C6.39966 7.5769 6.34053 7.74568 6.28739 7.93703C6.23866 8.12909 6.19302 8.34308 6.15766 8.57205C6.08713 9.02986 6.0585 9.54763 6.13157 10.0635C6.21811 10.5812 6.41245 11.0972 6.76194 11.5452C7.59289 12.6123 8.42901 12.8824 9.07811 13.1521C9.73064 13.4186 10.2155 13.6764 10.424 14.6306Z" fill="#595D5F"/>
<path d="M10.4245 14.6307C10.4582 14.0078 10.5503 13.435 10.6865 12.9145C10.7503 12.6539 10.845 12.4077 10.9411 12.1738C11.0385 11.94 11.1449 11.7192 11.2582 11.5109C11.6997 10.6762 12.3115 10.0526 12.8985 9.59655C13.1942 9.36857 13.489 9.18249 13.7711 9.03279C14.06 8.88414 14.3337 8.7712 14.5792 8.6882C15.0703 8.52239 15.4489 8.47526 15.609 8.50194C15.609 8.50194 15.6377 8.659 15.6529 8.91107C15.6609 9.03722 15.6637 9.18677 15.6614 9.35306C15.6636 9.51994 15.6579 9.70311 15.6386 9.89535C15.5999 10.28 15.507 10.7007 15.3147 11.1046C15.1361 11.5098 14.8638 11.8994 14.4418 12.2221C13.4286 12.9961 12.5996 13.1578 11.9209 13.3278C11.2447 13.5016 10.7354 13.6947 10.4245 14.6307Z" fill="#595D5F"/>
<path d="M10.5013 19.776C10.4823 19.4648 10.4487 19.1665 10.4023 18.88C10.3511 18.5937 10.3144 18.3181 10.2509 18.054C10.1326 17.5255 9.9624 17.0406 9.77109 16.5944C9.59047 16.1482 9.37614 15.741 9.14236 15.3703C8.91205 14.9998 8.6473 14.6652 8.40482 14.3681C7.41146 13.1778 6.3072 12.5628 5.98298 12.5421C5.98298 12.5421 5.72718 13.2411 5.65618 14.1686C5.64766 14.2843 5.64053 14.4035 5.63991 14.5253C5.64184 14.6473 5.64774 14.7716 5.65833 14.8974C5.67935 15.1488 5.71907 15.406 5.78402 15.6599C5.91739 16.1679 6.13544 16.6624 6.54212 17.0748C7.49482 18.0561 8.33351 18.2399 9.00406 18.4428C9.67059 18.6424 10.1832 18.8495 10.5013 19.776Z" fill="#595D5F"/>
<path d="M10.502 19.776C10.4829 19.4648 10.4798 19.1645 10.4908 18.8757C10.4971 18.5871 10.5447 18.3087 10.5892 18.0427C10.6867 17.5106 10.8262 17.0261 11.0106 16.5894C11.2056 16.1524 11.4327 15.7634 11.678 15.4199C11.9269 15.0766 12.1791 14.7787 12.463 14.5234C13.5762 13.5015 14.733 13.15 15.057 13.1707C15.057 13.1707 15.242 13.782 15.221 14.551C15.2186 14.6473 15.2117 14.7461 15.2034 14.8469C15.1978 14.9477 15.1882 15.0501 15.174 15.1537C15.1455 15.3608 15.0983 15.5722 15.0258 15.782C14.8844 16.2015 14.6261 16.6156 14.2525 16.9771C13.341 17.8449 12.5118 18.091 11.8511 18.3289C11.1858 18.5706 10.7027 18.814 10.502 19.776Z" fill="#595D5F"/>
<path d="M11.0918 24.8851C11.0294 24.5798 10.9783 24.2847 10.908 24.0041C10.8389 23.7231 10.758 23.4554 10.6669 23.1997C10.4763 22.6893 10.2816 22.222 10.0487 21.7979C9.81882 21.3734 9.55115 20.9914 9.28472 20.6463C9.0231 20.301 8.74464 19.9939 8.46351 19.7231C7.328 18.6397 6.20277 18.1366 5.87279 18.1493C5.87279 18.1493 5.82264 18.3299 5.77283 18.6276C5.7163 18.9251 5.69274 19.3407 5.70708 19.8071C5.71594 20.0403 5.73784 20.286 5.7789 20.5353C5.82178 20.7846 5.87453 21.0377 5.97291 21.2844C6.16105 21.778 6.44847 22.2482 6.8784 22.6184C7.38652 23.0606 7.87219 23.3009 8.30564 23.4501C8.73935 23.5989 9.12645 23.6564 9.47217 23.7198C9.81778 23.7829 10.1218 23.8518 10.3883 24.0169C10.5215 24.0993 10.6453 24.2057 10.7602 24.347C10.8176 24.4178 10.8729 24.4971 10.9258 24.5866C10.9828 24.6758 11.0383 24.7747 11.0918 24.8851Z" fill="#595D5F"/>
<path d="M11.0922 24.8852C11.0298 24.5798 11.0087 24.2795 10.9952 23.9901C10.9828 23.7007 10.9856 23.4212 11.0016 23.1523C11.0252 22.6155 11.1389 22.116 11.2806 21.6622C11.4255 21.2081 11.599 20.7993 11.8122 20.4326C12.0302 20.0655 12.2698 19.742 12.517 19.4602C13.4949 18.3341 14.6458 17.8674 14.965 17.8554C14.965 17.8554 15.0224 18.0027 15.0843 18.2452C15.1396 18.4885 15.2317 18.8228 15.2628 19.2046C15.28 19.3952 15.2857 19.5976 15.2728 19.8059C15.2619 20.0141 15.2233 20.2297 15.1804 20.4434C15.0858 20.8721 14.8902 21.3056 14.5385 21.7054C14.113 22.1841 13.7188 22.5063 13.3406 22.7467C12.9626 22.9875 12.6061 23.1455 12.2916 23.3C11.9773 23.4548 11.7047 23.6066 11.4954 23.8419C11.3908 23.9596 11.302 24.0981 11.2317 24.2687C11.1966 24.3541 11.166 24.4473 11.1406 24.55C11.1187 24.6519 11.1026 24.7632 11.0922 24.8852Z" fill="#595D5F"/>
<path d="M12.2444 29.892C12.0811 29.2915 11.859 28.7577 11.6262 28.2691C11.4022 27.7784 11.1419 27.3399 10.8582 26.9455C10.7873 26.8469 10.7149 26.7512 10.6412 26.6579C10.5719 26.564 10.5012 26.4726 10.4294 26.384C10.2857 26.2066 10.1375 26.0396 9.98617 25.8827C9.68366 25.5687 9.36921 25.2941 9.05628 25.0556C7.83965 24.0961 6.64456 23.7155 6.32052 23.7631C6.32052 23.7631 6.205 24.5078 6.32234 25.44C6.39648 25.9037 6.52929 26.4126 6.75853 26.8874C6.87571 27.1244 7.00611 27.3543 7.18485 27.5623C7.36151 27.7707 7.56631 27.96 7.80332 28.1201C8.36981 28.5026 8.86669 28.6893 9.30941 28.7895C9.53065 28.8395 9.7385 28.8678 9.9343 28.8865C10.133 28.9046 10.3193 28.9134 10.4955 28.9248C11.2004 28.9693 11.7429 29.0581 12.2444 29.892Z" fill="#595D5F"/>
<path d="M12.2444 29.8922C12.0812 29.2915 11.976 28.7227 11.9535 28.1837C11.9395 27.6422 11.9823 27.137 12.068 26.6722C12.0895 26.556 12.1135 26.4423 12.1402 26.331C12.171 26.2189 12.2044 26.1091 12.2398 26.002C12.3106 25.7878 12.39 25.5838 12.4763 25.39C12.6486 25.0027 12.8477 24.6568 13.0594 24.3515C13.941 23.1235 15.015 22.5439 15.3342 22.4972C15.3342 22.4972 15.6313 23.0509 15.7619 23.798C15.8427 24.1687 15.8826 24.589 15.8225 25.0252C15.7949 25.2425 15.7321 25.4671 15.6562 25.6862C15.5782 25.9059 15.4678 26.1258 15.3175 26.3423C14.9584 26.8597 14.5893 27.2276 14.2349 27.5105C14.0577 27.652 13.8844 27.7728 13.718 27.8816C13.5525 27.9876 13.3972 28.0868 13.2503 28.1809C12.6634 28.5605 12.2412 28.906 12.2444 29.8922Z" fill="#595D5F"/>
<path d="M13.9918 34.7146C13.8678 34.4298 13.7345 34.1622 13.5933 33.91C13.4602 33.6542 13.3264 33.4109 13.181 33.1831C13.0367 32.9551 12.8849 32.741 12.7273 32.5395C12.6486 32.4388 12.5683 32.3413 12.4867 32.2468C12.409 32.1509 12.332 32.0573 12.2528 31.9671C11.625 31.2439 10.8957 30.7115 10.2474 30.3012C9.58572 29.8955 8.94287 29.6318 8.42641 29.4803C7.9065 29.3291 7.53206 29.2881 7.37139 29.33C7.37139 29.33 7.36987 29.3775 7.36717 29.4631C7.36406 29.5491 7.37004 29.672 7.38245 29.8239C7.407 30.1275 7.46108 30.5472 7.57738 31.0055C7.63606 31.2345 7.70778 31.4736 7.80335 31.7107C7.90652 31.9463 8.02924 32.1809 8.17477 32.4039C8.46799 32.8493 8.84341 33.2507 9.35208 33.5134C10.5842 34.1317 11.4362 34.0161 12.136 33.9782C12.4855 33.9574 12.7956 33.9519 13.0903 34.0492C13.3922 34.1433 13.6851 34.3364 13.9918 34.7146Z" fill="#595D5F"/>
<path d="M13.9916 34.7147C13.8676 34.4299 13.7623 34.1497 13.6742 33.8755C13.5944 33.5978 13.5392 33.3229 13.4951 33.0571C13.452 32.7909 13.4241 32.5317 13.4101 32.2808C13.4031 32.1554 13.3995 32.0318 13.3991 31.9104C13.4024 31.7875 13.4112 31.6661 13.4215 31.5472C13.511 30.5931 13.7641 29.7911 14.1439 29.1277C14.5101 28.4682 14.9408 27.9666 15.319 27.6193C15.694 27.2733 16.0344 27.0736 16.1887 27.0332C16.1887 27.0332 16.2088 27.0662 16.2448 27.1253C16.2796 27.1855 16.3297 27.2722 16.3916 27.3791C16.5111 27.595 16.6578 27.8993 16.7681 28.2579C16.8239 28.437 16.8682 28.631 16.9001 28.8332C16.9392 29.0326 16.9616 29.242 16.9597 29.4587C16.9581 29.8911 16.8504 30.3563 16.6008 30.8207C16.0227 31.926 15.3227 32.4426 14.7787 32.8912C14.5071 33.1175 14.2759 33.3309 14.1243 33.6108C13.9801 33.8875 13.9225 34.2284 13.9916 34.7147Z" fill="#595D5F"/>
<path d="M16.348 39.2574C16.2661 39.1259 16.1788 39.0013 16.0964 38.877C16.0171 38.7508 15.9359 38.629 15.8533 38.5115C15.6881 38.2762 15.5165 38.0573 15.3397 37.8531C15.2512 37.751 15.1615 37.6526 15.0705 37.5578C15.0244 37.5108 14.9789 37.4642 14.9335 37.4178C14.8897 37.3711 14.8462 37.3247 14.8029 37.2786C14.6276 37.0964 14.4477 36.9276 14.2646 36.7708C14.0815 36.6141 13.8952 36.4696 13.7073 36.3359C13.5199 36.2019 13.326 36.0812 13.1476 35.963C12.7834 35.7302 12.4161 35.5381 12.0583 35.3801C11.7005 35.2221 11.3523 35.0982 11.0263 35.003C10.705 34.9062 10.4122 34.8359 10.1491 34.7917C9.62464 34.7022 9.23594 34.7112 9.08466 34.772C9.08466 34.772 9.09894 34.9626 9.15353 35.2662C9.18254 35.4172 9.21432 35.599 9.2729 35.7946C9.33185 35.9901 9.40504 36.2034 9.49527 36.4242C9.67818 36.8646 9.91666 37.3404 10.2627 37.7492C10.6173 38.1546 11.0564 38.5011 11.5917 38.6977C12.2248 38.9354 12.7698 38.9824 13.2284 38.9633C13.6877 38.9434 14.0695 38.8532 14.4147 38.7839C14.7597 38.7144 15.0678 38.6653 15.3752 38.7192C15.6851 38.771 15.9795 38.9348 16.348 39.2574Z" fill="#595D5F"/>
<path d="M16.3483 39.2576C16.2663 39.1262 16.1854 38.9975 16.1159 38.8654C16.0492 38.7314 15.9871 38.5984 15.9294 38.4661C15.8139 38.2016 15.7161 37.9408 15.6346 37.6851C15.5939 37.5572 15.5572 37.4306 15.5245 37.3054C15.509 37.2426 15.4936 37.1804 15.4784 37.1185C15.4676 37.0549 15.4569 36.9919 15.4461 36.9294C15.4067 36.6788 15.3817 36.4345 15.3694 36.1976C15.3572 35.9605 15.3578 35.7309 15.3694 35.509C15.3818 35.2868 15.4007 35.0749 15.4443 34.8634C15.5246 34.4441 15.6406 34.0594 15.7781 33.7117C15.9155 33.364 16.0746 33.0533 16.2405 32.7813C16.4107 32.5071 16.5937 32.2683 16.7631 32.0715C17.1041 31.6775 17.4073 31.4432 17.5584 31.3823C17.5584 31.3823 17.6602 31.4974 17.7966 31.6975C17.8664 31.7967 17.9381 31.9208 18.0225 32.0562C18.1075 32.1912 18.1936 32.3438 18.2724 32.5107C18.433 32.8434 18.553 33.2404 18.6007 33.6665C18.6564 34.0879 18.6192 34.5517 18.4262 35.0454C18.19 35.639 17.9378 36.0778 17.6692 36.4392C17.4016 36.8005 17.1259 37.0793 16.888 37.3398C16.6504 37.6004 16.451 37.843 16.3406 38.1399C16.2333 38.435 16.2003 38.7942 16.3483 39.2576Z" fill="#595D5F"/>
<path d="M19.3265 43.4024C18.9402 42.9197 18.5368 42.5141 18.1211 42.1686C17.7226 41.8098 17.3203 41.5048 16.9065 41.2529C16.703 41.1247 16.4866 41.0164 16.2909 40.9046C16.0919 40.7952 15.8924 40.697 15.6937 40.6088C15.2962 40.4325 14.9013 40.2961 14.521 40.1913C14.1353 40.0897 13.7906 40.0047 13.4576 39.9533C13.1275 39.9 12.8224 39.8728 12.5544 39.8649C12.0184 39.8487 11.632 39.9107 11.4901 39.9919C11.4901 39.9919 11.5326 40.1792 11.6322 40.4733C11.7348 40.7657 11.8821 41.1719 12.1229 41.588C12.3698 42.0006 12.6891 42.4341 13.0847 42.7969C13.1835 42.8876 13.2871 42.9737 13.3955 43.0541C13.506 43.133 13.6264 43.2029 13.7486 43.2672C13.9943 43.395 14.2585 43.4934 14.5407 43.551C15.2148 43.6884 15.7454 43.6659 16.1917 43.5831C16.6455 43.4942 17.0125 43.3463 17.3453 43.2252C18.0101 42.9813 18.5429 42.8429 19.3265 43.4024Z" fill="#595D5F"/>
<path d="M19.3265 43.4022C18.94 42.9194 18.6298 42.4334 18.3884 41.9577C18.1639 41.4684 18.0162 40.9828 17.9188 40.5231C17.8734 40.2907 17.8305 40.0717 17.8206 39.8442C17.8075 39.6189 17.8063 39.4003 17.8153 39.1889C17.8333 38.766 17.8921 38.3721 17.978 38.0121C18.0589 37.6555 18.192 37.3154 18.3235 37.0217C18.4577 36.7261 18.6028 36.4684 18.7443 36.2514C19.0276 35.8179 19.2963 35.5462 19.4381 35.465C19.4381 35.465 19.5553 35.562 19.7189 35.7363C19.8853 35.909 20.0859 36.1669 20.2846 36.4713C20.4894 36.7716 20.6731 37.1322 20.7707 37.5479C20.7952 37.6518 20.8141 37.7592 20.827 37.87C20.8418 37.9791 20.855 38.0879 20.8582 38.2023C20.8659 38.43 20.844 38.6717 20.7847 38.9269C20.6433 39.5371 20.4409 40.0202 20.2215 40.4213C20.0099 40.8164 19.7791 41.1319 19.5826 41.424C19.1907 42.0089 18.9376 42.4969 19.3265 43.4022Z" fill="#595D5F"/>
<path d="M22.9136 47.0119C22.682 46.8086 22.4494 46.6249 22.2158 46.4587C22.0997 46.3747 21.9803 46.2987 21.8664 46.2201C21.7547 46.1393 21.6427 46.0626 21.5305 45.9899C21.0816 45.699 20.6277 45.4714 20.1771 45.2906C19.7441 45.0928 19.3112 44.9449 18.8871 44.8353C18.4651 44.724 18.0416 44.6599 17.6639 44.6017C16.1282 44.3897 14.8768 44.6572 14.6211 44.8619C14.6211 44.8619 14.911 45.5788 15.501 46.3473C15.5746 46.4432 15.6527 46.5397 15.7353 46.6354C15.8203 46.7292 15.9143 46.8186 16.0102 46.9078C16.2031 47.0851 16.4138 47.2534 16.6405 47.4011C17.0948 47.6956 17.6043 47.9154 18.1937 47.9297C19.5796 47.9781 20.3003 47.5034 20.9174 47.1673C21.5305 46.8275 22.0448 46.5955 22.9136 47.0119Z" fill="#595D5F"/>
<path d="M22.9139 47.012C22.6823 46.8086 22.4694 46.6013 22.2748 46.392C22.1782 46.2864 22.0831 46.1839 21.9982 46.0745C21.9153 45.9628 21.8368 45.8511 21.7625 45.7392C21.4656 45.2917 21.2362 44.8459 21.0674 44.4106C20.9157 43.9581 20.8214 43.5193 20.7725 43.1031C20.7257 42.6849 20.7141 42.2984 20.7608 41.9175C20.924 40.4149 21.576 39.3985 21.8317 39.1936C21.8317 39.1936 22.3545 39.492 22.817 40.0386C22.875 40.1071 22.9321 40.1796 22.9875 40.2562C23.045 40.3307 23.1048 40.4052 23.1597 40.486C23.2705 40.6465 23.3699 40.8231 23.4504 41.017C23.6123 41.4036 23.6898 41.8675 23.6604 42.3763C23.5755 43.6146 23.1572 44.3885 22.8502 45.0313C22.5469 45.6783 22.381 46.1904 22.9139 47.012Z" fill="#595D5F"/>
<path d="M10.8271 11.5934C10.9842 10.6025 11.4676 10.0168 11.9414 9.37805C12.0606 9.21826 12.1804 9.05519 12.297 8.88142C12.4158 8.70809 12.5403 8.52539 12.6538 8.32436C12.8848 7.92281 13.0809 7.44903 13.2386 6.84613C13.3856 6.33244 13.4086 5.82329 13.3571 5.34071C13.3442 5.22011 13.3266 5.10119 13.3051 4.98448C13.2864 4.8684 13.2659 4.75492 13.2407 4.64378C13.1911 4.42155 13.1282 4.20975 13.058 4.01221C12.777 3.2226 12.3788 2.65936 12.2244 2.61738C12.0699 2.57539 11.4709 2.86471 10.8544 3.46311C10.7003 3.61265 10.5453 3.78128 10.3959 3.96802C10.3215 4.06145 10.2476 4.15923 10.1778 4.26188C10.111 4.36519 10.0465 4.4729 9.98544 4.58479C9.7412 5.03239 9.54962 5.54848 9.46685 6.11586C9.37943 6.82374 9.41136 7.39685 9.48826 7.88319C9.5613 8.36911 9.71242 8.77446 9.86215 9.15147C10.1642 9.90654 10.4611 10.5481 10.458 11.5587L10.8271 11.5934Z" fill="#595D5F"/>
<path d="M30.8147 47.6374C30.7534 47.3829 30.665 47.1581 30.5567 46.9594C30.449 46.7598 30.3173 46.5928 30.1864 46.4255C29.9189 46.1011 29.5995 45.8661 29.2874 45.6943C28.9699 45.5317 28.6884 45.3892 28.467 45.3132C28.2484 45.2335 28.1034 45.2012 28.1034 45.2012C27.9603 45.4195 27.7346 46.2055 27.7911 47.2665C27.8025 47.5364 27.8459 47.8018 27.9072 48.0881C27.97 48.3723 28.0571 48.668 28.1737 48.9699C28.291 49.2706 28.435 49.5829 28.6188 49.8861C28.8085 50.1782 29.0333 50.4694 29.2963 50.7536C28.4299 50.3375 27.5172 49.7909 26.5402 49.1915C26.4224 48.679 26.6036 48.207 26.7749 47.6082C26.8611 47.3092 26.9455 46.979 26.9956 46.601C27.0207 46.4121 27.0371 46.2112 27.0415 45.9969C27.0471 45.7808 27.0344 45.5595 27.0203 45.3042C26.954 44.2428 26.3685 43.604 25.8341 43.1307C25.5611 42.9034 25.2801 42.7456 25.0746 42.6339C24.8748 42.5155 24.7389 42.4578 24.7389 42.4578C24.6499 42.554 24.5179 42.7915 24.3924 43.1388C24.3308 43.3115 24.2668 43.5164 24.2185 43.737C24.1709 43.9569 24.1324 44.1998 24.1101 44.4623C24.0651 44.987 24.0844 45.5904 24.2189 46.2403C24.367 46.8723 24.6455 47.5329 25.0779 48.1997C23.5658 47.0909 22.0109 45.7454 20.542 44.1709C19.075 42.5964 17.6896 40.7977 16.5069 38.8336C15.3176 36.8743 14.3087 34.7694 13.5022 32.6332C12.6936 30.4972 12.086 28.3321 11.6445 26.2524C11.2055 24.1706 10.9632 22.1718 10.8028 20.3615C10.7444 19.4543 10.6739 18.5956 10.6665 17.7912C10.6562 17.3893 10.6462 17.0017 10.6367 16.6297C10.6409 16.2575 10.645 15.9008 10.6489 15.5607C10.6541 15.2206 10.6532 14.897 10.663 14.5916C10.6781 14.2863 10.6923 13.9988 10.7055 13.7302C10.7187 13.4617 10.7311 13.2119 10.7424 12.9824C10.7482 12.8676 10.7538 12.7578 10.7592 12.6533C10.7682 12.549 10.7769 12.4498 10.7851 12.3559C10.8504 11.6047 10.8863 11.1926 10.8863 11.1926L10.477 11.1508C10.477 11.1508 10.4367 11.5673 10.3633 12.3265C10.3541 12.4214 10.3444 12.5216 10.3343 12.6271C10.3279 12.7328 10.3213 12.8439 10.3144 12.9599C10.3007 13.1921 10.2858 13.4445 10.2698 13.7161C10.2538 13.9878 10.2367 14.2785 10.2184 14.5872C10.2066 14.8963 10.2034 15.2236 10.1951 15.5678C10.1879 15.912 10.1803 16.2731 10.1724 16.6499C10.1787 17.0267 10.1851 17.4192 10.1919 17.8262C10.1914 18.641 10.2563 19.5114 10.3059 20.4314C10.4514 22.2676 10.6828 24.2964 11.107 26.4148C11.5373 28.5305 12.1369 30.7368 12.9431 32.9186C13.7474 35.1003 14.7599 37.2554 15.9606 39.2662C17.155 41.2811 18.5529 43.1383 20.0487 44.7598C21.5423 46.3851 23.132 47.771 24.6721 48.9234C23.9141 48.6595 23.1711 48.5373 22.4732 48.4971C21.7938 48.4345 21.1527 48.4637 20.5889 48.5391C20.3071 48.577 20.0445 48.6266 19.8067 48.683C19.5687 48.7393 19.3636 48.7936 19.1823 48.8556C18.8218 48.9772 18.5777 49.1088 18.4879 49.206C18.4879 49.206 18.5827 49.3763 18.7629 49.6339C18.9489 49.8851 19.2341 50.2101 19.5898 50.539C20.2853 51.2135 21.3617 51.7929 22.4964 51.6769C22.7683 51.6516 23.0229 51.5892 23.2459 51.524C23.4704 51.457 23.6697 51.3782 23.8497 51.2923C24.2095 51.1207 24.4925 50.9217 24.7412 50.7303C25.2376 50.3467 25.6 49.9956 26.1213 49.9224C26.2428 50.0108 26.3715 50.0846 26.4974 50.1607C26.6233 50.2366 26.748 50.3117 26.8714 50.386C27.1183 50.5346 27.3604 50.6804 27.597 50.8228C27.7154 50.894 27.8325 50.9643 27.9483 51.0338C28.0678 51.0961 28.186 51.1578 28.3027 51.2187C28.536 51.3404 28.7638 51.4591 28.9855 51.5747C28.591 51.5172 28.2065 51.4928 27.8336 51.4942C27.4632 51.4907 27.1151 51.4926 26.7742 51.5265C26.0971 51.5857 25.4661 51.7377 24.9328 51.8969C23.8707 52.206 23.1376 52.6607 22.9931 52.8809C22.9931 52.8809 23.1153 53.031 23.3368 53.2515C23.5605 53.4679 23.8729 53.7751 24.2855 54.0226C24.6924 54.2793 25.1738 54.5213 25.6912 54.6646C25.9472 54.7417 26.2233 54.7699 26.4994 54.7706C26.7759 54.7702 27.0558 54.7352 27.3332 54.6554C27.863 54.5028 28.2647 54.3013 28.5888 54.0832C28.9111 53.8688 29.1645 53.6167 29.3794 53.3909C29.8107 52.9325 30.1132 52.5262 30.6072 52.3534C30.959 52.5099 31.2873 52.6562 31.5905 52.7911C31.9027 52.9082 32.189 53.0156 32.4476 53.1126C32.9649 53.3035 33.371 53.4646 33.6509 53.5557C32.8738 53.5626 32.148 53.6697 31.4813 53.8524C31.1436 53.9474 30.8402 54.0365 30.5512 54.1432C30.2626 54.2493 29.9925 54.3667 29.744 54.4889C28.7494 54.9774 28.1034 55.5453 27.9952 55.7842C27.9952 55.7842 28.5738 56.2831 29.4417 56.6873C29.5499 56.7377 29.6626 56.7866 29.7787 56.8327C29.8372 56.8548 29.8963 56.8771 29.9557 56.8997C30.0174 56.9204 30.0843 56.9384 30.1496 56.9564C30.4128 57.0275 30.6882 57.0821 30.9677 57.1103C31.2472 57.1385 31.5307 57.1403 31.8106 57.1062C31.9505 57.0891 32.0896 57.063 32.2265 57.0269C32.295 57.0088 32.3629 56.9881 32.4304 56.9647C32.4984 56.9419 32.5654 56.916 32.6222 56.8803C33.5462 56.3558 35.6475 53.8666 35.6855 53.7374C35.7559 53.4984 35.3404 50.3244 34.8419 49.3516C34.8071 49.2903 34.7829 49.2305 34.7583 49.1729C34.7328 49.1152 34.7062 49.0596 34.6786 49.0058C34.6233 48.8985 34.5639 48.7992 34.5011 48.707C34.3755 48.523 34.2361 48.3683 34.088 48.2384C33.9401 48.1086 33.7836 48.0032 33.6242 47.9179C33.5404 47.8744 33.458 47.8317 33.3774 47.7896C33.2931 47.7475 33.2092 47.7097 33.1262 47.6761C32.4649 47.407 31.8627 47.386 31.8627 47.386C31.7555 47.6224 31.6599 48.4192 31.8808 49.433C31.9362 49.6865 32.0117 49.9537 32.1119 50.229C32.2124 50.5013 32.3365 50.7969 32.4923 51.0596C32.804 51.5988 33.24 52.1481 33.8291 52.6495C33.5496 52.5476 33.1578 52.4048 32.6671 52.2259C32.4223 52.1349 32.1506 52.0415 31.8594 51.9277C31.5713 51.8023 31.2606 51.6671 30.9289 51.5229C30.7457 51.0492 30.8525 50.5591 30.926 49.9491C30.9647 49.6416 30.9898 49.3163 30.9844 48.9284C30.9774 48.5443 30.9303 48.1168 30.8147 47.6374Z" fill="#595D5F"/>
<path d="M185.078 14.6293C185.045 14.0066 184.953 13.4338 184.816 12.9134C184.753 12.6528 184.658 12.4066 184.562 12.1728C184.465 11.939 184.358 11.7182 184.245 11.51C183.804 10.6753 183.193 10.0518 182.606 9.59582C182.31 9.36787 182.016 9.18182 181.734 9.03212C181.445 8.88335 181.172 8.77056 180.926 8.68757C180.436 8.52178 180.057 8.47461 179.897 8.50132C179.897 8.50132 179.869 8.65836 179.853 8.91039C179.845 9.03653 179.843 9.18606 179.845 9.35233C179.843 9.51918 179.848 9.70233 179.868 9.89469C179.906 10.2793 179.999 10.6999 180.191 11.1038C180.37 11.5089 180.642 11.8985 181.064 12.2212C182.076 12.995 182.905 13.1567 183.583 13.3268C184.259 13.5003 184.768 13.6935 185.078 14.6293Z" fill="#595D5F"/>
<path d="M185.078 14.6293C185.044 14.0066 185.074 13.4291 185.153 12.8903C185.196 12.6206 185.232 12.3622 185.287 12.1124C185.34 11.8627 185.404 11.6224 185.477 11.3909C185.781 10.4641 186.173 9.6843 186.625 9.04104C186.849 8.71997 187.084 8.43396 187.313 8.18493C187.535 7.93699 187.754 7.72574 187.957 7.55292C188.362 7.20697 188.7 7.0157 188.861 6.98899C188.861 6.98899 188.943 7.15541 189.048 7.43612C189.099 7.57663 189.159 7.74536 189.212 7.93668C189.26 8.12872 189.306 8.34268 189.341 8.57161C189.412 9.02937 189.44 9.54706 189.367 10.0629C189.281 10.5805 189.087 11.0964 188.738 11.5443C187.907 12.6113 187.072 12.8814 186.423 13.151C185.771 13.4175 185.286 13.6752 185.078 14.6293Z" fill="#595D5F"/>
<path d="M185.001 19.7735C185.02 19.4624 185.024 19.1621 185.012 18.8733C185.006 18.5848 184.959 18.3064 184.914 18.0406C184.817 17.5085 184.677 17.0241 184.493 16.5874C184.298 16.1506 184.071 15.7616 183.826 15.4182C183.577 15.0749 183.325 14.777 183.042 14.5217C181.929 13.5001 180.773 13.1485 180.449 13.1692C180.449 13.1692 180.264 13.7804 180.286 14.5493C180.288 14.6456 180.295 14.7444 180.303 14.8452C180.309 14.9459 180.318 15.0484 180.332 15.1519C180.361 15.359 180.408 15.5703 180.48 15.7801C180.622 16.1996 180.88 16.6136 181.253 16.9751C182.164 17.8428 182.993 18.0889 183.653 18.3267C184.318 18.5682 184.801 18.8116 185.001 19.7735Z" fill="#595D5F"/>
<path d="M185.001 19.7738C185.02 19.4627 185.053 19.1644 185.1 18.878C185.151 18.5918 185.187 18.3161 185.251 18.0521C185.369 17.5236 185.539 17.0388 185.73 16.5926C185.911 16.1465 186.125 15.7394 186.359 15.3688C186.589 14.9983 186.853 14.6638 187.096 14.3666C188.088 13.1765 189.192 12.5616 189.516 12.5409C189.516 12.5409 189.772 13.2398 189.843 14.1672C189.851 14.283 189.858 14.4021 189.859 14.5239C189.857 14.6459 189.851 14.7701 189.84 14.8959C189.819 15.1473 189.78 15.4045 189.715 15.6583C189.582 16.1662 189.364 16.6607 188.957 17.073C188.005 18.0541 187.167 18.2379 186.497 18.4408C185.831 18.6403 185.319 18.8474 185.001 19.7738Z" fill="#595D5F"/>
<path d="M184.411 24.8823C184.473 24.577 184.494 24.2767 184.508 23.9875C184.52 23.6981 184.518 23.4187 184.502 23.1497C184.478 22.613 184.364 22.1136 184.223 21.6599C184.078 21.2058 183.904 20.7971 183.691 20.4304C183.474 20.0633 183.234 19.7398 182.987 19.4581C182.01 18.3321 180.86 17.8655 180.541 17.8534C180.541 17.8534 180.483 18.0008 180.422 18.2432C180.366 18.4865 180.274 18.8209 180.243 19.2025C180.226 19.3931 180.22 19.5954 180.233 19.8037C180.244 20.0118 180.283 20.2274 180.325 20.441C180.42 20.8696 180.615 21.303 180.967 21.7028C181.392 22.1815 181.786 22.5036 182.164 22.744C182.542 22.9847 182.898 23.1428 183.212 23.2972C183.526 23.452 183.799 23.6038 184.008 23.8391C184.113 23.9567 184.201 24.0953 184.272 24.2658C184.307 24.3512 184.337 24.4444 184.363 24.5471C184.385 24.6491 184.4 24.7605 184.411 24.8823Z" fill="#595D5F"/>
<path d="M184.41 24.8825C184.473 24.5772 184.524 24.2821 184.594 24.0015C184.663 23.7206 184.744 23.4529 184.835 23.1972C185.025 22.6869 185.22 22.2197 185.453 21.7956C185.682 21.3712 185.95 20.9894 186.216 20.6442C186.478 20.299 186.756 19.992 187.037 19.7212C188.171 18.6379 189.296 18.1349 189.626 18.1476C189.626 18.1476 189.676 18.3282 189.726 18.6258C189.782 18.9233 189.806 19.3389 189.791 19.8052C189.782 20.0383 189.761 20.2841 189.72 20.5333C189.677 20.7825 189.624 21.0356 189.526 21.2823C189.338 21.7759 189.05 22.246 188.621 22.616C188.113 23.0583 187.628 23.2985 187.195 23.4476C186.761 23.5964 186.374 23.6539 186.029 23.7172C185.683 23.7804 185.38 23.8494 185.113 24.0143C184.98 24.0967 184.857 24.2031 184.742 24.3444C184.684 24.4151 184.629 24.4944 184.576 24.5841C184.519 24.6732 184.464 24.7721 184.41 24.8825Z" fill="#595D5F"/>
<path d="M183.259 29.8883C183.422 29.2877 183.527 28.719 183.549 28.18C183.563 27.6386 183.52 27.1335 183.435 26.6688C183.413 26.5525 183.389 26.4389 183.363 26.3276C183.332 26.2155 183.298 26.1057 183.263 25.9986C183.192 25.7843 183.113 25.5804 183.027 25.3867C182.855 24.9994 182.656 24.6536 182.444 24.3483C181.563 23.1204 180.49 22.5409 180.171 22.4942C180.171 22.4942 179.874 23.0478 179.743 23.7949C179.663 24.1655 179.623 24.5858 179.683 25.0219C179.71 25.2392 179.773 25.4638 179.849 25.6828C179.927 25.9025 180.037 26.1224 180.188 26.3388C180.546 26.8561 180.915 27.224 181.269 27.5069C181.447 27.6484 181.62 27.7691 181.786 27.8779C181.951 27.9839 182.107 28.0831 182.253 28.1772C182.84 28.5567 183.262 28.9022 183.259 29.8883Z" fill="#595D5F"/>
<path d="M183.259 29.8885C183.422 29.2881 183.644 28.7544 183.876 28.2658C184.1 27.7752 184.36 27.3368 184.644 26.9424C184.715 26.8439 184.787 26.7482 184.861 26.6549C184.93 26.561 185 26.4696 185.072 26.381C185.216 26.2036 185.364 26.0367 185.515 25.8797C185.817 25.5658 186.132 25.2913 186.444 25.0528C187.66 24.0935 188.854 23.7129 189.178 23.7605C189.178 23.7605 189.294 24.5051 189.177 25.4372C189.102 25.9009 188.97 26.4097 188.741 26.8844C188.624 27.1214 188.493 27.3512 188.315 27.5592C188.138 27.7675 187.933 27.9568 187.697 28.1169C187.13 28.4993 186.634 28.6859 186.191 28.7862C185.97 28.8362 185.763 28.8644 185.567 28.8832C185.369 28.9012 185.182 28.9101 185.006 28.9214C184.302 28.9659 183.76 29.0547 183.259 29.8885Z" fill="#595D5F"/>
<path d="M181.513 34.7102C181.637 34.4255 181.742 34.1454 181.83 33.8712C181.91 33.5935 181.965 33.3187 182.009 33.0528C182.052 32.7866 182.08 32.5276 182.094 32.2766C182.101 32.1511 182.105 32.0277 182.105 31.9063C182.102 31.7834 182.093 31.662 182.083 31.5432C181.993 30.5891 181.74 29.7873 181.361 29.124C180.995 28.4645 180.564 27.9631 180.187 27.6158C179.812 27.2698 179.472 27.0699 179.317 27.0298C179.317 27.0298 179.297 27.0627 179.261 27.1218C179.226 27.1819 179.176 27.2686 179.115 27.3756C178.995 27.5915 178.849 27.8957 178.738 28.2543C178.683 28.4334 178.638 28.6273 178.606 28.8296C178.567 29.0289 178.545 29.2383 178.547 29.4549C178.549 29.8872 178.656 30.3523 178.906 30.8167C179.483 31.9219 180.183 32.4384 180.726 32.887C180.998 33.1133 181.229 33.3266 181.38 33.6065C181.525 33.8831 181.582 34.224 181.513 34.7102Z" fill="#595D5F"/>
<path d="M181.513 34.7099C181.637 34.4251 181.77 34.1575 181.912 33.9054C182.045 33.6498 182.178 33.4064 182.324 33.1786C182.468 32.9506 182.619 32.7366 182.777 32.5351C182.856 32.4344 182.936 32.3369 183.017 32.2424C183.095 32.1465 183.172 32.053 183.251 31.9627C183.879 31.2396 184.607 30.7073 185.255 30.2972C185.916 29.8916 186.559 29.6278 187.075 29.4764C187.594 29.3252 187.969 29.2842 188.129 29.3261C188.129 29.3261 188.131 29.3736 188.133 29.4592C188.137 29.5451 188.13 29.6681 188.118 29.8199C188.094 30.1235 188.04 30.5432 187.923 31.0014C187.865 31.2303 187.793 31.4695 187.697 31.7065C187.594 31.9421 187.472 32.1766 187.326 32.3996C187.033 32.8449 186.658 33.2462 186.15 33.5088C184.919 34.1271 184.067 34.0114 183.368 33.9735C183.018 33.9527 182.709 33.9472 182.414 34.0443C182.113 34.1387 181.82 34.3318 181.513 34.7099Z" fill="#595D5F"/>
<path d="M179.158 39.2523C179.24 39.1209 179.321 38.9923 179.391 38.8602C179.457 38.7262 179.519 38.5932 179.577 38.4609C179.692 38.1964 179.79 37.9356 179.872 37.68C179.912 37.5521 179.949 37.4255 179.982 37.3003C179.997 37.2376 180.013 37.1753 180.028 37.1134C180.038 37.0499 180.049 36.9869 180.06 36.9244C180.099 36.6738 180.124 36.4296 180.137 36.1927C180.149 35.9557 180.148 35.7261 180.137 35.5042C180.124 35.282 180.105 35.0701 180.062 34.8586C179.982 34.4394 179.866 34.0548 179.728 33.7071C179.591 33.3595 179.432 33.0489 179.266 32.7769C179.096 32.5027 178.913 32.2638 178.744 32.0672C178.403 31.6732 178.1 31.4389 177.949 31.378C177.949 31.378 177.847 31.493 177.711 31.6932C177.641 31.7924 177.57 31.9165 177.485 32.0518C177.4 32.1869 177.314 32.3393 177.236 32.5063C177.075 32.8389 176.955 33.2358 176.908 33.6619C176.852 34.0834 176.889 34.5469 177.082 35.0406C177.318 35.6341 177.57 36.0729 177.838 36.4342C178.106 36.7955 178.381 37.0743 178.619 37.3347C178.856 37.5953 179.056 37.8379 179.166 38.1347C179.273 38.4298 179.306 38.789 179.158 39.2523Z" fill="#595D5F"/>
<path d="M179.159 39.2525C179.241 39.1211 179.328 38.9966 179.411 38.8722C179.49 38.746 179.571 38.6242 179.653 38.5067C179.819 38.2714 179.99 38.0526 180.167 37.8484C180.255 37.7463 180.345 37.648 180.436 37.5531C180.482 37.5061 180.527 37.4595 180.573 37.4132C180.616 37.3664 180.66 37.3201 180.703 37.274C180.878 37.0918 181.058 36.923 181.241 36.7663C181.424 36.6096 181.61 36.4652 181.798 36.3315C181.985 36.1975 182.179 36.0768 182.357 35.9586C182.721 35.7258 183.088 35.5337 183.446 35.3757C183.804 35.2177 184.152 35.0939 184.477 34.9988C184.798 34.9019 185.091 34.8317 185.354 34.7875C185.878 34.6979 186.266 34.707 186.417 34.7677C186.417 34.7677 186.403 34.9583 186.349 35.2618C186.32 35.4129 186.288 35.5946 186.229 35.7902C186.17 35.9856 186.097 36.1987 186.007 36.4196C185.825 36.8599 185.586 37.3356 185.24 37.7444C184.886 38.1497 184.447 38.4962 183.912 38.6928C183.28 38.9304 182.735 38.9772 182.277 38.9582C181.818 38.9384 181.436 38.8483 181.091 38.7789C180.746 38.7094 180.439 38.6603 180.131 38.7141C179.822 38.7661 179.527 38.93 179.159 39.2525Z" fill="#595D5F"/>
<path d="M176.182 43.3968C176.568 42.9141 176.878 42.4281 177.119 41.9525C177.344 41.4633 177.491 40.9777 177.589 40.5181C177.634 40.2858 177.677 40.0668 177.687 39.8393C177.7 39.614 177.701 39.3955 177.692 39.184C177.674 38.7612 177.615 38.3674 177.529 38.0074C177.449 37.6509 177.315 37.3108 177.184 37.017C177.05 36.7214 176.905 36.4638 176.763 36.2469C176.48 35.8134 176.212 35.5417 176.07 35.4605C176.07 35.4605 175.953 35.5575 175.789 35.7318C175.623 35.9043 175.423 36.1624 175.224 36.4666C175.019 36.7669 174.836 37.1275 174.738 37.5431C174.714 37.647 174.695 37.7544 174.682 37.8651C174.667 37.9742 174.654 38.0831 174.651 38.1974C174.643 38.4251 174.665 38.6667 174.724 38.922C174.866 39.532 175.068 40.0151 175.287 40.4162C175.499 40.8112 175.729 41.1266 175.926 41.4187C176.318 42.0037 176.571 42.4916 176.182 43.3968Z" fill="#595D5F"/>
<path d="M176.181 43.397C176.567 42.9144 176.97 42.5089 177.386 42.1634C177.784 41.8047 178.186 41.4998 178.599 41.2479C178.803 41.1197 179.019 41.0114 179.214 40.8996C179.413 40.7903 179.613 40.6921 179.811 40.6039C180.209 40.4276 180.603 40.2911 180.983 40.1865C181.368 40.0849 181.713 40 182.046 39.9485C182.376 39.8953 182.681 39.8681 182.948 39.8602C183.484 39.8439 183.87 39.9059 184.012 39.9871C184.012 39.9871 183.969 40.1745 183.87 40.4685C183.767 40.7608 183.62 41.167 183.38 41.583C183.133 41.9956 182.814 42.429 182.418 42.7917C182.32 42.8825 182.216 42.9687 182.108 43.0489C181.997 43.1278 181.877 43.1977 181.755 43.262C181.509 43.3898 181.245 43.4881 180.963 43.5458C180.29 43.6831 179.76 43.6604 179.314 43.5778C178.86 43.4889 178.493 43.341 178.161 43.2199C177.496 42.976 176.964 42.8376 176.181 43.397Z" fill="#595D5F"/>
<path d="M172.598 47.0055C172.829 46.8022 173.042 46.595 173.237 46.3856C173.333 46.2801 173.428 46.1776 173.513 46.0682C173.596 45.9565 173.674 45.8448 173.749 45.733C174.045 45.2855 174.275 44.8398 174.443 44.4046C174.595 43.9521 174.689 43.5134 174.738 43.0972C174.785 42.679 174.796 42.2927 174.75 41.9118C174.586 40.4093 173.935 39.3931 173.679 39.1882C173.679 39.1882 173.157 39.4866 172.695 40.0331C172.637 40.1016 172.58 40.1741 172.524 40.2507C172.467 40.3251 172.407 40.3997 172.352 40.4804C172.242 40.6409 172.142 40.8175 172.062 41.0114C171.9 41.3979 171.823 41.8617 171.852 42.3705C171.937 43.6086 172.355 44.3825 172.661 45.0251C172.965 45.6719 173.131 46.1839 172.598 47.0055Z" fill="#595D5F"/>
<path d="M172.598 47.0056C172.829 46.8023 173.062 46.6187 173.295 46.4525C173.411 46.3686 173.53 46.2925 173.644 46.214C173.756 46.1332 173.868 46.0565 173.98 45.9838C174.428 45.6929 174.882 45.4655 175.332 45.2846C175.765 45.0868 176.198 44.939 176.621 44.8293C177.043 44.7181 177.466 44.654 177.844 44.5959C179.378 44.3839 180.629 44.6512 180.885 44.856C180.885 44.856 180.595 45.5728 180.005 46.3413C179.932 46.4372 179.854 46.5337 179.771 46.6293C179.686 46.7231 179.592 46.8125 179.496 46.9017C179.304 47.079 179.093 47.2473 178.866 47.395C178.412 47.6895 177.903 47.9093 177.314 47.9235C175.929 47.9719 175.209 47.4973 174.592 47.1612C173.98 46.8212 173.466 46.5892 172.598 47.0056Z" fill="#595D5F"/>
<path d="M185.069 11.5555C185.066 10.5445 185.35 9.86239 185.647 9.08617C185.72 8.89234 185.793 8.69299 185.859 8.48171C185.924 8.2709 185.974 8.04962 186.015 7.80974C186.094 7.33077 186.133 6.77815 186.059 6.11097C185.983 5.54249 185.795 5.02545 185.552 4.57742C185.492 4.46528 185.428 4.35755 185.361 4.25421C185.291 4.15153 185.217 4.05365 185.143 3.96023C184.993 3.77326 184.838 3.60471 184.683 3.45531C184.063 2.85722 183.457 2.56911 183.303 2.61109C183.148 2.65306 182.757 3.21398 182.48 4.00281C182.411 4.20024 182.349 4.41196 182.3 4.63408C182.275 4.74527 182.254 4.85877 182.236 4.97498C182.214 5.09182 182.196 5.21076 182.183 5.33161C182.13 5.8148 182.15 6.32543 182.29 6.84114C182.448 7.48473 182.644 7.97881 182.875 8.38824C183.11 8.7971 183.346 9.12593 183.585 9.43541C184.059 10.0545 184.542 10.599 184.7 11.5903L185.069 11.5555Z" fill="#595D5F"/>
<path d="M168.181 54.648C168.458 54.7278 168.738 54.7629 169.014 54.7633C169.29 54.7627 169.566 54.7343 169.822 54.6573C170.339 54.5141 170.82 54.2722 171.226 54.0154C171.639 53.768 171.951 53.4608 172.174 53.2445C172.396 53.0239 172.518 52.8739 172.518 52.8739C172.375 52.6557 171.655 52.2076 170.609 51.8986C170.351 51.8258 170.059 51.7392 169.756 51.6758C169.452 51.6102 169.131 51.5578 168.797 51.5248C168.461 51.4905 168.116 51.4812 167.754 51.4876C167.386 51.483 167.007 51.503 166.618 51.555C167.503 51.1188 168.436 50.5487 169.433 49.9229C169.939 50.0097 170.298 50.3605 170.791 50.7394C171.038 50.9285 171.319 51.1241 171.676 51.2924C171.855 51.3766 172.052 51.4538 172.274 51.5196C172.495 51.5835 172.746 51.6448 173.014 51.6696C174.148 51.7859 175.224 51.2063 175.919 50.532C176.274 50.2033 176.559 49.8782 176.745 49.627C176.925 49.3694 177.02 49.1991 177.02 49.1991C176.931 49.1028 176.69 48.9727 176.336 48.8523C176.158 48.7911 175.955 48.7364 175.722 48.6811C175.488 48.625 175.229 48.5754 174.952 48.5371C174.396 48.4605 173.764 48.4289 173.094 48.4859C172.409 48.5258 171.672 48.6353 170.925 48.8893C172.467 47.7358 174.049 46.3391 175.538 44.7109C177.025 43.0828 178.423 41.2282 179.611 39.2119C180.805 37.1999 181.811 35.0457 182.61 32.8661C183.411 30.6864 184.006 28.4835 184.433 26.3718C184.857 24.258 185.083 22.2332 185.227 20.4017C185.277 19.4839 185.34 18.6156 185.34 17.8031C185.346 17.3971 185.353 17.0056 185.358 16.63C185.351 16.2541 185.343 15.8942 185.336 15.5508C185.327 15.2076 185.325 14.8811 185.312 14.5729C185.294 14.265 185.277 13.9751 185.261 13.7042C185.245 13.4333 185.23 13.1816 185.217 12.9502C185.21 12.8346 185.203 12.7239 185.196 12.6185C185.186 12.5134 185.177 12.4135 185.168 12.3188C185.094 11.5621 185.054 11.1466 185.054 11.1466L184.645 11.1884C184.645 11.1884 184.681 11.6022 184.747 12.3563C184.755 12.4506 184.764 12.5501 184.773 12.6548C184.778 12.7598 184.783 12.8699 184.789 12.9851C184.801 13.2156 184.813 13.4662 184.826 13.7358C184.84 14.0054 184.854 14.2939 184.869 14.6003C184.878 14.9069 184.877 15.2317 184.883 15.5729C184.886 15.9142 184.891 16.2722 184.895 16.6457C184.885 17.019 184.875 17.408 184.864 17.8113C184.857 18.6186 184.784 19.4801 184.727 20.3906C184.565 22.2071 184.317 24.2117 183.878 26.3002C183.433 28.3859 182.821 30.5568 182.007 32.6974C181.195 34.8381 180.179 36.9464 178.983 38.9073C177.794 40.8723 176.408 42.6765 174.932 44.2468C173.458 45.8209 171.895 47.1577 170.384 48.2674C170.835 47.5977 171.121 46.9246 171.281 46.2893C171.423 45.6309 171.447 45.0188 171.404 44.4861C171.382 44.2197 171.344 43.9732 171.297 43.7499C171.249 43.5268 171.184 43.3182 171.122 43.1431C170.996 42.7903 170.862 42.5494 170.772 42.4522C170.772 42.4522 170.637 42.51 170.437 42.6282C170.232 42.7401 169.951 42.8978 169.678 43.125C169.144 43.5982 168.559 44.2368 168.493 45.2981C168.478 45.5571 168.465 45.7809 168.472 45.9998C168.476 46.2168 168.493 46.4197 168.519 46.6106C168.571 46.9925 168.658 47.3253 168.745 47.6267C168.919 48.2301 169.099 48.7057 168.962 49.2276C168.843 49.3126 168.717 49.3833 168.594 49.4562C168.47 49.529 168.348 49.6009 168.227 49.6723C167.985 49.8149 167.748 49.9547 167.516 50.0913C167.4 50.1596 167.286 50.2272 167.173 50.2939C167.055 50.3535 166.94 50.4125 166.825 50.4708C166.597 50.5873 166.374 50.7008 166.157 50.8114C166.428 50.5257 166.66 50.2322 166.856 49.9377C167.05 49.6383 167.197 49.3176 167.319 49.0149C167.56 48.4009 167.686 47.8243 167.72 47.2903C167.783 46.2139 167.554 45.4152 167.41 45.1948C167.41 45.1948 167.265 45.2271 167.046 45.3068C166.825 45.3827 166.544 45.5252 166.227 45.6878C165.915 45.8594 165.596 46.0945 165.328 46.4189C165.197 46.5862 165.066 46.7531 164.958 46.9527C164.85 47.1514 164.762 47.3762 164.701 47.6306C164.583 48.1167 164.536 48.5493 164.53 48.9375C164.526 49.3296 164.552 49.6571 164.592 49.9674C164.667 50.5827 164.772 51.0757 164.57 51.5553C164.226 51.7048 163.905 51.8445 163.608 51.9735C163.307 52.0835 163.03 52.1846 162.78 52.2756C162.279 52.4557 161.892 52.6071 161.615 52.6953C162.227 52.2013 162.673 51.6415 162.996 51.0987C163.157 50.8328 163.285 50.5394 163.389 50.2613C163.492 49.9825 163.571 49.7118 163.628 49.455C163.858 48.4275 163.761 47.6176 163.653 47.3789C163.653 47.3789 163.051 47.3999 162.39 47.6689C162.308 47.7027 162.224 47.7403 162.14 47.7824C162.059 47.8244 161.976 47.8672 161.893 47.9108C161.733 47.9961 161.577 48.1012 161.429 48.2312C161.281 48.361 161.142 48.5157 161.016 48.6997C160.954 48.7917 160.894 48.8911 160.839 48.9985C160.811 49.0522 160.785 49.1079 160.759 49.1655C160.735 49.2233 160.711 49.2831 160.676 49.3442C160.188 50.2973 159.779 53.548 159.817 53.6771C159.888 53.916 161.952 56.3366 162.894 56.8719C162.951 56.9077 163.018 56.9335 163.086 56.9564C163.153 56.9797 163.221 57.0003 163.29 57.0185C163.426 57.0547 163.565 57.0807 163.705 57.0978C163.985 57.132 164.268 57.1301 164.548 57.1019C164.827 57.0737 165.102 57.0193 165.365 56.9483C165.43 56.9302 165.497 56.9122 165.559 56.8915C165.619 56.8689 165.677 56.8466 165.736 56.8245C165.852 56.7784 165.965 56.7295 166.073 56.6792C166.94 56.275 167.518 55.7761 167.518 55.7761C167.411 55.5397 166.777 54.9801 165.799 54.4945C165.555 54.373 165.29 54.2562 165.006 54.15C164.72 54.0413 164.425 53.9555 164.092 53.8593C163.436 53.677 162.721 53.5576 161.956 53.5518C162.246 53.4437 162.652 53.2923 163.161 53.1025C163.414 53.0057 163.697 52.9054 163.997 52.7847C164.291 52.6534 164.609 52.5116 164.949 52.3603C165.426 52.5433 165.724 52.9486 166.153 53.402C166.588 53.8614 167.138 54.3467 168.181 54.648Z" fill="#595D5F"/>
</svg>
