<svg width="195" height="59" viewBox="0 0 195 59" fill="none" xmlns="http://www.w3.org/2000/svg">
<path d="M29.5939 15.8545V5.67267H33.611C34.3832 5.67267 35.0411 5.82016 35.5847 6.11515C36.1283 6.40681 36.5426 6.81283 36.8276 7.33318C37.1159 7.85023 37.2601 8.44682 37.2601 9.12296C37.2601 9.79909 37.1143 10.3957 36.8226 10.9127C36.531 11.4298 36.1084 11.8325 35.5549 12.1208C35.0047 12.4092 34.3385 12.5534 33.5563 12.5534H30.9959V10.8282H33.2083C33.6226 10.8282 33.964 10.757 34.2324 10.6144C34.5042 10.4686 34.7064 10.2681 34.839 10.0129C34.9748 9.75435 35.0428 9.45771 35.0428 9.12296C35.0428 8.78489 34.9748 8.48991 34.839 8.23801C34.7064 7.98281 34.5042 7.7856 34.2324 7.6464C33.9606 7.50388 33.6159 7.43262 33.1983 7.43262H31.7466V15.8545H29.5939ZM38.6186 15.8545V8.21813H40.6719V9.55051H40.7514C40.8906 9.07656 41.1243 8.7186 41.4524 8.47665C41.7805 8.23139 42.1584 8.10875 42.5859 8.10875C42.692 8.10875 42.8063 8.11538 42.929 8.12864C43.0516 8.1419 43.1593 8.16013 43.2521 8.18333V10.0626C43.1527 10.0328 43.0152 10.0062 42.8395 9.98304C42.6638 9.95984 42.5031 9.94824 42.3572 9.94824C42.0457 9.94824 41.7673 10.0162 41.522 10.1521C41.2801 10.2847 41.0878 10.4703 40.9453 10.7089C40.8061 10.9475 40.7365 11.2226 40.7365 11.5342V15.8545H38.6186ZM47.4419 16.0036C46.6697 16.0036 46.0018 15.8396 45.4384 15.5115C44.8783 15.18 44.4457 14.7193 44.1408 14.1294C43.8359 13.5361 43.6834 12.8483 43.6834 12.0661C43.6834 11.2773 43.8359 10.5879 44.1408 9.99796C44.4457 9.40468 44.8783 8.94398 45.4384 8.61586C46.0018 8.28442 46.6697 8.1187 47.4419 8.1187C48.2142 8.1187 48.8804 8.28442 49.4405 8.61586C50.004 8.94398 50.4382 9.40468 50.7431 9.99796C51.048 10.5879 51.2005 11.2773 51.2005 12.0661C51.2005 12.8483 51.048 13.5361 50.7431 14.1294C50.4382 14.7193 50.004 15.18 49.4405 15.5115C48.8804 15.8396 48.2142 16.0036 47.4419 16.0036ZM47.4519 14.363C47.8032 14.363 48.0965 14.2636 48.3319 14.0647C48.5672 13.8625 48.7445 13.5874 48.8638 13.2394C48.9864 12.8914 49.0478 12.4954 49.0478 12.0512C49.0478 11.6071 48.9864 11.211 48.8638 10.863C48.7445 10.515 48.5672 10.2399 48.3319 10.0377C48.0965 9.83555 47.8032 9.73446 47.4519 9.73446C47.0972 9.73446 46.7989 9.83555 46.557 10.0377C46.3184 10.2399 46.1377 10.515 46.0151 10.863C45.8958 11.211 45.8361 11.6071 45.8361 12.0512C45.8361 12.4954 45.8958 12.8914 46.0151 13.2394C46.1377 13.5874 46.3184 13.8625 46.557 14.0647C46.7989 14.2636 47.0972 14.363 47.4519 14.363ZM55.3915 15.9788C54.8115 15.9788 54.2862 15.8296 53.8155 15.5313C53.3482 15.2297 52.977 14.7873 52.7019 14.2039C52.4301 13.6173 52.2942 12.8981 52.2942 12.0463C52.2942 11.1713 52.4351 10.4437 52.7168 9.86373C52.9985 9.28039 53.373 8.84455 53.8404 8.5562C54.311 8.26453 54.8264 8.1187 55.3865 8.1187C55.8141 8.1187 56.1704 8.19161 56.4554 8.33745C56.7438 8.47997 56.9758 8.65894 57.1515 8.87438C57.3304 9.0865 57.4663 9.29531 57.5591 9.5008H57.6238V5.67267H59.7367V15.8545H57.6486V14.6315H57.5591C57.4597 14.8436 57.3188 15.0541 57.1365 15.2629C56.9576 15.4684 56.7239 15.6391 56.4355 15.7749C56.1505 15.9108 55.8025 15.9788 55.3915 15.9788ZM56.0627 14.2934C56.4041 14.2934 56.6924 14.2006 56.9277 14.015C57.1664 13.8261 57.3487 13.5626 57.4746 13.2245C57.6039 12.8865 57.6685 12.4904 57.6685 12.0363C57.6685 11.5822 57.6055 11.1878 57.4796 10.8531C57.3536 10.5183 57.1713 10.2598 56.9327 10.0775C56.6941 9.89521 56.4041 9.80407 56.0627 9.80407C55.7147 9.80407 55.4213 9.89853 55.1827 10.0874C54.9441 10.2764 54.7634 10.5382 54.6408 10.873C54.5182 11.2077 54.4569 11.5955 54.4569 12.0363C54.4569 12.4804 54.5182 12.8732 54.6408 13.2146C54.7667 13.5526 54.9474 13.8178 55.1827 14.01C55.4213 14.199 55.7147 14.2934 56.0627 14.2934ZM66.375 12.6031V8.21813H68.4929V15.8545H66.4595V14.4674H66.38C66.2076 14.9149 65.9209 15.2745 65.5199 15.5463C65.1222 15.818 64.6366 15.9539 64.0632 15.9539C63.5528 15.9539 63.1037 15.8379 62.7159 15.6059C62.3281 15.3739 62.0249 15.0441 61.8061 14.6166C61.5907 14.189 61.4813 13.6769 61.478 13.0803V8.21813H63.5959V12.7025C63.5992 13.1533 63.7202 13.5096 63.9588 13.7714C64.1974 14.0332 64.5173 14.1642 64.9183 14.1642C65.1735 14.1642 65.4122 14.1061 65.6342 13.9901C65.8563 13.8708 66.0353 13.6952 66.1712 13.4632C66.3104 13.2311 66.3783 12.9445 66.375 12.6031ZM73.6373 16.0036C72.8551 16.0036 72.1822 15.8379 71.6188 15.5065C71.0587 15.1717 70.6278 14.7077 70.3262 14.1144C70.0279 13.5212 69.8787 12.8384 69.8787 12.0661C69.8787 11.2839 70.0295 10.5979 70.3311 10.0079C70.6361 9.41462 71.0686 8.95227 71.6287 8.62083C72.1889 8.28607 72.8551 8.1187 73.6273 8.1187C74.2935 8.1187 74.8768 8.23967 75.3773 8.48162C75.8778 8.72357 76.2739 9.0633 76.5655 9.5008C76.8572 9.9383 77.0179 10.452 77.0478 11.042H75.0492C74.9928 10.6608 74.8437 10.3543 74.6017 10.1222C74.3631 9.88693 74.0499 9.76926 73.6621 9.76926C73.334 9.76926 73.0473 9.85875 72.802 10.0377C72.5601 10.2134 72.3712 10.4703 72.2353 10.8083C72.0994 11.1464 72.0314 11.5557 72.0314 12.0363C72.0314 12.5235 72.0977 12.9378 72.2303 13.2792C72.3662 13.6206 72.5568 13.8808 72.802 14.0597C73.0473 14.2387 73.334 14.3282 73.6621 14.3282C73.9041 14.3282 74.1212 14.2785 74.3134 14.1791C74.5089 14.0796 74.6697 13.9355 74.7956 13.7465C74.9249 13.5543 75.0094 13.324 75.0492 13.0555H77.0478C77.0146 13.6388 76.8555 14.1526 76.5705 14.5967C76.2888 15.0375 75.8993 15.3822 75.4022 15.6308C74.905 15.8794 74.3167 16.0036 73.6373 16.0036ZM82.4656 8.21813V9.80904H77.8668V8.21813H82.4656ZM78.9109 6.38858H81.0288V13.5079C81.0288 13.7035 81.0586 13.8559 81.1183 13.9653C81.1779 14.0713 81.2608 14.1459 81.3668 14.189C81.4762 14.2321 81.6022 14.2536 81.7447 14.2536C81.8441 14.2536 81.9435 14.2454 82.043 14.2288C82.1424 14.2089 82.2186 14.194 82.2717 14.184L82.6048 15.76C82.4987 15.7932 82.3496 15.8313 82.1573 15.8744C81.9651 15.9208 81.7314 15.949 81.4563 15.9589C80.9459 15.9788 80.4985 15.9108 80.114 15.7551C79.7328 15.5993 79.4362 15.3573 79.2241 15.0292C79.012 14.7011 78.9076 14.2868 78.9109 13.7863V6.38858ZM90.5357 16.0036C89.7634 16.0036 89.0956 15.8396 88.5321 15.5115C87.972 15.18 87.5395 14.7193 87.2346 14.1294C86.9296 13.5361 86.7772 12.8483 86.7772 12.0661C86.7772 11.2773 86.9296 10.5879 87.2346 9.99796C87.5395 9.40468 87.972 8.94398 88.5321 8.61586C89.0956 8.28442 89.7634 8.1187 90.5357 8.1187C91.3079 8.1187 91.9741 8.28442 92.5343 8.61586C93.0977 8.94398 93.5319 9.40468 93.8368 9.99796C94.1417 10.5879 94.2942 11.2773 94.2942 12.0661C94.2942 12.8483 94.1417 13.5361 93.8368 14.1294C93.5319 14.7193 93.0977 15.18 92.5343 15.5115C91.9741 15.8396 91.3079 16.0036 90.5357 16.0036ZM90.5456 14.363C90.897 14.363 91.1903 14.2636 91.4256 14.0647C91.6609 13.8625 91.8382 13.5874 91.9576 13.2394C92.0802 12.8914 92.1415 12.4954 92.1415 12.0512C92.1415 11.6071 92.0802 11.211 91.9576 10.863C91.8382 10.515 91.6609 10.2399 91.4256 10.0377C91.1903 9.83555 90.897 9.73446 90.5456 9.73446C90.191 9.73446 89.8927 9.83555 89.6507 10.0377C89.4121 10.2399 89.2315 10.515 89.1088 10.863C88.9895 11.211 88.9299 11.6071 88.9299 12.0512C88.9299 12.4954 88.9895 12.8914 89.1088 13.2394C89.2315 13.5874 89.4121 13.8625 89.6507 14.0647C89.8927 14.2636 90.191 14.363 90.5456 14.363ZM99.7779 8.21813V9.80904H95.0648V8.21813H99.7779ZM96.1436 15.8545V7.66628C96.1436 7.11278 96.2514 6.65373 96.4668 6.28915C96.6855 5.92457 96.9838 5.65113 97.3617 5.46884C97.7395 5.28655 98.1687 5.1954 98.6493 5.1954C98.9741 5.1954 99.2708 5.22026 99.5392 5.26998C99.811 5.31969 100.013 5.36444 100.146 5.40421L99.7679 6.99512C99.6851 6.9686 99.5823 6.94374 99.4597 6.92054C99.3404 6.89734 99.2177 6.88574 99.0918 6.88574C98.7802 6.88574 98.5632 6.95866 98.4405 7.10449C98.3179 7.24701 98.2566 7.44753 98.2566 7.70605V15.8545H96.1436ZM108.374 8.21813V9.80904H103.775V8.21813H108.374ZM104.819 6.38858H106.937V13.5079C106.937 13.7035 106.967 13.8559 107.026 13.9653C107.086 14.0713 107.169 14.1459 107.275 14.189C107.384 14.2321 107.51 14.2536 107.653 14.2536C107.752 14.2536 107.852 14.2454 107.951 14.2288C108.051 14.2089 108.127 14.194 108.18 14.184L108.513 15.76C108.407 15.7932 108.258 15.8313 108.066 15.8744C107.873 15.9208 107.64 15.949 107.365 15.9589C106.854 15.9788 106.407 15.9108 106.022 15.7551C105.641 15.5993 105.344 15.3573 105.132 15.0292C104.92 14.7011 104.816 14.2868 104.819 13.7863V6.38858ZM112.035 11.4397V15.8545H109.917V5.67267H111.976V9.56543H112.065C112.238 9.11467 112.516 8.76169 112.9 8.50648C113.285 8.24796 113.767 8.1187 114.347 8.1187C114.877 8.1187 115.34 8.2347 115.734 8.46671C116.132 8.6954 116.44 9.02518 116.659 9.45605C116.881 9.88361 116.99 10.3957 116.987 10.9923V15.8545H114.869V11.3701C114.872 10.8995 114.753 10.5332 114.511 10.2714C114.273 10.0096 113.938 9.87864 113.507 9.87864C113.219 9.87864 112.963 9.93996 112.741 10.0626C112.523 10.1852 112.35 10.3642 112.224 10.5995C112.102 10.8315 112.039 11.1116 112.035 11.4397ZM122.134 16.0036C121.348 16.0036 120.672 15.8445 120.105 15.5264C119.542 15.2049 119.108 14.7508 118.803 14.1642C118.498 13.5742 118.346 12.8765 118.346 12.0711C118.346 11.2856 118.498 10.5962 118.803 10.0029C119.108 9.40965 119.537 8.94729 120.091 8.61586C120.647 8.28442 121.3 8.1187 122.049 8.1187C122.553 8.1187 123.022 8.1999 123.456 8.3623C123.894 8.5214 124.275 8.76169 124.6 9.08319C124.928 9.40468 125.183 9.80904 125.365 10.2963C125.548 10.7802 125.639 11.3469 125.639 11.9965V12.5782H119.191V11.2657H123.645C123.645 10.9608 123.579 10.6907 123.446 10.4553C123.314 10.22 123.13 10.0361 122.895 9.9035C122.663 9.76761 122.392 9.69966 122.084 9.69966C121.763 9.69966 121.478 9.77424 121.229 9.92338C120.984 10.0692 120.792 10.2664 120.652 10.515C120.513 10.7603 120.442 11.0337 120.439 11.3353V12.5832C120.439 12.961 120.508 13.2875 120.647 13.5626C120.79 13.8377 120.99 14.0498 121.249 14.199C121.507 14.3481 121.814 14.4227 122.169 14.4227C122.404 14.4227 122.619 14.3895 122.815 14.3232C123.011 14.257 123.178 14.1575 123.317 14.0249C123.456 13.8924 123.562 13.73 123.635 13.5377L125.594 13.667C125.495 14.1376 125.291 14.5486 124.983 14.8999C124.678 15.248 124.283 15.5197 123.799 15.7153C123.319 15.9075 122.764 16.0036 122.134 16.0036ZM131.768 15.8545L129.689 8.21813H131.832L133.015 13.3488H133.085L134.318 8.21813H136.421L137.674 13.319H137.738L138.902 8.21813H141.04L138.966 15.8545H136.724L135.412 11.0519H135.317L134.005 15.8545H131.768ZM145.458 16.0036C144.673 16.0036 143.996 15.8445 143.43 15.5264C142.866 15.2049 142.432 14.7508 142.127 14.1642C141.822 13.5742 141.67 12.8765 141.67 12.0711C141.67 11.2856 141.822 10.5962 142.127 10.0029C142.432 9.40965 142.861 8.94729 143.415 8.61586C143.972 8.28442 144.625 8.1187 145.374 8.1187C145.877 8.1187 146.346 8.1999 146.781 8.3623C147.218 8.5214 147.599 8.76169 147.924 9.08319C148.252 9.40468 148.507 9.80904 148.69 10.2963C148.872 10.7802 148.963 11.3469 148.963 11.9965V12.5782H142.515V11.2657H146.969C146.969 10.9608 146.903 10.6907 146.771 10.4553C146.638 10.22 146.454 10.0361 146.219 9.9035C145.987 9.76761 145.717 9.69966 145.408 9.69966C145.087 9.69966 144.802 9.77424 144.553 9.92338C144.308 10.0692 144.116 10.2664 143.977 10.515C143.837 10.7603 143.766 11.0337 143.763 11.3353V12.5832C143.763 12.961 143.832 13.2875 143.972 13.5626C144.114 13.8377 144.315 14.0498 144.573 14.199C144.832 14.3481 145.138 14.4227 145.493 14.4227C145.728 14.4227 145.944 14.3895 146.139 14.3232C146.335 14.257 146.502 14.1575 146.641 14.0249C146.781 13.8924 146.887 13.73 146.96 13.5377L148.918 13.667C148.819 14.1376 148.615 14.5486 148.307 14.8999C148.002 15.248 147.607 15.5197 147.124 15.7153C146.643 15.9075 146.088 16.0036 145.458 16.0036ZM153.825 16.0036C153.04 16.0036 152.364 15.8445 151.797 15.5264C151.233 15.2049 150.799 14.7508 150.494 14.1642C150.189 13.5742 150.037 12.8765 150.037 12.0711C150.037 11.2856 150.189 10.5962 150.494 10.0029C150.799 9.40965 151.228 8.94729 151.782 8.61586C152.339 8.28442 152.992 8.1187 153.741 8.1187C154.245 8.1187 154.714 8.1999 155.148 8.3623C155.585 8.5214 155.966 8.76169 156.291 9.08319C156.619 9.40468 156.875 9.80904 157.057 10.2963C157.239 10.7802 157.33 11.3469 157.33 11.9965V12.5782H150.882V11.2657H155.337C155.337 10.9608 155.27 10.6907 155.138 10.4553C155.005 10.22 154.821 10.0361 154.586 9.9035C154.354 9.76761 154.084 9.69966 153.776 9.69966C153.454 9.69966 153.169 9.77424 152.92 9.92338C152.675 10.0692 152.483 10.2664 152.344 10.515C152.205 10.7603 152.133 11.0337 152.13 11.3353V12.5832C152.13 12.961 152.2 13.2875 152.339 13.5626C152.481 13.8377 152.682 14.0498 152.94 14.199C153.199 14.3481 153.505 14.4227 153.86 14.4227C154.095 14.4227 154.311 14.3895 154.506 14.3232C154.702 14.257 154.869 14.1575 155.009 14.0249C155.148 13.8924 155.254 13.73 155.327 13.5377L157.286 13.667C157.186 14.1376 156.982 14.5486 156.674 14.8999C156.369 15.248 155.975 15.5197 155.491 15.7153C155.01 15.9075 154.455 16.0036 153.825 16.0036ZM160.631 13.657L160.636 11.1166H160.945L163.391 8.21813H165.822L162.536 12.0562H162.033L160.631 13.657ZM158.712 15.8545V5.67267H160.83V15.8545H158.712ZM163.485 15.8545L161.238 12.5285L162.65 11.032L165.966 15.8545H163.485Z" fill="#595D5F"/>
<path d="M87.3845 28.0363V49.8545H83.4321V31.8822H83.3042L78.2013 35.1421V31.52L83.6238 28.0363H87.3845ZM105.9 37.8161L102.384 38.1997C102.285 37.8445 102.111 37.5107 101.862 37.1982C101.621 36.8857 101.294 36.6336 100.882 36.4418C100.47 36.2501 99.9662 36.1542 99.3696 36.1542C98.567 36.1542 97.8923 36.3282 97.3454 36.6762C96.8057 37.0242 96.5393 37.4752 96.5464 38.0292C96.5393 38.5051 96.7133 38.8921 97.0684 39.1904C97.4307 39.4887 98.0273 39.7338 98.8582 39.9255L101.649 40.5221C103.198 40.8559 104.348 41.385 105.101 42.1095C105.861 42.8339 106.245 43.782 106.252 44.9539C106.245 45.9838 105.943 46.8928 105.346 47.6812C104.757 48.4624 103.936 49.0732 102.885 49.5136C101.834 49.9539 100.627 50.1741 99.2631 50.1741C97.2602 50.1741 95.648 49.7551 94.4264 48.917C93.2048 48.0718 92.4768 46.8964 92.2425 45.3907L96.0031 45.0285C96.1736 45.7671 96.5358 46.3247 97.0898 46.7011C97.6437 47.0775 98.3646 47.2657 99.2524 47.2657C100.169 47.2657 100.904 47.0775 101.458 46.7011C102.019 46.3247 102.299 45.8595 102.299 45.3055C102.299 44.8367 102.118 44.4497 101.756 44.1443C101.401 43.8389 100.847 43.6045 100.094 43.4411L97.3028 42.8552C95.7332 42.5285 94.572 41.9781 93.8192 41.2039C93.0663 40.4227 92.6934 39.4355 92.7006 38.2423C92.6934 37.2338 92.9669 36.3602 93.5209 35.6215C94.0819 34.8758 94.8596 34.3005 95.854 33.8957C96.8554 33.4838 98.0095 33.2778 99.3163 33.2778C101.234 33.2778 102.743 33.6862 103.844 34.5029C104.952 35.3197 105.637 36.4241 105.9 37.8161ZM117.603 33.4909V36.4738H108.196V33.4909H117.603ZM110.518 29.5704H114.375V44.9326C114.375 45.4511 114.453 45.8488 114.609 46.1258C114.773 46.3957 114.986 46.5803 115.248 46.6798C115.511 46.7792 115.802 46.8289 116.122 46.8289C116.364 46.8289 116.584 46.8112 116.783 46.7757C116.989 46.7401 117.145 46.7082 117.251 46.6798L117.901 49.6947C117.695 49.7657 117.4 49.8438 117.017 49.9291C116.641 50.0143 116.179 50.064 115.632 50.0782C114.666 50.1066 113.796 49.961 113.022 49.6414C112.248 49.3147 111.633 48.8105 111.179 48.1286C110.731 47.4468 110.511 46.5945 110.518 45.5718V29.5704Z" fill="#595D5F"/>
<path d="M9.91591 14.6306C9.9496 14.0079 9.91992 13.4302 9.84112 12.8914C9.79734 12.6217 9.76133 12.3632 9.70694 12.1134C9.65391 11.8637 9.58998 11.6233 9.517 11.3918C9.21254 10.4648 8.82038 9.68493 8.36751 9.04158C8.14315 8.72047 7.90877 8.43442 7.67947 8.18534C7.45708 7.93737 7.23757 7.72608 7.03484 7.55325C6.62932 7.20724 6.29089 7.01594 6.13058 6.98922C6.13058 6.98922 6.04787 7.15566 5.9434 7.43641C5.8916 7.5769 5.83247 7.74569 5.77934 7.93703C5.7306 8.12909 5.68496 8.34308 5.64961 8.57205C5.57908 9.02986 5.55044 9.54763 5.62351 10.0635C5.71005 10.5812 5.9044 11.0972 6.25388 11.5452C7.08483 12.6123 7.92096 12.8824 8.57005 13.1521C9.22258 13.4186 9.70744 13.6764 9.91591 14.6306Z" fill="#595D5F"/>
<path d="M9.91547 14.6302C9.9492 14.0074 10.0412 13.4345 10.1775 12.914C10.2412 12.6534 10.336 12.4072 10.432 12.1733C10.5295 11.9396 10.6359 11.7187 10.7492 11.5104C11.1906 10.6757 11.8025 10.0521 12.3895 9.59606C12.6852 9.36809 12.98 9.18201 13.2621 9.0323C13.5509 8.88365 13.8247 8.77071 14.0702 8.68771C14.5613 8.5219 14.9398 8.47478 15.1 8.50146C15.1 8.50146 15.1287 8.65851 15.1439 8.91058C15.1519 9.03673 15.1546 9.18628 15.1524 9.35258C15.1545 9.51945 15.1489 9.70262 15.1295 9.89486C15.0909 10.2795 14.998 10.7002 14.8057 11.1042C14.627 11.5093 14.3548 11.8989 13.9328 12.2216C12.9196 12.9956 12.0906 13.1573 11.4118 13.3273C10.7357 13.5011 10.2264 13.6942 9.91547 14.6302Z" fill="#595D5F"/>
<path d="M9.99324 19.776C9.97421 19.4648 9.9406 19.1665 9.89421 18.88C9.84305 18.5937 9.80634 18.3181 9.74287 18.054C9.62458 17.5255 9.45434 17.0406 9.26303 16.5944C9.08241 16.1482 8.86808 15.741 8.6343 15.3703C8.404 14.9998 8.13924 14.6652 7.89676 14.3681C6.90341 13.1778 5.79914 12.5628 5.47492 12.5421C5.47492 12.5421 5.21912 13.2411 5.14812 14.1686C5.13961 14.2843 5.13247 14.4035 5.13186 14.5253C5.13379 14.6473 5.13969 14.7716 5.15027 14.8974C5.17129 15.1489 5.21102 15.406 5.27596 15.6599C5.40933 16.1679 5.62738 16.6624 6.03406 17.0748C6.98676 18.0561 7.82545 18.2399 8.49601 18.4428C9.16253 18.6424 9.67518 18.8495 9.99324 19.776Z" fill="#595D5F"/>
<path d="M9.99324 19.776C9.97407 19.4648 9.971 19.1645 9.98204 18.8757C9.98827 18.5871 10.0359 18.3087 10.0804 18.0427C10.1779 17.5106 10.3174 17.0261 10.5018 16.5894C10.6968 16.1524 10.9239 15.7634 11.1693 15.4199C11.4181 15.0766 11.6703 14.7787 11.9542 14.5234C13.0674 13.5015 14.2242 13.15 14.5482 13.1707C14.5482 13.1707 14.7332 13.782 14.7122 14.551C14.7098 14.6473 14.7029 14.7461 14.6946 14.8469C14.689 14.9477 14.6794 15.0501 14.6652 15.1537C14.6367 15.3608 14.5895 15.5722 14.5171 15.782C14.3756 16.2015 14.1173 16.6156 13.7437 16.9771C12.8322 17.8449 12.0031 18.0911 11.3423 18.3289C10.677 18.5706 10.1939 18.814 9.99324 19.776Z" fill="#595D5F"/>
<path d="M10.5835 24.8851C10.5211 24.5798 10.47 24.2847 10.3997 24.0041C10.3306 23.7231 10.2497 23.4554 10.1586 23.1997C9.96797 22.6893 9.77334 22.222 9.54036 21.7979C9.31052 21.3734 9.04284 20.9914 8.77641 20.6463C8.5148 20.301 8.23634 19.994 7.95521 19.7231C6.8197 18.6397 5.69447 18.1366 5.36449 18.1493C5.36449 18.1493 5.31434 18.3299 5.26452 18.6276C5.208 18.9251 5.18444 19.3407 5.19878 19.8071C5.20763 20.0403 5.22954 20.286 5.2706 20.5353C5.31348 20.7846 5.36623 21.0377 5.46461 21.2844C5.65274 21.778 5.94017 22.2482 6.3701 22.6184C6.87821 23.0606 7.36389 23.3009 7.79734 23.4501C8.23105 23.5989 8.61815 23.6564 8.96387 23.7198C9.30948 23.783 9.61346 23.8519 9.87996 24.0169C10.0132 24.0993 10.137 24.2057 10.2519 24.347C10.3093 24.4178 10.3646 24.4971 10.4175 24.5866C10.4745 24.6758 10.53 24.7747 10.5835 24.8851Z" fill="#595D5F"/>
<path d="M10.5836 24.8852C10.5213 24.5798 10.5001 24.2795 10.4867 23.9901C10.4743 23.7007 10.4771 23.4212 10.4931 23.1523C10.5167 22.6155 10.6303 22.116 10.7721 21.6622C10.917 21.2081 11.0905 20.7993 11.3037 20.4326C11.5216 20.0655 11.7613 19.742 12.0084 19.4602C12.9863 18.3341 14.1372 17.8674 14.4565 17.8554C14.4565 17.8554 14.5139 18.0027 14.5757 18.2452C14.6311 18.4885 14.7231 18.8228 14.7543 19.2046C14.7715 19.3952 14.7772 19.5976 14.7642 19.8059C14.7534 20.0141 14.7148 20.2297 14.6718 20.4434C14.5773 20.8721 14.3816 21.3056 14.03 21.7054C13.6045 22.1841 13.2102 22.5063 12.8321 22.7467C12.4541 22.9875 12.0975 23.1455 11.7831 23.3C11.4687 23.4548 11.1962 23.6066 10.9869 23.8419C10.8823 23.9596 10.7935 24.0981 10.7232 24.2687C10.6881 24.3541 10.6575 24.4473 10.632 24.55C10.6102 24.6519 10.5941 24.7633 10.5836 24.8852Z" fill="#595D5F"/>
<path d="M11.7363 29.892C11.573 29.2915 11.3509 28.7577 11.1181 28.2691C10.8942 27.7784 10.6339 27.3399 10.3502 26.9455C10.2793 26.8469 10.2068 26.7512 10.1332 26.6579C10.0638 26.564 9.99315 26.4727 9.92133 26.384C9.77769 26.2066 9.62944 26.0396 9.47811 25.8827C9.1756 25.5687 8.86115 25.2941 8.54822 25.0556C7.33159 24.0961 6.1365 23.7155 5.81247 23.7631C5.81247 23.7631 5.69694 24.5078 5.81428 25.44C5.88843 25.9037 6.02123 26.4126 6.25048 26.8874C6.36765 27.1244 6.49806 27.3543 6.6768 27.5623C6.85345 27.7707 7.05825 27.96 7.29526 28.1201C7.86175 28.5026 8.35864 28.6893 8.80136 28.7895C9.02259 28.8395 9.23044 28.8678 9.42625 28.8865C9.62497 28.9046 9.81129 28.9134 9.98746 28.9248C10.6923 28.9693 11.2348 29.0581 11.7363 29.892Z" fill="#595D5F"/>
<path d="M11.7364 29.8917C11.5731 29.2911 11.468 28.7222 11.4454 28.1832C11.4315 27.6417 11.4742 27.1365 11.5599 26.6717C11.5814 26.5555 11.6055 26.4418 11.6321 26.3305C11.663 26.2184 11.6964 26.1086 11.7317 26.0015C11.8025 25.7873 11.882 25.5833 11.9682 25.3895C12.1405 25.0022 12.3397 24.6563 12.5514 24.351C13.4329 23.123 14.5069 22.5434 14.8261 22.4967C14.8261 22.4967 15.1232 23.0504 15.2539 23.7976C15.3347 24.1682 15.3745 24.5885 15.3144 25.0247C15.2869 25.242 15.224 25.4666 15.1481 25.6857C15.0702 25.9054 14.9597 26.1253 14.8095 26.3418C14.4503 26.8592 14.0812 27.2271 13.7269 27.51C13.5497 27.6516 13.3763 27.7723 13.2099 27.8811C13.0444 27.9871 12.8891 28.0864 12.7422 28.1804C12.1553 28.56 11.7332 28.9055 11.7364 29.8917Z" fill="#595D5F"/>
<path d="M13.4832 34.7141C13.3592 34.4293 13.2259 34.1617 13.0847 33.9095C12.9517 33.6537 12.8178 33.4104 12.6725 33.1826C12.5281 32.9546 12.3764 32.7405 12.2188 32.539C12.14 32.4383 12.0598 32.3408 11.9782 32.2463C11.9004 32.1504 11.8235 32.0568 11.7442 31.9666C11.1165 31.2434 10.3872 30.711 9.7389 30.3007C9.07717 29.8951 8.43433 29.6313 7.91786 29.4798C7.39795 29.3286 7.02351 29.2876 6.86285 29.3295C6.86285 29.3295 6.86132 29.377 6.85862 29.4626C6.85552 29.5486 6.86149 29.6715 6.87391 29.8234C6.89846 30.127 6.95253 30.5467 7.06883 31.0051C7.12751 31.234 7.19923 31.4732 7.2948 31.7102C7.39797 31.9458 7.5207 32.1804 7.66622 32.4034C7.95944 32.8488 8.33486 33.2502 8.84354 33.5129C10.0757 34.1312 10.9276 34.0156 11.6275 33.9777C11.9769 33.9569 12.2871 33.9514 12.5817 34.0487C12.8836 34.1428 13.1766 34.3359 13.4832 34.7141Z" fill="#595D5F"/>
<path d="M13.4831 34.7142C13.359 34.4294 13.2537 34.1493 13.1657 33.875C13.0859 33.5973 13.0306 33.3224 12.9866 33.0566C12.9434 32.7904 12.9155 32.5313 12.9016 32.2803C12.8946 32.1549 12.8909 32.0313 12.8905 31.9099C12.8939 31.787 12.9027 31.6656 12.9129 31.5467C13.0025 30.5926 13.2556 29.7906 13.6354 29.1273C14.0016 28.4677 14.4322 27.9661 14.8104 27.6188C15.1854 27.2728 15.5259 27.0731 15.6802 27.0327C15.6802 27.0327 15.7003 27.0657 15.7363 27.1248C15.7711 27.185 15.8212 27.2717 15.883 27.3786C16.0025 27.5946 16.1493 27.8988 16.2596 28.2574C16.3153 28.4365 16.3597 28.6305 16.3915 28.8328C16.4306 29.0321 16.4531 29.2415 16.4512 29.4582C16.4495 29.8906 16.3418 30.3558 16.0922 30.8202C15.5141 31.9255 14.8142 32.4421 14.2701 32.8908C13.9986 33.117 13.7674 33.3304 13.6158 33.6103C13.4715 33.887 13.4139 34.2279 13.4831 34.7142Z" fill="#595D5F"/>
<path d="M15.8397 39.2574C15.7578 39.1259 15.6705 39.0013 15.5881 38.877C15.5088 38.7508 15.4276 38.629 15.345 38.5115C15.1798 38.2762 15.0082 38.0573 14.8314 37.8531C14.7429 37.751 14.6532 37.6526 14.5622 37.5578C14.5161 37.5108 14.4706 37.4642 14.4252 37.4178C14.3814 37.3711 14.3379 37.3247 14.2946 37.2786C14.1193 37.0964 13.9394 36.9276 13.7563 36.7708C13.5732 36.6141 13.3869 36.4696 13.199 36.3359C13.0116 36.2019 12.8177 36.0812 12.6393 35.963C12.2751 35.7302 11.9078 35.5381 11.55 35.3801C11.1922 35.2221 10.844 35.0982 10.518 35.003C10.1967 34.9062 9.90394 34.8359 9.64076 34.7917C9.11634 34.7022 8.72764 34.7112 8.57636 34.772C8.57636 34.772 8.59064 34.9626 8.64523 35.2662C8.67424 35.4172 8.70601 35.599 8.7646 35.7946C8.82355 35.9901 8.89674 36.2034 8.98697 36.4242C9.16988 36.8646 9.40836 37.3404 9.75441 37.7492C10.109 38.1546 10.5481 38.5011 11.0834 38.6977C11.7165 38.9354 12.2615 38.9824 12.7201 38.9633C13.1794 38.9434 13.5612 38.8532 13.9064 38.7839C14.2514 38.7144 14.5595 38.6653 14.8669 38.7192C15.1768 38.771 15.4712 38.9348 15.8397 39.2574Z" fill="#595D5F"/>
<path d="M15.84 39.2571C15.758 39.1257 15.6771 38.9971 15.6076 38.865C15.5408 38.731 15.4788 38.5979 15.4211 38.4656C15.3056 38.2011 15.2078 37.9403 15.1263 37.6846C15.0856 37.5567 15.0489 37.4301 15.0162 37.3049C15.0007 37.2421 14.9853 37.1799 14.9701 37.118C14.9593 37.0545 14.9486 36.9914 14.9378 36.9289C14.8984 36.6783 14.8734 36.4341 14.8611 36.1971C14.8489 35.9601 14.8495 35.7304 14.8611 35.5086C14.8735 35.2863 14.8924 35.0744 14.936 34.8629C15.0163 34.4436 15.1323 34.0589 15.2698 33.7112C15.4072 33.3636 15.5663 33.0528 15.7322 32.7808C15.9024 32.5066 16.0854 32.2678 16.2548 32.071C16.5958 31.6771 16.899 31.4427 17.0501 31.3818C17.0501 31.3818 17.1519 31.4969 17.2883 31.697C17.3581 31.7962 17.4298 31.9203 17.5142 32.0557C17.5992 32.1908 17.6853 32.3433 17.7641 32.5102C17.9246 32.8429 18.0447 33.2399 18.0924 33.666C18.1481 34.0874 18.1109 34.5512 17.9179 35.0449C17.6817 35.6385 17.4295 36.0773 17.1609 36.4387C16.8933 36.8 16.6176 37.0788 16.3797 37.3393C16.1421 37.5999 15.9427 37.8425 15.8323 38.1394C15.725 38.4345 15.692 38.7937 15.84 39.2571Z" fill="#595D5F"/>
<path d="M18.8182 43.4024C18.4319 42.9197 18.0285 42.5141 17.6128 42.1686C17.2143 41.8098 16.812 41.5048 16.3982 41.2529C16.1947 41.1247 15.9783 41.0164 15.7826 40.9046C15.5836 40.7952 15.3841 40.697 15.1854 40.6088C14.7879 40.4325 14.393 40.2961 14.0127 40.1913C13.627 40.0897 13.2823 40.0047 12.9493 39.9533C12.6192 39.9 12.3141 39.8728 12.0461 39.8649C11.5101 39.8487 11.1237 39.9107 10.9818 39.9919C10.9818 39.9919 11.0243 40.1792 11.1239 40.4733C11.2265 40.7657 11.3738 41.1719 11.6146 41.588C11.8615 42.0006 12.1808 42.4341 12.5764 42.7969C12.6752 42.8876 12.7788 42.9737 12.8872 43.0541C12.9977 43.133 13.1181 43.2029 13.2403 43.2672C13.486 43.395 13.7502 43.4934 14.0324 43.551C14.7065 43.6884 15.2371 43.6659 15.6834 43.5831C16.1372 43.4942 16.5042 43.3463 16.837 43.2252C17.5018 42.9813 18.0346 42.8429 18.8182 43.4024Z" fill="#595D5F"/>
<path d="M18.8185 43.4022C18.4319 42.9194 18.1217 42.4334 17.8803 41.9577C17.6558 41.4684 17.5081 40.9828 17.4107 40.5231C17.3653 40.2907 17.3224 40.0717 17.3125 39.8442C17.2994 39.6189 17.2982 39.4003 17.3072 39.1889C17.3252 38.766 17.384 38.3721 17.4699 38.0121C17.5508 37.6555 17.6839 37.3154 17.8154 37.0217C17.9497 36.7261 18.0948 36.4684 18.2363 36.2514C18.5195 35.8179 18.7882 35.5462 18.93 35.465C18.93 35.465 19.0473 35.562 19.2109 35.7363C19.3772 35.909 19.5778 36.1669 19.7766 36.4713C19.9813 36.7716 20.1651 37.1322 20.2627 37.5479C20.2871 37.6518 20.3061 37.7592 20.3189 37.87C20.3337 37.9791 20.347 38.0879 20.3501 38.2023C20.3578 38.43 20.336 38.6717 20.2767 38.9269C20.1353 39.5371 19.9328 40.0202 19.7134 40.4213C19.5019 40.8164 19.2711 41.1319 19.0745 41.424C18.6827 42.009 18.4296 42.4969 18.8185 43.4022Z" fill="#595D5F"/>
<path d="M22.4051 47.0119C22.1735 46.8086 21.9408 46.6249 21.7073 46.4587C21.5912 46.3747 21.4717 46.2987 21.3579 46.2201C21.2462 46.1393 21.1341 46.0626 21.0219 45.99C20.5731 45.699 20.1191 45.4714 19.6686 45.2906C19.2356 45.0928 18.8027 44.9449 18.3785 44.8353C17.9565 44.724 17.533 44.6599 17.1553 44.6017C15.6197 44.3897 14.3683 44.6572 14.1125 44.8619C14.1125 44.8619 14.4025 45.5788 14.9924 46.3473C15.066 46.4432 15.1442 46.5397 15.2267 46.6354C15.3117 46.7292 15.4057 46.8186 15.5016 46.9078C15.6946 47.0851 15.9053 47.2534 16.1319 47.4011C16.5863 47.6956 17.0957 47.9154 17.6852 47.9297C19.0711 47.9781 19.7918 47.5034 20.4089 47.1673C21.022 46.8275 21.5362 46.5955 22.4051 47.0119Z" fill="#595D5F"/>
<path d="M22.4054 47.0115C22.1738 46.8082 21.9609 46.6009 21.7662 46.3915C21.6696 46.2859 21.5745 46.1834 21.4896 46.074C21.4067 45.9623 21.3283 45.8506 21.254 45.7387C20.957 45.2912 20.7277 44.8454 20.5589 44.4101C20.4072 43.9576 20.3128 43.5188 20.264 43.1026C20.2171 42.6844 20.2056 42.2979 20.2523 41.917C20.4155 40.4144 21.0675 39.398 21.3231 39.1931C21.3231 39.1931 21.8459 39.4916 22.3084 40.0381C22.3665 40.1066 22.4236 40.1791 22.479 40.2557C22.5365 40.3302 22.5963 40.4047 22.6512 40.4855C22.7619 40.646 22.8614 40.8226 22.9418 41.0165C23.1037 41.4031 23.1812 41.867 23.1519 42.3758C23.0669 43.6141 22.6486 44.388 22.3417 45.0308C22.0383 45.6778 21.8725 46.1899 22.4054 47.0115Z" fill="#595D5F"/>
<path d="M10.3185 11.5934C10.4756 10.6025 10.9591 10.0168 11.4328 9.37806C11.552 9.21827 11.6718 9.05519 11.7885 8.88142C11.9073 8.7081 12.0318 8.52539 12.1452 8.32436C12.3762 7.92281 12.5724 7.44904 12.7301 6.84613C12.8771 6.33244 12.9001 5.82329 12.8485 5.34071C12.8357 5.22011 12.8181 5.1012 12.7965 4.98448C12.7779 4.8684 12.7573 4.75492 12.7321 4.64378C12.6826 4.42155 12.6197 4.20976 12.5495 4.01221C12.2685 3.2226 11.8703 2.65936 11.7158 2.61738C11.5614 2.57539 10.9623 2.86471 10.3458 3.46311C10.1918 3.61265 10.0367 3.78128 9.8874 3.96802C9.81296 4.06145 9.73904 4.15923 9.66921 4.26188C9.60242 4.36519 9.53799 4.4729 9.47689 4.58479C9.23266 5.03239 9.04108 5.54848 8.9583 6.11586C8.87088 6.82374 8.90282 7.39685 8.97972 7.8832C9.05275 8.36911 9.20388 8.77446 9.3536 9.15148C9.65568 9.90654 9.95252 10.5481 9.94946 11.5587L10.3185 11.5934Z" fill="#595D5F"/>
<path d="M30.3069 47.6374C30.2456 47.3829 30.1572 47.1581 30.0489 46.9594C29.9412 46.7598 29.8095 46.5928 29.6786 46.4255C29.411 46.1011 29.0916 45.8661 28.7796 45.6943C28.4621 45.5318 28.1806 45.3892 27.9592 45.3132C27.7406 45.2335 27.5955 45.2013 27.5955 45.2013C27.4524 45.4195 27.2268 46.2055 27.2833 47.2665C27.2947 47.5364 27.3381 47.8018 27.3994 48.0881C27.4621 48.3723 27.5493 48.668 27.6658 48.9699C27.7832 49.2706 27.9272 49.5829 28.1109 49.8861C28.3007 50.1782 28.5255 50.4694 28.7885 50.7536C27.9221 50.3376 27.0094 49.7909 26.0324 49.1915C25.9146 48.6791 26.0958 48.207 26.2671 47.6082C26.3533 47.3092 26.4377 46.979 26.4878 46.601C26.5129 46.4121 26.5293 46.2112 26.5337 45.9969C26.5393 45.7808 26.5266 45.5595 26.5125 45.3042C26.4461 44.2429 25.8607 43.6041 25.3263 43.1308C25.0533 42.9034 24.7723 42.7456 24.5668 42.6339C24.367 42.5155 24.2311 42.4578 24.2311 42.4578C24.1421 42.554 24.01 42.7915 23.8846 43.1388C23.823 43.3115 23.759 43.5164 23.7107 43.737C23.6631 43.9569 23.6246 44.1998 23.6023 44.4623C23.5573 44.987 23.5766 45.5904 23.7111 46.2403C23.8592 46.8723 24.1377 47.5329 24.5701 48.1997C23.058 47.0909 21.5031 45.7454 20.0342 44.1709C18.5672 42.5964 17.1818 40.7977 15.9991 38.8336C14.8098 36.8743 13.8009 34.7694 12.9944 32.6333C12.1858 30.4972 11.5782 28.3321 11.1367 26.2524C10.6977 24.1706 10.4554 22.1718 10.2949 20.3615C10.2366 19.4543 10.1661 18.5956 10.1587 17.7912C10.1484 17.3893 10.1384 17.0017 10.1288 16.6297C10.1331 16.2575 10.1371 15.9008 10.1411 15.5607C10.1463 15.2206 10.1454 14.897 10.1552 14.5916C10.1703 14.2863 10.1845 13.9988 10.1977 13.7302C10.2109 13.4617 10.2233 13.212 10.2346 12.9824C10.2404 12.8676 10.246 12.7578 10.2514 12.6533C10.2604 12.549 10.2691 12.4498 10.2772 12.3559C10.3426 11.6047 10.3785 11.1926 10.3785 11.1926L9.96921 11.1508C9.96921 11.1508 9.92888 11.5673 9.85548 12.3265C9.84633 12.4214 9.83655 12.5216 9.82646 12.6271C9.82013 12.7328 9.81346 12.8439 9.80655 12.9599C9.79285 13.1921 9.77794 13.4445 9.76196 13.7161C9.74595 13.9878 9.72888 14.2785 9.71059 14.5872C9.69879 14.8963 9.69563 15.2236 9.68727 15.5678C9.68012 15.912 9.6725 16.2731 9.66456 16.6499C9.67087 17.0267 9.6773 17.4192 9.68404 17.8262C9.68356 18.641 9.74845 19.5114 9.7981 20.4314C9.94358 22.2676 10.175 24.2964 10.5992 26.4148C11.0295 28.5305 11.6291 30.7368 12.4353 32.9186C13.2396 35.1003 14.2521 37.2554 15.4528 39.2662C16.6471 41.2811 18.045 43.1383 19.5409 44.7598C21.0344 46.3851 22.6242 47.771 24.1643 48.9235C23.4063 48.6595 22.6633 48.5373 21.9654 48.4971C21.2859 48.4345 20.6449 48.4637 20.0811 48.5392C19.7993 48.577 19.5367 48.6266 19.2989 48.683C19.0609 48.7393 18.8557 48.7936 18.6744 48.8556C18.314 48.9772 18.0699 49.1088 17.9801 49.206C17.9801 49.206 18.0749 49.3764 18.2551 49.6339C18.4411 49.8851 18.7263 50.2101 19.082 50.539C19.7775 51.2135 20.8539 51.793 21.9886 51.6769C22.2605 51.6517 22.5151 51.5893 22.7381 51.524C22.9626 51.457 23.1619 51.3782 23.3419 51.2924C23.7017 51.1207 23.9847 50.9217 24.2334 50.7303C24.7298 50.3467 25.0922 49.9956 25.6135 49.9225C25.735 50.0108 25.8637 50.0846 25.9896 50.1607C26.1155 50.2366 26.2402 50.3117 26.3636 50.386C26.6105 50.5347 26.8526 50.6804 27.0892 50.8228C27.2076 50.894 27.3247 50.9643 27.4405 51.0338C27.56 51.0962 27.6782 51.1578 27.7948 51.2187C28.0282 51.3404 28.256 51.4591 28.4777 51.5747C28.0832 51.5172 27.6987 51.4928 27.3258 51.4942C26.9554 51.4907 26.6073 51.4926 26.2663 51.5265C25.5893 51.5858 24.9583 51.7377 24.425 51.8969C23.3629 52.206 22.6298 52.6608 22.4853 52.881C22.4853 52.881 22.6075 53.031 22.829 53.2516C23.0527 53.4679 23.3651 53.7751 23.7777 54.0227C24.1846 54.2793 24.666 54.5213 25.1834 54.6646C25.4394 54.7417 25.7155 54.7699 25.9916 54.7707C26.2681 54.7703 26.5479 54.7352 26.8254 54.6554C27.3552 54.5028 27.7569 54.3013 28.081 54.0832C28.4033 53.8688 28.6567 53.6167 28.8716 53.391C29.3029 52.9325 29.6054 52.5262 30.0994 52.3534C30.4512 52.5099 30.7794 52.6562 31.0827 52.7911C31.3949 52.9083 31.6812 53.0156 31.9398 53.1126C32.4571 53.3035 32.8632 53.4646 33.1431 53.5557C32.366 53.5626 31.6402 53.6697 30.9734 53.8524C30.6358 53.9474 30.3324 54.0365 30.0434 54.1433C29.7547 54.2493 29.4847 54.3667 29.2362 54.4889C28.2416 54.9775 27.5956 55.5454 27.4873 55.7842C27.4873 55.7842 28.0659 56.2831 28.9338 56.6873C29.0421 56.7377 29.1548 56.7866 29.2709 56.8327C29.3294 56.8548 29.3884 56.8771 29.4479 56.8997C29.5096 56.9204 29.5765 56.9384 29.6417 56.9565C29.905 57.0276 30.1803 57.0821 30.4599 57.1103C30.7394 57.1385 31.0229 57.1404 31.3028 57.1062C31.4427 57.0891 31.5817 57.0631 31.7187 57.0269C31.7872 57.0088 31.8551 56.9881 31.9225 56.9648C31.9906 56.9419 32.0576 56.9161 32.1144 56.8803C33.0384 56.3558 35.1397 53.8666 35.1777 53.7374C35.2481 53.4984 34.8325 50.3244 34.3341 49.3516C34.2993 49.2903 34.2751 49.2305 34.2505 49.1729C34.225 49.1152 34.1984 49.0596 34.1708 49.0058C34.1155 48.8985 34.0561 48.7992 33.9933 48.707C33.8677 48.523 33.7283 48.3683 33.5802 48.2384C33.4323 48.1086 33.2757 48.0032 33.1164 47.9179C33.0326 47.8744 32.9502 47.8317 32.8696 47.7896C32.7853 47.7475 32.7014 47.7097 32.6184 47.6761C31.9571 47.407 31.3549 47.386 31.3549 47.386C31.2477 47.6224 31.1521 48.4193 31.373 49.433C31.4284 49.6865 31.5039 49.9537 31.6041 50.229C31.7046 50.5013 31.8287 50.7969 31.9845 51.0596C32.2962 51.5988 32.7322 52.1481 33.3213 52.6496C33.0418 52.5477 32.65 52.4048 32.1593 52.2259C31.9145 52.1349 31.6428 52.0415 31.3516 51.9277C31.0635 51.8023 30.7528 51.6671 30.4211 51.5229C30.2379 51.0492 30.3447 50.5591 30.4182 49.9491C30.4569 49.6416 30.482 49.3163 30.4766 48.9284C30.4696 48.5443 30.4225 48.1168 30.3069 47.6374Z" fill="#595D5F"/>
<path d="M184.57 14.3466C184.536 13.7238 184.444 13.1511 184.308 12.6307C184.244 12.3701 184.15 12.1239 184.054 11.8901C183.956 11.6563 183.85 11.4355 183.737 11.2273C183.296 10.3926 182.684 9.76911 182.098 9.31311C181.802 9.08516 181.507 8.8991 181.226 8.74941C180.937 8.60063 180.663 8.48785 180.418 8.40486C179.927 8.23906 179.549 8.1919 179.389 8.21861C179.389 8.21861 179.36 8.37564 179.345 8.62768C179.337 8.75382 179.334 8.90334 179.337 9.06961C179.334 9.23647 179.34 9.41961 179.359 9.61197C179.398 9.99659 179.491 10.4172 179.683 10.8211C179.862 11.2262 180.134 11.6158 180.555 11.9385C181.568 12.7123 182.396 12.874 183.075 13.044C183.75 13.2176 184.259 13.4108 184.57 14.3466Z" fill="#595D5F"/>
<path d="M184.57 14.3465C184.536 13.7239 184.566 13.1463 184.645 12.6076C184.688 12.3379 184.724 12.0794 184.779 11.8297C184.832 11.58 184.896 11.3397 184.969 11.1082C185.273 10.1813 185.665 9.40158 186.117 8.75833C186.341 8.43726 186.576 8.15125 186.805 7.90221C187.027 7.65428 187.246 7.44302 187.449 7.27021C187.854 6.92426 188.192 6.73299 188.353 6.70628C188.353 6.70628 188.435 6.87269 188.54 7.15341C188.591 7.29392 188.651 7.46265 188.704 7.65396C188.752 7.846 188.798 8.05997 188.833 8.2889C188.904 8.74665 188.932 9.26435 188.859 9.78018C188.773 10.2978 188.579 10.8137 188.229 11.2616C187.399 12.3286 186.564 12.5986 185.915 12.8683C185.263 13.1348 184.778 13.3925 184.57 14.3465Z" fill="#595D5F"/>
<path d="M184.492 19.4913C184.511 19.1801 184.514 18.8798 184.503 18.5911C184.497 18.3025 184.45 18.0242 184.405 17.7584C184.308 17.2263 184.168 16.7419 183.984 16.3052C183.789 15.8683 183.562 15.4794 183.317 15.1359C183.068 14.7927 182.816 14.4948 182.533 14.2395C181.42 13.2179 180.264 12.8663 179.94 12.8869C179.94 12.8869 179.755 13.4981 179.776 14.267C179.779 14.3634 179.786 14.4622 179.794 14.563C179.8 14.6637 179.809 14.7661 179.823 14.8697C179.852 15.0768 179.899 15.2881 179.971 15.4979C180.113 15.9173 180.371 16.3314 180.744 16.6929C181.655 17.5606 182.484 17.8066 183.144 18.0445C183.809 18.286 184.292 18.5294 184.492 19.4913Z" fill="#595D5F"/>
<path d="M184.492 19.4911C184.511 19.1799 184.545 18.8817 184.591 18.5953C184.642 18.3091 184.679 18.0334 184.743 17.7693C184.861 17.2409 185.031 16.7561 185.222 16.3099C185.402 15.8638 185.617 15.4567 185.85 15.086C186.08 14.7156 186.345 14.381 186.587 14.0839C187.58 12.8938 188.684 12.2789 189.008 12.2582C189.008 12.2582 189.263 12.9571 189.334 13.8845C189.343 14.0003 189.35 14.1194 189.351 14.2411C189.348 14.3632 189.343 14.4874 189.332 14.6132C189.311 14.8646 189.271 15.1217 189.207 15.3756C189.073 15.8835 188.855 16.378 188.449 16.7903C187.497 17.7714 186.659 17.9552 185.989 18.158C185.323 18.3576 184.81 18.5647 184.492 19.4911Z" fill="#595D5F"/>
<path d="M183.902 24.5996C183.965 24.2943 183.986 23.994 183.999 23.7048C184.012 23.4154 184.009 23.136 183.993 22.867C183.969 22.3303 183.856 21.8308 183.714 21.3771C183.569 20.923 183.396 20.5143 183.183 20.1477C182.965 19.7806 182.726 19.4571 182.479 19.1754C181.501 18.0494 180.351 17.5828 180.032 17.5707C180.032 17.5707 179.975 17.7181 179.913 17.9605C179.858 18.2037 179.766 18.5382 179.735 18.9198C179.717 19.1104 179.712 19.3126 179.725 19.521C179.735 19.7291 179.774 19.9447 179.817 20.1583C179.911 20.5869 180.107 21.0203 180.458 21.4201C180.884 21.8988 181.278 22.2209 181.656 22.4613C182.033 22.702 182.389 22.8601 182.704 23.0145C183.018 23.1693 183.29 23.3211 183.499 23.5563C183.604 23.674 183.693 23.8126 183.763 23.9831C183.798 24.0685 183.829 24.1617 183.854 24.2643C183.876 24.3664 183.892 24.4778 183.902 24.5996Z" fill="#595D5F"/>
<path d="M183.903 24.5997C183.965 24.2944 184.016 23.9994 184.087 23.7188C184.156 23.4379 184.237 23.1701 184.328 22.9145C184.518 22.4042 184.713 21.937 184.945 21.5129C185.175 21.0885 185.443 20.7067 185.709 20.3615C185.97 20.0162 186.248 19.7092 186.529 19.4385C187.664 18.3552 188.789 17.8522 189.118 17.8649C189.118 17.8649 189.169 18.0455 189.218 18.3431C189.275 18.6406 189.298 19.0561 189.284 19.5225C189.275 19.7556 189.253 20.0013 189.212 20.2506C189.169 20.4998 189.117 20.7529 189.018 20.9996C188.83 21.4932 188.543 21.9633 188.114 22.3333C187.606 22.7755 187.12 23.0157 186.687 23.1649C186.254 23.3137 185.867 23.3712 185.521 23.4345C185.176 23.4977 184.872 23.5666 184.606 23.7316C184.473 23.814 184.349 23.9204 184.234 24.0617C184.177 24.1324 184.122 24.2117 184.069 24.3014C184.012 24.3905 183.956 24.4893 183.903 24.5997Z" fill="#595D5F"/>
<path d="M182.751 29.6056C182.914 29.005 183.019 28.4363 183.041 27.8973C183.055 27.3559 183.013 26.8508 182.927 26.386C182.905 26.2698 182.881 26.1561 182.855 26.0449C182.824 25.9327 182.791 25.823 182.755 25.7159C182.684 25.5016 182.605 25.2977 182.519 25.104C182.347 24.7167 182.148 24.3709 181.936 24.0656C181.055 22.8377 179.982 22.2582 179.663 22.2115C179.663 22.2115 179.366 22.7651 179.235 23.5122C179.155 23.8828 179.115 24.3031 179.175 24.7392C179.202 24.9565 179.265 25.1811 179.341 25.4001C179.419 25.6198 179.529 25.8397 179.68 26.0561C180.039 26.5734 180.408 26.9412 180.762 27.2241C180.939 27.3657 181.112 27.4864 181.278 27.5952C181.444 27.7012 181.599 27.8004 181.746 27.8944C182.332 28.274 182.754 28.6195 182.751 29.6056Z" fill="#595D5F"/>
<path d="M182.751 29.6058C182.914 29.0053 183.136 28.4716 183.368 27.9831C183.592 27.4925 183.852 27.0541 184.136 26.6597C184.207 26.5612 184.279 26.4654 184.353 26.3722C184.422 26.2783 184.493 26.1869 184.564 26.0983C184.708 25.9209 184.856 25.754 185.007 25.597C185.31 25.2831 185.624 25.0086 185.937 24.7701C187.152 23.8107 188.347 23.4302 188.67 23.4778C188.67 23.4778 188.786 24.2224 188.669 25.1545C188.595 25.6181 188.462 26.1269 188.233 26.6017C188.116 26.8387 187.985 27.0685 187.807 27.2765C187.63 27.4848 187.426 27.6741 187.189 27.8342C186.623 28.2166 186.126 28.4032 185.684 28.5035C185.463 28.5535 185.255 28.5817 185.059 28.6004C184.861 28.6185 184.674 28.6274 184.498 28.6387C183.794 28.6832 183.252 28.772 182.751 29.6058Z" fill="#595D5F"/>
<path d="M181.005 34.4275C181.129 34.1428 181.234 33.8627 181.322 33.5885C181.402 33.3108 181.457 33.036 181.501 32.7701C181.544 32.5039 181.572 32.2448 181.586 31.9939C181.593 31.8684 181.597 31.745 181.597 31.6236C181.594 31.5007 181.585 31.3793 181.575 31.2605C181.485 30.3064 181.232 29.5046 180.853 28.8413C180.487 28.1818 180.056 27.6804 179.679 27.3331C179.304 26.9871 178.964 26.7872 178.809 26.747C178.809 26.747 178.789 26.78 178.753 26.8391C178.718 26.8992 178.668 26.9859 178.607 27.0929C178.487 27.3088 178.34 27.613 178.23 27.9716C178.174 28.1507 178.13 28.3446 178.098 28.5468C178.059 28.7462 178.037 28.9556 178.039 29.1722C178.04 29.6045 178.148 30.0696 178.398 30.534C178.975 31.6392 179.675 32.1557 180.218 32.6043C180.49 32.8306 180.721 33.0439 180.872 33.3238C181.017 33.6004 181.074 33.9413 181.005 34.4275Z" fill="#595D5F"/>
<path d="M181.005 34.4271C181.129 34.1424 181.262 33.8748 181.404 33.6227C181.536 33.3671 181.67 33.1237 181.815 32.8959C181.96 32.6679 182.111 32.4539 182.269 32.2524C182.348 32.1517 182.428 32.0541 182.509 31.9597C182.587 31.8638 182.664 31.7703 182.743 31.68C183.371 30.9569 184.099 30.4246 184.747 30.0144C185.408 29.6088 186.051 29.3451 186.567 29.1937C187.086 29.0425 187.461 29.0015 187.621 29.0434C187.621 29.0434 187.623 29.0909 187.625 29.1765C187.629 29.2624 187.622 29.3854 187.61 29.5372C187.586 29.8408 187.532 30.2604 187.415 30.7187C187.357 30.9476 187.285 31.1868 187.189 31.4238C187.086 31.6593 186.964 31.8939 186.818 32.1169C186.525 32.5622 186.15 32.9635 185.642 33.226C184.411 33.8444 183.559 33.7286 182.86 33.6908C182.51 33.67 182.2 33.6645 181.906 33.7616C181.604 33.8559 181.312 34.049 181.005 34.4271Z" fill="#595D5F"/>
<path d="M178.65 38.9696C178.732 38.8382 178.813 38.7095 178.882 38.5775C178.949 38.4435 179.011 38.3105 179.069 38.1782C179.184 37.9137 179.282 37.6529 179.363 37.3972C179.404 37.2694 179.441 37.1428 179.473 37.0176C179.489 36.9549 179.504 36.8926 179.519 36.8307C179.53 36.7672 179.541 36.7042 179.552 36.6416C179.591 36.3911 179.616 36.1469 179.628 35.91C179.641 35.673 179.64 35.4433 179.628 35.2215C179.616 34.9993 179.597 34.7874 179.553 34.5759C179.473 34.1567 179.357 33.772 179.22 33.4244C179.083 33.0768 178.924 32.7661 178.758 32.4942C178.588 32.2199 178.405 31.9811 178.236 31.7845C177.895 31.3905 177.592 31.1562 177.441 31.0953C177.441 31.0953 177.339 31.2102 177.203 31.4105C177.133 31.5097 177.061 31.6337 176.977 31.7691C176.892 31.9041 176.806 32.0566 176.727 32.2236C176.567 32.5562 176.447 32.9531 176.399 33.3792C176.344 33.8007 176.381 34.2642 176.574 34.7579C176.81 35.3513 177.062 35.7902 177.33 36.1515C177.597 36.5128 177.873 36.7916 178.111 37.052C178.348 37.3126 178.547 37.5551 178.658 37.852C178.765 38.1471 178.798 38.5063 178.65 38.9696Z" fill="#595D5F"/>
<path d="M178.65 38.9697C178.732 38.8383 178.819 38.7139 178.901 38.5894C178.981 38.4633 179.062 38.3415 179.144 38.2239C179.31 37.9887 179.481 37.7699 179.658 37.5657C179.746 37.4636 179.836 37.3653 179.927 37.2704C179.973 37.2234 180.018 37.1768 180.064 37.1305C180.107 37.0837 180.151 37.0374 180.194 36.9913C180.369 36.8091 180.549 36.6403 180.732 36.4836C180.915 36.3269 181.101 36.1825 181.289 36.0488C181.476 35.9148 181.67 35.7941 181.848 35.6759C182.212 35.4431 182.579 35.251 182.937 35.093C183.295 34.935 183.643 34.8112 183.968 34.7161C184.289 34.6192 184.582 34.549 184.845 34.5048C185.369 34.4152 185.757 34.4243 185.908 34.485C185.908 34.485 185.894 34.6755 185.84 34.979C185.811 35.1302 185.779 35.3118 185.72 35.5075C185.661 35.7029 185.588 35.916 185.498 36.1369C185.316 36.5772 185.077 37.0529 184.731 37.4617C184.377 37.867 183.938 38.2135 183.403 38.4101C182.771 38.6477 182.226 38.6945 181.768 38.6755C181.309 38.6556 180.927 38.5656 180.582 38.4962C180.237 38.4267 179.93 38.3776 179.622 38.4313C179.313 38.4834 179.018 38.6473 178.65 38.9697Z" fill="#595D5F"/>
<path d="M175.673 43.1141C176.06 42.6314 176.37 42.1454 176.611 41.6698C176.835 41.1806 176.983 40.695 177.08 40.2353C177.126 40.003 177.168 39.7841 177.178 39.5566C177.191 39.3313 177.193 39.1128 177.184 38.9013C177.166 38.4785 177.107 38.0846 177.021 37.7247C176.94 37.3681 176.807 37.0281 176.676 36.7343C176.542 36.4387 176.397 36.1811 176.255 35.9642C175.972 35.5307 175.703 35.259 175.562 35.1778C175.562 35.1778 175.445 35.2748 175.281 35.4491C175.115 35.6216 174.914 35.8797 174.716 36.1839C174.511 36.4842 174.327 36.8448 174.23 37.2604C174.206 37.3643 174.187 37.4717 174.174 37.5824C174.159 37.6915 174.146 37.8003 174.143 37.9147C174.135 38.1424 174.157 38.384 174.216 38.6392C174.357 39.2493 174.56 39.7324 174.779 40.1335C174.99 40.5285 175.221 40.8439 175.417 41.136C175.809 41.721 176.062 42.2089 175.673 43.1141Z" fill="#595D5F"/>
<path d="M175.674 43.1143C176.06 42.6316 176.463 42.2262 176.878 41.8807C177.276 41.522 177.678 41.217 178.092 40.9652C178.295 40.8369 178.512 40.7286 178.707 40.6169C178.906 40.5076 179.105 40.4094 179.304 40.3211C179.701 40.1448 180.096 40.0084 180.476 39.9038C180.861 39.8022 181.206 39.7172 181.538 39.6658C181.868 39.6126 182.173 39.5854 182.441 39.5775C182.977 39.5612 183.363 39.6232 183.505 39.7044C183.505 39.7044 183.462 39.8918 183.363 40.1858C183.26 40.4781 183.113 40.8842 182.872 41.3003C182.626 41.7129 182.306 42.1463 181.911 42.509C181.812 42.5997 181.709 42.686 181.601 42.7662C181.49 42.8451 181.37 42.915 181.248 42.9792C181.002 43.1071 180.738 43.2054 180.456 43.263C179.782 43.4004 179.252 43.3777 178.806 43.2951C178.353 43.2062 177.986 43.0583 177.653 42.9372C176.989 42.6932 176.457 42.5548 175.674 43.1143Z" fill="#595D5F"/>
<path d="M172.089 46.7228C172.321 46.5195 172.533 46.3123 172.728 46.1029C172.824 45.9974 172.919 45.8949 173.004 45.7855C173.087 45.6738 173.166 45.5621 173.24 45.4502C173.537 45.0028 173.766 44.5571 173.934 44.1218C174.086 43.6694 174.18 43.2307 174.229 42.8145C174.276 42.3963 174.287 42.01 174.241 41.629C174.078 40.1266 173.426 39.1103 173.171 38.9055C173.171 38.9055 172.648 39.2039 172.186 39.7504C172.128 39.8189 172.071 39.8914 172.016 39.968C171.958 40.0424 171.898 40.117 171.843 40.1977C171.733 40.3582 171.633 40.5348 171.553 40.7287C171.391 41.1152 171.314 41.579 171.343 42.0878C171.428 43.3259 171.846 44.0998 172.153 44.7424C172.456 45.3891 172.622 45.9012 172.089 46.7228Z" fill="#595D5F"/>
<path d="M172.089 46.7229C172.321 46.5196 172.553 46.336 172.786 46.1698C172.902 46.0858 173.022 46.0098 173.135 45.9313C173.247 45.8505 173.359 45.7738 173.471 45.7011C173.92 45.4102 174.373 45.1827 174.824 45.0019C175.257 44.8041 175.689 44.6563 176.113 44.5466C176.535 44.4354 176.958 44.3713 177.335 44.3131C178.87 44.1012 180.12 44.3685 180.376 44.5733C180.376 44.5733 180.086 45.2901 179.497 46.0586C179.423 46.1545 179.345 46.251 179.263 46.3466C179.178 46.4404 179.084 46.5298 178.988 46.619C178.795 46.7963 178.584 46.9646 178.358 47.1123C177.904 47.4068 177.395 47.6266 176.806 47.6408C175.421 47.6892 174.701 47.2146 174.084 46.8785C173.471 46.5384 172.957 46.3065 172.089 46.7229Z" fill="#595D5F"/>
<path d="M184.561 11.2728C184.558 10.2618 184.842 9.57968 185.139 8.80345C185.212 8.60962 185.285 8.41028 185.351 8.19899C185.416 7.98819 185.466 7.7669 185.507 7.52702C185.586 7.04806 185.625 6.49544 185.551 5.82825C185.475 5.25978 185.287 4.74274 185.044 4.2947C184.984 4.18256 184.92 4.07483 184.853 3.97149C184.783 3.86882 184.709 3.77093 184.635 3.67752C184.485 3.49055 184.33 3.32199 184.175 3.17259C183.555 2.57451 182.949 2.28639 182.795 2.32837C182.64 2.37035 182.249 2.93127 181.972 3.7201C181.903 3.91752 181.841 4.12924 181.792 4.35136C181.767 4.46255 181.746 4.57605 181.728 4.69226C181.706 4.80911 181.688 4.92805 181.675 5.04889C181.622 5.53208 181.642 6.04272 181.782 6.55843C181.94 7.20202 182.136 7.6961 182.367 8.10553C182.602 8.51439 182.838 8.84321 183.077 9.15269C183.551 9.77177 184.034 10.3163 184.192 11.3076L184.561 11.2728Z" fill="#595D5F"/>
<path d="M167.673 54.3658C167.95 54.4456 168.23 54.4807 168.506 54.4811C168.782 54.4805 169.058 54.4521 169.314 54.3751C169.83 54.2318 170.312 53.9899 170.718 53.7332C171.131 53.4857 171.443 53.1785 171.666 52.9622C171.888 52.7417 172.01 52.5917 172.01 52.5917C171.867 52.3735 171.147 51.9254 170.101 51.6163C169.843 51.5436 169.551 51.457 169.248 51.3936C168.944 51.328 168.623 51.2756 168.288 51.2426C167.953 51.2082 167.608 51.1989 167.246 51.2054C166.878 51.2007 166.499 51.2208 166.11 51.2727C166.995 50.8365 167.928 50.2665 168.925 49.6407C169.431 49.7275 169.789 50.0783 170.283 50.4572C170.53 50.6463 170.811 50.8418 171.168 51.0102C171.347 51.0943 171.544 51.1716 171.766 51.2374C171.987 51.3013 172.238 51.3626 172.506 51.3874C173.64 51.5037 174.716 50.9241 175.411 50.2497C175.766 49.9211 176.051 49.596 176.237 49.3448C176.417 49.0872 176.512 48.9169 176.512 48.9169C176.423 48.8206 176.182 48.6905 175.828 48.5701C175.65 48.5088 175.447 48.4542 175.214 48.3988C174.979 48.3428 174.721 48.2932 174.443 48.2549C173.888 48.1783 173.256 48.1467 172.586 48.2037C171.901 48.2435 171.164 48.3531 170.417 48.6071C171.959 47.4535 173.541 46.0569 175.03 44.4286C176.517 42.8005 177.915 40.946 179.103 38.9297C180.297 36.9177 181.303 34.7634 182.102 32.5839C182.903 30.4041 183.498 28.2013 183.925 26.0896C184.349 23.9758 184.575 21.951 184.719 20.1194C184.769 19.2017 184.832 18.3334 184.832 17.5209C184.838 17.1149 184.844 16.7234 184.85 16.3477C184.843 15.9719 184.835 15.6119 184.828 15.2686C184.819 14.9254 184.817 14.5988 184.804 14.2907C184.786 13.9828 184.769 13.6929 184.753 13.422C184.737 13.1511 184.722 12.8994 184.708 12.668C184.702 12.5524 184.695 12.4416 184.688 12.3363C184.678 12.2312 184.669 12.1312 184.659 12.0366C184.586 11.2798 184.546 10.8644 184.546 10.8644L184.137 10.9062C184.137 10.9062 184.173 11.32 184.239 12.0741C184.247 12.1683 184.256 12.2679 184.265 12.3725C184.27 12.4776 184.275 12.5877 184.281 12.7029C184.293 12.9334 184.305 13.184 184.318 13.4536C184.331 13.7232 184.346 14.0117 184.361 14.3181C184.37 14.6247 184.369 14.9495 184.374 15.2907C184.378 15.632 184.382 15.99 184.387 16.3635C184.377 16.7368 184.367 17.1258 184.356 17.5291C184.349 18.3363 184.276 19.1979 184.218 20.1084C184.057 21.9249 183.809 23.9295 183.37 26.018C182.925 28.1037 182.313 30.2746 181.499 32.4151C180.687 34.5559 179.671 36.6642 178.475 38.6251C177.285 40.5901 175.9 42.3943 174.424 43.9646C172.95 45.5387 171.387 46.8755 169.876 47.9852C170.327 47.3154 170.613 46.6424 170.773 46.0071C170.915 45.3486 170.939 44.7365 170.896 44.2039C170.874 43.9375 170.836 43.6909 170.789 43.4677C170.741 43.2446 170.676 43.036 170.614 42.8609C170.488 42.5081 170.354 42.2672 170.264 42.17C170.264 42.17 170.129 42.2278 169.929 42.346C169.724 42.4579 169.443 42.6156 169.17 42.8428C168.636 43.316 168.051 43.9546 167.985 45.0159C167.97 45.2749 167.957 45.4987 167.963 45.7176C167.968 45.9345 167.985 46.1375 168.011 46.3284C168.063 46.7103 168.15 47.0431 168.237 47.3445C168.411 47.9479 168.591 48.4235 168.454 48.9454C168.335 49.0303 168.209 49.1011 168.086 49.174C167.962 49.2467 167.84 49.3187 167.719 49.39C167.477 49.5326 167.24 49.6725 167.008 49.8091C166.892 49.8774 166.778 49.945 166.665 50.0117C166.547 50.0713 166.432 50.1303 166.317 50.1885C166.089 50.3051 165.866 50.4186 165.649 50.5291C165.92 50.2435 166.152 49.9499 166.348 49.6554C166.542 49.3561 166.689 49.0354 166.811 48.7327C167.052 48.1187 167.178 47.5421 167.212 47.008C167.275 45.9317 167.046 45.1329 166.902 44.9126C166.902 44.9126 166.757 44.9448 166.538 45.0246C166.317 45.1005 166.036 45.243 165.719 45.4055C165.407 45.5772 165.088 45.8123 164.82 46.1367C164.689 46.304 164.558 46.4709 164.45 46.6705C164.342 46.8691 164.254 47.0939 164.192 47.3483C164.075 47.8345 164.028 48.267 164.022 48.6552C164.018 49.0473 164.044 49.3749 164.084 49.6852C164.159 50.3005 164.264 50.7935 164.062 51.273C163.718 51.4226 163.397 51.5622 163.1 51.6913C162.799 51.8013 162.522 51.9023 162.272 51.9934C161.771 52.1734 161.384 52.3248 161.107 52.4131C161.719 51.9191 162.164 51.3593 162.488 50.8165C162.649 50.5505 162.777 50.2571 162.881 49.9791C162.984 49.7003 163.063 49.4296 163.12 49.1727C163.35 48.1452 163.253 47.3354 163.145 47.0966C163.145 47.0966 162.543 47.1176 161.882 47.3867C161.8 47.4204 161.716 47.4581 161.631 47.5002C161.551 47.5422 161.468 47.585 161.385 47.6285C161.225 47.7138 161.069 47.819 160.921 47.949C160.773 48.0788 160.634 48.2335 160.508 48.4175C160.446 48.5095 160.386 48.6089 160.331 48.7163C160.303 48.77 160.277 48.8256 160.251 48.8833C160.227 48.941 160.203 49.0008 160.168 49.062C159.68 50.0151 159.271 53.2658 159.309 53.3949C159.38 53.6338 161.444 56.0544 162.386 56.5897C162.443 56.6255 162.51 56.6513 162.578 56.6741C162.645 56.6975 162.713 56.7181 162.782 56.7363C162.918 56.7724 163.057 56.7985 163.197 56.8156C163.477 56.8497 163.76 56.8479 164.04 56.8197C164.319 56.7915 164.594 56.737 164.857 56.666C164.922 56.648 164.989 56.6299 165.051 56.6092C165.111 56.5866 165.169 56.5644 165.228 56.5423C165.344 56.4961 165.456 56.4473 165.565 56.3969C166.432 55.9928 167.01 55.4939 167.01 55.4939C166.903 55.2575 166.269 54.6979 165.291 54.2123C165.047 54.0908 164.782 53.9739 164.498 53.8677C164.212 53.7591 163.917 53.6733 163.584 53.5771C162.928 53.3948 162.213 53.2753 161.448 53.2696C161.738 53.1615 162.144 53.0101 162.653 52.8202C162.906 52.7235 163.189 52.6231 163.489 52.5025C163.783 52.3711 164.101 52.2294 164.441 52.0781C164.917 52.2611 165.216 52.6664 165.645 53.1198C166.08 53.5791 166.63 54.0644 167.673 54.3658Z" fill="#595D5F"/>
</svg>
