<svg width="209" height="230" viewBox="0 0 209 230" fill="none" xmlns="http://www.w3.org/2000/svg">
<path d="M11.531 14L43.2414 0V196.028L11.531 213.324V14Z" fill="#DEE7FA"/>
<rect x="43.7415" y="0.5" width="164.759" height="195.028" fill="#5D97EF" stroke="#DEE7FA"/>
<path d="M181.432 218.59L207.631 196.527H43.3672L2 218.59H181.432Z" fill="#7CAAF1" stroke="#DEE7FA"/>
<path d="M181.114 219.59V228.68H0.5V219.59H181.114Z" fill="#7CAAF1" stroke="#DEE7FA"/>
<path d="M181.614 219.09L181.614 229.179L209 207.559V196.027L181.614 219.09Z" fill="#DEE7FA"/>
<path d="M106.662 142.697C79.5642 159.417 69.4265 184.737 67.7449 195.307H180.893C180.893 167.2 159.753 149.663 145.579 142.697V85.2054C145.579 79.6166 143.052 74.2551 138.786 70.645C131.9 64.8186 121.751 64.538 114.658 70.1108L113.924 70.6879C109.339 74.29 106.662 79.7976 106.662 85.6279V142.697Z" stroke="#DEE7FA" stroke-width="2"/>
<line x1="103.338" y1="180.172" x2="103.338" y2="196.028" stroke="#DEE7FA" stroke-width="2"/>
<line x1="140.814" y1="180.172" x2="140.814" y2="196.028" stroke="#DEE7FA" stroke-width="2"/>
<line x1="116.752" y1="82.6001" x2="129.724" y2="82.6001" stroke="#DEE7FA" stroke-width="2"/>
<path d="M113.869 87.2038L94.1279 109.765C93.8395 110.095 93.6275 110.484 93.5072 110.906L93.4521 111.098C92.8866 113.077 94.5479 114.982 96.5855 114.691V114.691C97.0502 114.625 97.4911 114.444 97.869 114.166L150.886 75.1007C151.657 74.5326 152.572 74.1925 153.527 74.119V74.119C157.232 73.834 159.994 77.4719 158.724 80.9644L158.552 81.4383" stroke="#DEE7FA" stroke-width="2"/>
<path d="M118.914 110.987C121.316 109.065 127.274 106.374 131.886 110.987" stroke="#DEE7FA" stroke-width="2"/>
<path d="M110.987 73.0693C112.57 73.0694 114.098 73.966 115.269 75.6055C116.439 77.2432 117.194 79.5574 117.194 82.1592C117.194 84.7608 116.438 87.0743 115.269 88.7119C114.098 90.3515 112.57 91.249 110.987 91.249C109.403 91.249 107.876 90.3515 106.704 88.7119C105.535 87.0743 104.78 84.7608 104.78 82.1592C104.78 79.5574 105.535 77.2432 106.704 75.6055C107.875 73.966 109.403 73.0693 110.987 73.0693Z" fill="#5D97EF" stroke="#DEE7FA" stroke-width="2"/>
<path d="M136.211 73.0693C139.825 73.0694 143.138 76.9011 143.138 82.1592C143.138 87.4172 139.825 91.2489 136.211 91.249C132.596 91.249 129.283 87.4173 129.283 82.1592C129.283 76.901 132.596 73.0693 136.211 73.0693Z" fill="#5D97EF" stroke="#DEE7FA" stroke-width="2"/>
</svg>
