<svg width="142" height="48" viewBox="0 0 142 48" fill="none" xmlns="http://www.w3.org/2000/svg">
<g clip-path="url(#clip0_6017_2737)">
<path d="M139.948 18.185C139.948 17.6444 139.569 17.284 138.944 17.284L137.715 17.3066L137.738 20.0544H138.408V19.1084H138.81L139.39 20.0544H140.172L139.479 18.9958C139.623 18.9157 139.742 18.798 139.824 18.6553C139.907 18.5127 139.95 18.3502 139.948 18.185ZM138.81 18.5454H138.385V17.8471H138.877C138.965 17.8373 139.054 17.8623 139.124 17.9168C139.195 17.9714 139.242 18.0513 139.256 18.1399V18.1625C139.254 18.2181 139.241 18.2728 139.217 18.323C139.193 18.3732 139.159 18.4178 139.117 18.4538C139.075 18.4899 139.026 18.5167 138.973 18.5325C138.92 18.5482 138.864 18.5526 138.81 18.5454ZM39.7637 30.8882C38.625 30.8882 37.8435 29.9873 37.8435 28.6584V22.5996H42.5323V18.3201H37.8547L37.81 13.41H32.63L32.6746 29.762C32.6746 33.073 34.8628 35.3253 38.078 35.3253C39.7749 35.3253 41.3825 35.0776 42.6551 34.4919V30.3251C41.7514 30.7482 40.7586 30.9415 39.7637 30.8882ZM52.1333 18.0498C47.3105 18.0498 43.6041 21.8338 43.6041 26.8565C43.6041 31.8342 47.3105 35.3028 52.4235 35.3028C55.3038 35.3028 58.0055 34.2667 59.6577 32.127L55.6834 30.3026C54.8796 31.0459 53.6516 31.3387 52.5575 31.3387C50.7713 31.3387 48.9851 30.4152 48.7395 28.5232H60.5955C60.7737 27.8472 60.8637 27.1506 60.8634 26.4511C60.8634 21.2932 57.1347 18.0498 52.1444 18.0498H52.1333ZM48.7395 25.2123C48.8957 22.9599 50.5033 21.9239 52.2672 21.9239C54.2544 21.9239 55.7504 23.05 55.7504 24.9871V25.2123H48.7395ZM27.7067 30.8882C26.568 30.8882 25.7865 29.9873 25.7865 28.6584V22.5996H30.4754V18.3201H25.7977L25.753 13.41H20.573L20.6177 29.762C20.6177 33.073 22.8058 35.3253 26.021 35.3253C27.7179 35.3253 29.3255 35.0776 30.5982 34.4919V30.3251C29.6951 30.7502 28.7018 30.9437 27.7067 30.8882ZM9.50962 18.0498C5.0664 18.0498 0.399902 21.0004 0.399902 26.9466C0.399902 31.9018 3.70441 35.3704 7.87969 35.3704C10.2688 35.3704 12.0773 34.4019 13.2607 32.6901L13.417 35.0775H18.4296V27.1493C18.4296 21.113 14.0198 18.0498 9.50962 18.0498ZM9.50962 30.7981C7.25452 30.7981 5.62459 29.1088 5.62459 26.7214C5.62459 24.3339 7.23219 22.6446 9.50962 22.6446C11.6084 22.6446 13.35 24.4915 13.35 26.7214C13.35 28.9512 11.6084 30.7981 9.50962 30.7981ZM138.698 16.0452C137.068 16.0678 136.019 17.1264 136.041 18.703C136.063 20.2797 137.135 21.3157 138.765 21.2932C140.35 21.2707 141.422 20.2121 141.4 18.6129C141.377 17.0138 140.306 16.0227 138.698 16.0452ZM138.765 20.8427C137.492 20.8653 136.621 20.0094 136.621 18.703C136.621 17.3967 137.448 16.5182 138.72 16.4957C139.993 16.4732 140.841 17.3291 140.864 18.658C140.864 19.9418 140.015 20.8202 138.776 20.8427H138.765ZM113.378 18.3426L109.761 28.9287L106.099 18.3426H100.473L107.216 35.055H112.262L119.005 18.3426H113.378ZM126.797 18.0498C121.974 18.0498 118.268 21.8338 118.268 26.8565C118.268 31.8342 121.974 35.3028 127.087 35.3028C129.968 35.3028 132.669 34.2667 134.322 32.127L130.347 30.3026C129.544 31.0459 128.316 31.3387 127.221 31.3387C125.435 31.3387 123.649 30.4152 123.403 28.5232H135.259C135.438 27.8472 135.528 27.1506 135.527 26.4511C135.527 21.2932 131.799 18.0498 126.797 18.0498ZM130.414 25.2123H123.403C123.56 22.9599 125.167 21.9239 126.931 21.9239C128.918 21.9239 130.414 23.05 130.414 24.9871V25.2123ZM96.4762 11C94.6453 11 93.261 12.2388 93.261 13.9731C93.261 15.7074 94.6453 16.9912 96.4762 16.9912C98.307 16.9912 99.6914 15.7299 99.6914 13.9731C99.6914 12.2163 98.3294 11 96.4762 11ZM72.965 18.0273C71.9182 18.0103 70.8848 18.2668 69.9653 18.772C69.0458 19.2772 68.2716 20.0139 67.718 20.9103L67.5394 18.3426H62.538V35.055H67.718V26.2934C67.8297 24.1987 69.5042 22.5996 71.3351 22.5996C73.3893 22.5996 74.327 24.1537 74.327 26.1132V35.0325H79.4847V25.3024C79.4847 21.068 76.9282 18.0273 72.965 18.0273ZM88.7731 30.8882C87.6344 30.8882 86.8529 29.9873 86.8529 28.6584V22.5996H91.5417V18.3201H86.8529L86.8082 13.41H81.6282L81.6729 29.762C81.6729 33.073 83.861 35.3253 87.0762 35.3253C88.7731 35.3253 90.3807 35.0776 91.6534 34.4919V30.3251C90.7536 30.7484 89.7644 30.9418 88.7731 30.8882ZM93.8638 18.3426V35.055H99.0885V18.3426C98.3139 18.8604 97.4053 19.1366 96.4762 19.1366C95.547 19.1366 94.6384 18.8604 93.8638 18.3426Z" fill="#0F67EB"/>
</g>
<defs>
<clipPath id="clip0_6017_2737">
<rect width="141" height="48" fill="white" transform="translate(0.399902)"/>
</clipPath>
</defs>
</svg>
