<svg width="101" height="48" viewBox="0 0 101 48" fill="none" xmlns="http://www.w3.org/2000/svg">
<g clip-path="url(#clip0_6017_2740)">
<path fill-rule="evenodd" clip-rule="evenodd" d="M22.9988 41.5996C24.9153 40.4101 26.5261 38.9585 27.8889 37.4469C28.8646 39.4395 30.8226 40.7997 32.8989 40.7997C34.4989 40.7997 36.0989 39.9997 37.1989 38.4997C37.5989 39.8997 38.5989 40.7997 40.2989 40.7997C41.5746 40.7997 44.3558 39.4977 46.8776 37.5685L46.5988 38.9996C46.4988 39.3996 46.4988 39.6996 46.4988 39.8996C46.5988 40.4996 46.9988 40.7996 47.5988 40.7996C48.7988 40.7996 50.4988 39.6996 50.8988 37.8996L51.4988 35.3996C52.1988 32.1996 56.8988 27.3996 58.1988 27.3996C58.2988 27.3996 58.4988 27.4996 58.4988 27.6996C58.5385 28.0171 58.3104 28.6182 57.977 29.4966C57.4705 30.8313 56.7209 32.8063 56.2988 35.3996C56.0988 36.1996 56.0988 36.9996 56.1988 37.5996C56.3988 39.4996 57.4988 40.7996 59.5988 40.7996C61.3959 40.7996 65.2922 39.2656 68.0231 36.1975C68.2289 37.8629 68.5812 39.2794 69.0988 40.1997C69.2988 40.5997 69.7988 40.6997 70.2988 40.6997C70.8988 40.6997 71.6988 40.4997 72.5988 39.9997C74.6988 38.8997 77.3988 36.2997 79.9988 32.4997C80.3988 32.5997 80.6988 32.5997 80.9988 32.5997C82.0365 32.5997 83.1961 32.2334 84.2728 31.5855C83.8254 32.9368 83.6509 34.3169 83.7989 35.5996C84.1989 38.5996 86.6989 40.8996 89.3989 40.8996C90.8989 40.8996 92.4989 39.9996 93.5989 38.5996C93.9989 40.4996 95.1989 42.4996 98.1989 43.6996C98.3989 43.7996 98.5989 43.7996 98.7989 43.7996C99.3989 43.7996 99.7989 43.3996 99.6989 42.8996C99.6989 42.6996 99.5989 42.3996 99.2989 42.1996C98.5989 41.5996 97.7989 40.4996 97.5989 38.7996C97.4989 37.9996 97.4989 36.9996 97.9989 35.9996C98.5989 33.2996 98.6989 32.4996 98.6989 32.1996C98.5989 31.4996 98.0989 31.1996 97.4989 31.1996C96.2989 31.1996 94.5989 32.3996 94.1989 34.0996C93.4989 36.6996 91.6989 38.3996 90.4989 38.3996C88.9989 38.3996 88.1989 36.7996 87.9989 35.0996C87.4989 30.8996 90.0989 25.7996 93.9989 25.7996C95.0989 25.7996 96.3989 26.1996 96.4989 27.3996C96.6218 28.5056 95.9518 28.781 95.4401 28.9914C95.1191 29.1233 94.8603 29.2297 94.8989 29.4996C94.9989 30.2996 96.2989 30.4996 97.1989 30.4996C97.9989 30.4996 100.599 29.8996 100.199 26.9996C99.8989 24.6996 97.3989 23.5996 94.5989 23.5996C91.2563 23.5996 88.4116 25.292 86.4743 27.6339C86.2064 27.7921 85.9237 28.0747 85.5988 28.3997C84.9988 29.0997 83.7988 29.7997 82.2988 29.7997C82.0988 29.7997 81.6988 29.6997 81.6988 29.6997C82.6988 27.7997 83.3988 25.7997 83.3988 24.0997C83.3988 21.2997 81.6988 19.8997 79.7988 19.8997C77.3988 19.8997 74.8988 21.9997 74.8988 26.1997C74.8988 28.6997 75.8988 30.6997 77.5988 31.7997C75.5988 34.9997 72.8988 37.6997 72.4988 37.6997C72.3607 37.6997 72.318 37.5567 72.2719 37.4023C72.2512 37.3331 72.2298 37.2616 72.1988 37.1997C71.8988 36.0997 71.5988 33.8997 71.5988 32.5997C71.5988 30.1997 71.9988 27.7997 72.8988 25.2997C72.9988 24.9997 73.0988 24.6997 73.0988 24.4997C73.0988 23.7997 72.5988 23.4997 71.9988 23.4997C70.7988 23.4997 68.8988 24.8997 68.3988 26.3997C67.9988 27.7997 67.7988 29.7997 67.7988 32.1997C67.7988 32.6398 67.8059 33.0764 67.8204 33.5063C65.4339 36.7234 62.489 37.7996 61.5988 37.7996C60.4988 37.7996 60.2988 36.7996 60.4988 36.3996C61.1988 33.4996 62.0988 30.1996 62.8988 27.8996C63.2988 26.7996 63.4988 25.7996 63.3988 25.1996C63.1988 24.0996 62.4988 23.5996 61.4988 23.5996C59.0988 23.5996 55.2988 25.9996 52.7988 29.2996L53.5988 25.6996C53.6988 25.2996 53.6988 24.9996 53.6988 24.7996C53.5988 24.0996 53.1988 23.7996 52.5988 23.7996C49.7988 23.7996 49.2988 25.1996 48.9988 26.5996C48.9409 26.9471 48.145 31.0513 47.4854 34.4442C45.3515 36.4026 42.9605 37.6997 42.2989 37.6997C41.4989 37.6997 41.1989 37.0997 41.1989 36.5997C41.1989 36.2543 41.3976 35.3127 41.5854 34.4231C41.7239 33.7671 41.8564 33.1392 41.8989 32.7997C41.9989 32.3997 41.9989 32.0997 41.9989 31.8997C41.8989 31.2997 41.3989 30.9997 40.7989 30.9997C39.5989 30.9997 37.8989 32.1997 37.4989 33.8997C36.8989 36.4997 35.0989 38.1997 33.8989 38.1997C32.3989 38.1997 31.5989 36.5997 31.3989 34.9997C30.8989 31.3997 33.1989 25.5997 37.3989 25.5997C38.5989 25.5997 39.7989 25.9997 39.8989 27.1997C40.02 28.3501 39.4079 28.6206 38.9282 28.8326C38.6157 28.9708 38.3594 29.084 38.3989 29.3997C38.4989 30.1997 39.7989 30.3997 40.5989 30.3997C41.4989 30.3997 43.9989 29.7997 43.5989 26.8997C43.2989 24.5997 40.8989 23.3997 37.9989 23.3997C31.273 23.3997 26.7973 30.0521 27.2811 35.3257C25.573 37.3245 23.8665 38.5264 20.7988 40.0996C19.0988 40.9996 17.0988 41.4996 15.2988 41.4996C9.69883 41.4996 6.99883 36.3996 6.49883 31.9996C5.09883 20.7996 15.0988 5.29961 21.9988 5.29961C23.5988 5.29961 24.9988 6.69961 25.2988 8.89961C25.6988 12.2996 25.5988 14.6996 22.0988 17.5996C21.6988 17.8996 21.5988 18.3996 21.7988 18.6996C22.0988 19.0996 23.0988 19.1996 24.9988 18.1996C28.7988 16.2996 30.0988 13.3996 29.6988 9.99961C29.2988 6.19961 25.9988 3.09961 21.5988 3.09961C19.3988 3.09961 17.0988 3.69961 14.9988 4.99961C5.89883 10.5996 -0.00116718 23.1996 1.09883 32.7996C1.49883 35.8996 2.79883 39.1996 5.19883 41.4996C6.79883 42.9996 9.69883 44.7996 13.1988 44.7996C16.9988 44.7996 20.1988 43.3996 22.9988 41.5996ZM79.1988 28.3997C78.1988 27.2997 77.3988 25.5997 77.3988 23.9997C77.3988 23.0997 77.6988 22.0997 78.3988 22.0997C78.9988 22.0997 79.7988 22.9997 79.7988 25.0997C79.7988 26.1997 79.5988 27.2997 79.1988 28.3997Z" fill="#0F67EB"/>
</g>
<defs>
<clipPath id="clip0_6017_2740">
<rect width="100" height="48" fill="white" transform="translate(0.600098)"/>
</clipPath>
</defs>
</svg>
