<svg width="108" height="108" viewBox="0 0 108 108" fill="none" xmlns="http://www.w3.org/2000/svg">
<g filter="url(#filter0_d_6022_586)">
<rect x="20" y="16" width="68" height="68" rx="34" fill="white"/>
<rect x="21" y="17" width="66" height="66" rx="33" stroke="#BDCFF5" stroke-width="2"/>
<path fill-rule="evenodd" clip-rule="evenodd" d="M42.6914 50.7143C43.8553 50.0195 44.6348 48.7475 44.6348 47.2934C44.6348 45.0945 42.8522 43.312 40.6534 43.312C38.4545 43.312 36.672 45.0945 36.672 47.2934C36.672 48.7474 37.4514 50.0194 38.6153 50.7143C37.147 51.1019 35.8448 51.8984 34.8378 52.9745C32.5782 55.3894 35.3715 58.4139 38.6787 58.4139H42.6279C45.9351 58.4139 48.7284 55.3894 46.4688 52.9745C45.4618 51.8984 44.1596 51.102 42.6914 50.7143Z" fill="#7CAAF1"/>
<path fill-rule="evenodd" clip-rule="evenodd" d="M69.1 50.9744C70.2646 50.2797 71.0445 49.0073 71.0445 47.5528C71.0445 45.3539 69.262 43.5714 67.0632 43.5714C64.8643 43.5714 63.0817 45.3539 63.0817 47.5528C63.0817 49.0073 63.8617 50.2796 65.0262 50.9743C63.5574 51.3618 62.2547 52.1585 61.2475 53.2349C58.9878 55.6498 61.7812 58.6743 65.0884 58.6743H69.0375C72.3447 58.6743 75.1381 55.6498 72.8784 53.2349C71.8712 52.1585 70.5687 51.362 69.1 50.9744Z" fill="#7CAAF1"/>
<path fill-rule="evenodd" clip-rule="evenodd" d="M57.6328 50.9209C59.8706 49.5861 61.3694 47.1413 61.3694 44.3463C61.3694 40.1214 57.9445 36.6964 53.7196 36.6964C49.4946 36.6964 46.0697 40.1214 46.0697 44.3463C46.0697 47.1411 47.5683 49.5858 49.8059 50.9206C46.4713 51.8002 43.5823 53.7773 41.5487 56.4421C38.2107 60.8161 42.8794 65.7155 48.3816 65.7155H59.0559C64.5581 65.7155 69.2269 60.8161 65.8889 56.4421C63.8555 53.7776 60.9669 51.8006 57.6328 50.9209Z" fill="#0F67EB"/>
</g>
<defs>
<filter id="filter0_d_6022_586" x="0" y="0" width="108" height="108" filterUnits="userSpaceOnUse" color-interpolation-filters="sRGB">
<feFlood flood-opacity="0" result="BackgroundImageFix"/>
<feColorMatrix in="SourceAlpha" type="matrix" values="0 0 0 0 0 0 0 0 0 0 0 0 0 0 0 0 0 0 127 0" result="hardAlpha"/>
<feOffset dy="4"/>
<feGaussianBlur stdDeviation="10"/>
<feComposite in2="hardAlpha" operator="out"/>
<feColorMatrix type="matrix" values="0 0 0 0 0.0588235 0 0 0 0 0.403922 0 0 0 0 0.921569 0 0 0 0.1 0"/>
<feBlend mode="normal" in2="BackgroundImageFix" result="effect1_dropShadow_6022_586"/>
<feBlend mode="normal" in="SourceGraphic" in2="effect1_dropShadow_6022_586" result="shape"/>
</filter>
</defs>
</svg>
