<svg width="99" height="48" viewBox="0 0 99 48" fill="none" xmlns="http://www.w3.org/2000/svg">
<g clip-path="url(#clip0_6017_2738)">
<path d="M87.044 13.4057C81.0434 13.4057 76.1604 18.3154 76.1604 24.351C76.1604 30.3866 81.0434 35.2962 87.044 35.2962C93.0432 35.2962 97.9248 30.3866 97.9248 24.351C97.9248 18.3154 93.0432 13.4057 87.044 13.4057ZM87.044 30.109C83.8881 30.109 81.3178 27.5231 81.3178 24.351C81.3178 21.1774 83.8881 18.593 87.044 18.593C90.197 18.593 92.7687 21.1774 92.7687 24.351C92.7687 27.5245 90.1984 30.109 87.0426 30.109H87.044ZM54.9956 22.1343L53.0925 21.1789C52.2662 20.7674 51.7482 20.4489 51.5399 20.2136C51.3413 20.005 51.2282 19.7294 51.2232 19.4413C51.2232 19.0721 51.3893 18.7607 51.7158 18.5183C52.0396 18.2646 52.4999 18.1491 53.084 18.1491C54.1524 18.1491 55.3362 18.7945 56.6396 20.0952L59.8518 16.8639C59.0625 15.7879 58.0304 14.9139 56.8395 14.3132C55.6643 13.7213 54.3658 13.4161 53.0502 13.4226C51.0894 13.4226 49.4707 14.0018 48.2095 15.1686C46.9497 16.3354 46.3162 17.7376 46.3162 19.3821C46.3162 21.9328 47.9843 24.0579 51.3315 25.7447L53.084 26.6254C54.5944 27.3906 55.3461 28.1699 55.3461 28.976C55.3461 29.4128 55.1363 29.7905 54.7197 30.1259C54.303 30.4627 53.7512 30.6219 53.0671 30.6219C52.4337 30.6219 51.7074 30.4035 50.8896 29.9596C50.0747 29.5228 49.3497 28.9357 48.7528 28.2291L45.5575 31.7295C47.3593 34.097 49.7621 35.2892 52.7828 35.2892C55.0533 35.2892 56.8649 34.6677 58.2077 33.4333C59.559 32.2002 60.2347 30.6557 60.2347 28.8083C60.2347 27.423 59.8603 26.2069 59.117 25.1739C58.3668 24.141 56.9901 23.1348 54.9956 22.1357V22.1343ZM22.6825 32.9119V13.8411H17.5166V15.1179C15.7759 13.9978 13.7498 13.4034 11.6806 13.4057C5.68139 13.4057 0.799805 18.3154 0.799805 24.351C0.799805 30.3866 5.68139 35.2962 11.682 35.2962C13.7264 35.2993 15.7295 34.7201 17.4574 33.6263C17.4574 33.794 17.449 33.9448 17.449 34.0463C17.449 37.2184 14.8787 39.8043 11.7243 39.8043C10.6517 39.8018 9.60163 39.496 8.69508 38.9221L6.14027 43.4217C7.82492 44.4505 9.75938 44.9964 11.7327 45C17.7333 45 22.6825 40.0889 22.6825 34.0533C22.6825 33.8194 22.698 33.1303 22.6825 32.9119ZM11.682 30.1076C8.52898 30.1076 5.95728 27.5231 5.95728 24.351C5.95728 21.1774 8.52758 18.593 11.682 18.593C14.8365 18.593 17.4068 21.1774 17.4068 24.351C17.4068 27.5231 14.8365 30.109 11.682 30.109V30.1076ZM43.2603 13.8341H38.0691V24.2396C38.0775 25.7179 38.0775 28.27 36.9936 29.3607C36.4756 29.8807 35.9084 30.3513 34.7147 30.3513C33.5126 30.3513 32.9454 29.8807 32.4288 29.3607C31.3435 28.2685 31.352 25.7094 31.359 24.2396V13.8341H26.1691V24.2086C26.1522 26.3478 26.1269 30.3189 28.731 32.9541C30.2582 34.4986 32.0783 35.2878 34.7063 35.2878C37.3357 35.2878 39.1543 34.5071 40.6816 32.9541C43.2857 30.3189 43.2603 26.3393 43.2434 24.2086L43.2603 13.8327V13.8341ZM72.6779 29.1775C72.2613 29.496 71.2506 30.202 70.1076 30.0427C69.173 29.9159 68.4143 29.2282 68.2975 26.9284V18.2999H74.398V13.8172H68.2975V8H63.1231V9.14145H63.1146V26.2492C63.1146 28.9689 63.7987 35.2878 70.0992 35.2878C73.2874 35.2385 75.2229 33.5009 76.0337 32.8217L76.1421 32.7371L73.0369 28.8928C73.0284 28.8999 72.8117 29.076 72.6779 29.1775Z" fill="#0F67EB"/>
</g>
<defs>
<clipPath id="clip0_6017_2738">
<rect width="98" height="48" fill="white" transform="translate(0.799805)"/>
</clipPath>
</defs>
</svg>
