<svg width="1180" height="420" viewBox="0 0 1180 420" fill="none" xmlns="http://www.w3.org/2000/svg">
<path fill-rule="evenodd" clip-rule="evenodd" d="M20.8468 26.4078C20.5749 26.0517 20.1368 25.8638 19.6916 25.9122C19.2465 25.9606 18.8589 26.2383 18.6698 26.6445L7.63868 48.7154C7.43436 49.1244 7.4562 49.6101 7.69641 49.999C7.93661 50.388 8.36094 50.6247 8.81785 50.6248H24.1781C24.6808 50.6365 25.143 50.3505 25.3573 49.8954C28.6707 43.0438 26.6627 32.6259 20.8468 26.4078Z" fill="url(#paint0_linear_6474_13735)"/>
<path fill-rule="evenodd" clip-rule="evenodd" d="M28.9382 6.3331C23.3464 14.9432 22.701 25.8645 27.2398 35.0742L34.6452 49.8953C34.8685 50.3423 35.325 50.6247 35.8243 50.6247H51.1819C51.6388 50.6247 52.0631 50.3879 52.3033 49.9989C52.5435 49.61 52.5653 49.1243 52.361 48.7153C52.361 48.7153 31.7 7.35922 31.1807 6.32482C30.9713 5.89517 30.5346 5.62331 30.0569 5.62507C29.5792 5.62683 29.1446 5.90191 28.9382 6.3331Z" fill="#2684FF"/>
<path fill-rule="evenodd" clip-rule="evenodd" d="M191.08 33.5914H180.256C179.55 33.5834 178.946 34.1011 178.84 34.805C178.225 39.2408 174.461 42.5403 170.019 42.5363L172.95 56.0358C183.568 54.6369 191.741 45.8909 192.496 35.1191C192.524 34.7234 192.387 34.3341 192.118 34.0443C191.85 33.7545 191.474 33.5904 191.08 33.5914Z" fill="#2684FF"/>
<path fill-rule="evenodd" clip-rule="evenodd" d="M172.348 33.2486L187.923 19.7491C188.228 19.4781 188.402 19.0881 188.402 18.6783C188.402 18.2686 188.228 17.8785 187.923 17.6075L172.348 4.0866C171.928 3.72891 171.34 3.64896 170.841 3.88154C170.342 4.11412 170.021 4.61716 170.019 5.1717V32.1635C170.021 32.7181 170.342 33.2211 170.841 33.4537C171.34 33.6863 171.928 33.6063 172.348 33.2486Z" fill="#2684FF"/>
<path fill-rule="evenodd" clip-rule="evenodd" d="M147.713 36.5396C149.203 47.8169 158.738 56.2422 170.02 56.2499V42.5362C165.118 42.5363 161.14 38.5349 161.128 33.5913L147.713 36.5396Z" fill="url(#paint1_linear_6474_13735)"/>
<path fill-rule="evenodd" clip-rule="evenodd" d="M147.5 33.3772V33.5914H161.127C161.139 28.6478 165.117 24.6464 170.019 24.6465L167.095 11.147C155.987 12.6066 147.635 22.082 147.5 33.3772Z" fill="url(#paint2_linear_6474_13735)"/>
<path fill-rule="evenodd" clip-rule="evenodd" d="M323.859 19.9038L296.436 45.3575C296.827 45.7532 297.203 46.1333 297.656 46.4979L308.479 55.7298C309.295 56.4234 310.486 56.4234 311.302 55.7298C313.25 54.0541 317.062 50.7958 321.596 46.9324C330.302 39.4925 331.069 28.5771 323.859 19.9038Z" fill="url(#paint3_linear_6474_13735)"/>
<path fill-rule="evenodd" clip-rule="evenodd" d="M296.222 19.9062C289.415 27.4685 289.664 38.4356 296.564 45.3463L310.185 32.8435C318.52 25.1881 319.163 11.5063 310.937 3.75018C310.937 3.75018 303.029 12.344 296.222 19.9062Z" fill="#2684FF"/>
<path fill-rule="evenodd" clip-rule="evenodd" d="M454.021 24.4839L468.397 24.5393C469.244 24.5432 470.016 25.0215 470.392 25.7752C470.768 26.5288 470.685 27.429 470.175 28.1012L448.958 56.25C445.754 53.873 443.632 50.3289 443.059 46.3974C442.486 42.466 443.509 38.4695 445.903 35.2874L454.021 24.4839Z" fill="url(#paint4_linear_6474_13735)"/>
<path fill-rule="evenodd" clip-rule="evenodd" d="M445.895 35.2874L431.604 35.1973C430.757 35.1934 429.985 34.7152 429.608 33.9615C429.232 33.2078 429.316 32.3077 429.825 31.6354L450.834 3.75C454.037 6.12697 456.159 9.67113 456.732 13.6025C457.305 17.534 456.282 21.5305 453.889 24.7126L445.895 35.2874Z" fill="#2684FF"/>
<path d="M590 30C597.249 30 603.125 24.1237 603.125 16.875C603.125 9.62626 597.249 3.75 590 3.75C582.751 3.75 576.875 9.62626 576.875 16.875C576.875 24.1237 582.751 30 590 30Z" fill="url(#paint5_linear_6474_13735)"/>
<path fill-rule="evenodd" clip-rule="evenodd" d="M588.955 55.9304C580.951 50.4728 574.295 43.035 569.548 34.2462C569.365 33.8939 569.325 33.4765 569.438 33.0918C569.551 32.7071 569.807 32.389 570.146 32.2121L579.427 27.3436C580.076 27.0052 580.86 27.2619 581.22 27.9311C585.912 36.3375 592.85 43.0507 601.142 47.2068C598.084 50.5002 594.698 53.4255 591.043 55.9304C590.404 56.3568 589.594 56.3568 588.955 55.9304Z" fill="url(#paint6_linear_6474_13735)"/>
<path fill-rule="evenodd" clip-rule="evenodd" d="M591.044 55.9304C599.048 50.4741 605.705 43.036 610.45 34.2462C610.634 33.8948 610.675 33.4781 610.563 33.0936C610.452 32.709 610.197 32.3904 609.859 32.2121L600.572 27.3436C599.923 27.0052 599.139 27.2619 598.779 27.9311C594.088 36.3384 587.149 43.0518 578.857 47.2068C581.913 50.5024 585.3 53.4279 588.955 55.9304C589.594 56.3568 590.405 56.3568 591.044 55.9304Z" fill="#2684FF"/>
<path fill-rule="evenodd" clip-rule="evenodd" d="M751.081 33.5913H740.256C739.55 33.5832 738.946 34.1009 738.84 34.8049C738.226 39.2407 734.461 42.5401 730.02 42.5362L732.95 56.0357C743.569 54.6368 751.742 45.8908 752.497 35.119C752.524 34.7233 752.387 34.3339 752.119 34.0442C751.85 33.7544 751.474 33.5903 751.081 33.5913Z" fill="#2684FF"/>
<path fill-rule="evenodd" clip-rule="evenodd" d="M732.349 33.2488L747.923 19.7493C748.228 19.4782 748.403 19.0882 748.403 18.6784C748.403 18.2687 748.228 17.8787 747.923 17.6076L732.349 4.08672C731.928 3.72903 731.341 3.64908 730.842 3.88166C730.342 4.11424 730.022 4.61728 730.02 5.17182V32.1637C730.022 32.7182 730.342 33.2212 730.842 33.4538C731.341 33.6864 731.928 33.6064 732.349 33.2488Z" fill="#2684FF"/>
<path fill-rule="evenodd" clip-rule="evenodd" d="M707.713 36.5399C709.203 47.8172 718.738 56.2424 730.021 56.2501V42.5365C725.118 42.5365 721.141 38.5352 721.129 33.5916L707.713 36.5399Z" fill="url(#paint7_linear_6474_13735)"/>
<path fill-rule="evenodd" clip-rule="evenodd" d="M707.5 33.3772V33.5914H721.128C721.14 28.6478 725.117 24.6464 730.02 24.6465L727.096 11.147C715.988 12.6066 707.635 22.082 707.5 33.3772Z" fill="url(#paint8_linear_6474_13735)"/>
<g filter="url(#filter0_d_6474_13735)">
<path d="M843.75 22.4165C843.75 15.8826 843.75 12.6156 845.022 10.12C846.14 7.92476 847.925 6.13999 850.12 5.02147C852.616 3.74988 855.883 3.74988 862.417 3.74988H877.583C884.117 3.74988 887.384 3.74988 889.88 5.02147C892.075 6.13999 893.86 7.92476 894.978 10.12C896.25 12.6156 896.25 15.8826 896.25 22.4165V37.5832C896.25 44.1172 896.25 47.3841 894.978 49.8798C893.86 52.075 892.075 53.8598 889.88 54.9783C887.384 56.2499 884.117 56.2499 877.583 56.2499H862.417C855.883 56.2499 852.616 56.2499 850.12 54.9783C847.925 53.8598 846.14 52.075 845.022 49.8798C843.75 47.3841 843.75 44.1172 843.75 37.5832V22.4165Z" fill="white"/>
<path d="M870.003 23.3457L863.514 11.8937C863.729 11.6743 863.977 11.5304 864.225 11.4337C862.312 12.0635 861.434 14.2124 861.434 14.2124L849.579 35.1279C849.412 35.7836 849.366 36.3757 849.387 36.897H862.325L870.003 23.3457Z" fill="#34A853"/>
<path d="M870.003 23.3457L877.681 36.897H890.62C890.64 36.3757 890.594 35.7836 890.427 35.1279L878.573 14.2124C878.573 14.2124 877.692 12.0635 875.781 11.4337C876.026 11.5304 876.277 11.6743 876.492 11.8937L870.003 23.3457Z" fill="#FBBC05"/>
<path d="M870.004 23.3461L876.493 11.8941C876.278 11.6747 876.027 11.5308 875.782 11.4341C875.499 11.3421 875.196 11.2808 874.867 11.2643H874.524H865.484H865.141C864.814 11.2784 864.509 11.3398 864.226 11.4341C863.98 11.5308 863.73 11.6747 863.515 11.8941L870.004 23.3461Z" fill="#188038"/>
<path d="M862.328 36.8969L855.913 48.2191C855.913 48.2191 855.7 48.1153 855.41 47.9007C856.321 48.6012 857.206 48.7498 857.206 48.7498H882.4C883.79 48.7498 884.08 48.2191 884.08 48.2191C884.084 48.2167 884.087 48.2144 884.091 48.212L877.681 36.8969H862.328Z" fill="#4285F4"/>
<path d="M862.329 36.8969H849.39C849.455 38.4348 850.122 39.3335 850.122 39.3335L850.608 40.1779C850.643 40.2275 850.664 40.2558 850.664 40.2558L851.723 42.1145L854.1 46.2519C854.169 46.4193 854.25 46.5726 854.336 46.7189C854.368 46.7684 854.398 46.8227 854.433 46.8699C854.442 46.884 854.452 46.8982 854.461 46.9123C854.755 47.3275 855.084 47.6483 855.413 47.9007C855.703 48.1177 855.916 48.2191 855.916 48.2191L862.329 36.8969Z" fill="#1967D2"/>
<path d="M877.682 36.8969H890.621C890.556 38.4348 889.888 39.3335 889.888 39.3335L889.402 40.1779C889.367 40.2275 889.346 40.2558 889.346 40.2558L888.288 42.1145L885.911 46.2519C885.841 46.4193 885.76 46.5726 885.674 46.7189C885.642 46.7684 885.612 46.8227 885.577 46.8699C885.568 46.884 885.559 46.8982 885.549 46.9123C885.255 47.3275 884.926 47.6483 884.597 47.9007C884.307 48.1177 884.094 48.2191 884.094 48.2191L877.682 36.8969Z" fill="#EA4335"/>
</g>
<g filter="url(#filter1_d_6474_13735)">
<path d="M983.75 22.4165C983.75 15.8826 983.75 12.6156 985.022 10.12C986.14 7.92476 987.925 6.13999 990.12 5.02147C992.616 3.74988 995.883 3.74988 1002.42 3.74988H1017.58C1024.12 3.74988 1027.38 3.74988 1029.88 5.02147C1032.08 6.13999 1033.86 7.92476 1034.98 10.12C1036.25 12.6156 1036.25 15.8826 1036.25 22.4165V37.5832C1036.25 44.1172 1036.25 47.3841 1034.98 49.8798C1033.86 52.075 1032.08 53.8598 1029.88 54.9783C1027.38 56.2499 1024.12 56.2499 1017.58 56.2499H1002.42C995.883 56.2499 992.616 56.2499 990.12 54.9783C987.925 53.8598 986.14 52.075 985.022 49.8798C983.75 47.3841 983.75 44.1172 983.75 37.5832V22.4165Z" fill="white"/>
<path d="M1025.92 11.25H1019.83V20.0836H1028.75V13.7408C1028.75 13.7408 1028.31 11.4909 1025.92 11.25Z" fill="#1967D2"/>
<path d="M1019.83 48.7088V48.7305V48.7497L1028.75 39.9161H1028.67L1019.83 48.7088Z" fill="#1967D2"/>
<path d="M1028.75 39.9166V39.8369L1028.67 39.9166H1028.75Z" fill="#FBBC05"/>
<path d="M1028.75 20.084H1019.83V39.8373H1028.75V20.084Z" fill="#FBBC05"/>
<path d="M1028.67 39.9161H1019.83V48.7088L1028.67 39.9161Z" fill="#EA4335"/>
<path d="M1019.83 39.9161H1028.67L1028.75 39.8369H1019.83V39.9161Z" fill="#EA4335"/>
<path d="M1019.81 48.7308H1019.83V48.7091L1019.81 48.7308Z" fill="#34A853"/>
<path d="M999.969 39.8369V48.7307H1019.81L1019.83 39.8369H999.969Z" fill="#34A853"/>
<path d="M1019.83 39.9164V39.8369L1019.81 48.7307L1019.83 48.709V39.9164Z" fill="#34A853"/>
<path d="M991.25 39.8369V46.0207C991.33 48.0273 993.5 48.7307 993.5 48.7307H999.969V39.8369H991.25Z" fill="#188038"/>
<path d="M999.969 20.0837H1019.83V11.2501H993.752C993.752 11.2501 991.41 11.491 991.25 13.9795V39.837H999.969V20.0837Z" fill="#4285F4"/>
<path d="M1006.47 35.8384C1006.01 35.8384 1005.57 35.7792 1005.15 35.6609C1004.74 35.5425 1004.36 35.365 1004.02 35.1282C1003.67 34.8808 1003.36 34.5741 1003.09 34.2083C1002.83 33.8424 1002.63 33.4174 1002.49 32.9332L1004.49 32.1424C1004.63 32.6804 1004.87 33.0892 1005.2 33.369C1005.54 33.638 1005.96 33.7725 1006.47 33.7725C1006.69 33.7725 1006.91 33.7402 1007.12 33.6757C1007.32 33.6003 1007.5 33.4981 1007.65 33.369C1007.8 33.2399 1007.92 33.0892 1008.01 32.9171C1008.11 32.7342 1008.15 32.5297 1008.15 32.3038C1008.15 31.8303 1007.98 31.4591 1007.62 31.1901C1007.27 30.9211 1006.79 30.7866 1006.17 30.7866H1005.22V28.866H1006.09C1006.31 28.866 1006.52 28.8391 1006.73 28.7853C1006.93 28.7315 1007.11 28.6508 1007.26 28.5432C1007.42 28.4248 1007.55 28.2795 1007.64 28.1074C1007.73 27.9245 1007.78 27.7146 1007.78 27.4779C1007.78 27.1121 1007.65 26.8162 1007.39 26.5902C1007.13 26.3535 1006.78 26.2352 1006.34 26.2352C1005.86 26.2352 1005.49 26.3643 1005.23 26.6225C1004.98 26.87 1004.81 27.1498 1004.71 27.4618L1002.77 26.6709C1002.86 26.4019 1003.01 26.1276 1003.21 25.8478C1003.4 25.5573 1003.64 25.299 1003.94 25.0731C1004.24 24.8364 1004.59 24.6481 1004.99 24.5082C1005.39 24.3575 1005.85 24.2822 1006.37 24.2822C1006.9 24.2822 1007.38 24.3575 1007.81 24.5082C1008.26 24.6588 1008.64 24.8686 1008.95 25.1376C1009.26 25.3959 1009.51 25.7079 1009.68 26.0738C1009.85 26.4288 1009.94 26.8162 1009.94 27.2358C1009.94 27.5586 1009.9 27.8491 1009.81 28.1074C1009.73 28.3656 1009.63 28.597 1009.5 28.8014C1009.37 29.0058 1009.22 29.1834 1009.05 29.334C1008.88 29.4739 1008.72 29.5869 1008.54 29.673V29.8021C1009.06 30.0065 1009.49 30.3347 1009.83 30.7866C1010.17 31.2385 1010.35 31.8088 1010.35 32.4974C1010.35 32.9816 1010.25 33.4282 1010.07 33.8371C1009.89 34.2352 1009.62 34.5849 1009.27 34.8861C1008.94 35.1874 1008.53 35.4188 1008.06 35.5802C1007.58 35.7523 1007.05 35.8384 1006.47 35.8384Z" fill="#4285F4"/>
<path d="M1014.22 35.5802V27.026L1012.26 27.8491L1011.48 26.0576L1014.74 24.5405H1016.35V35.5802H1014.22Z" fill="#4285F4"/>
</g>
<g filter="url(#filter2_d_6474_13735)">
<path d="M1123.75 22.4165C1123.75 15.8826 1123.75 12.6156 1125.02 10.12C1126.14 7.92476 1127.92 6.13999 1130.12 5.02147C1132.62 3.74988 1135.88 3.74988 1142.42 3.74988H1157.58C1164.12 3.74988 1167.38 3.74988 1169.88 5.02147C1172.08 6.13999 1173.86 7.92476 1174.98 10.12C1176.25 12.6156 1176.25 15.8826 1176.25 22.4165V37.5832C1176.25 44.1172 1176.25 47.3841 1174.98 49.8798C1173.86 52.075 1172.08 53.8598 1169.88 54.9783C1167.38 56.2499 1164.12 56.2499 1157.58 56.2499H1142.42C1135.88 56.2499 1132.62 56.2499 1130.12 54.9783C1127.92 53.8598 1126.14 52.075 1125.02 49.8798C1123.75 47.3841 1123.75 44.1172 1123.75 37.5832V22.4165Z" fill="white"/>
<path d="M1161.35 15.9805L1150.12 24.7413L1138.64 15.9805V15.9828L1138.65 15.9947V28.2621L1149.99 37.2124L1161.35 28.6078V15.9805Z" fill="#EA4335"/>
<path d="M1164.29 13.8497L1161.35 15.9807V28.6081L1170.62 21.4858V17.1954C1170.62 17.1954 1169.5 11.0676 1164.29 13.8497Z" fill="#FBBC05"/>
<path d="M1161.35 28.6081V44.9861H1168.46C1168.46 44.9861 1170.48 44.7777 1170.62 42.4715V21.4858L1161.35 28.6081Z" fill="#34A853"/>
<path d="M1138.65 45V28.2622L1138.64 28.2504L1138.65 45Z" fill="#C5221F"/>
<path d="M1138.64 15.9834L1135.71 13.8642C1130.5 11.0821 1129.38 17.2075 1129.38 17.2075V21.4979L1138.64 28.2508V15.9834Z" fill="#C5221F"/>
<path d="M1138.64 15.9828V28.2503L1138.65 28.2621V15.9946L1138.64 15.9828Z" fill="#C5221F"/>
<path d="M1129.38 21.5001V42.4858C1129.52 44.7944 1131.54 45.0003 1131.54 45.0003H1138.65L1138.64 28.2507L1129.38 21.5001Z" fill="#4285F4"/>
</g>
<g filter="url(#filter3_d_6474_13735)">
<path d="M3.75049 142.417C3.75049 135.883 3.75049 132.616 5.02208 130.12C6.1406 127.925 7.92537 126.14 10.1206 125.021C12.6162 123.75 15.8832 123.75 22.4172 123.75H37.5838C44.1178 123.75 47.3847 123.75 49.8804 125.021C52.0756 126.14 53.8604 127.925 54.9789 130.12C56.2505 132.616 56.2505 135.883 56.2505 142.417V157.583C56.2505 164.117 56.2505 167.384 54.9789 169.88C53.8604 172.075 52.0756 173.86 49.8804 174.978C47.3847 176.25 44.1178 176.25 37.5838 176.25H22.4172C15.8832 176.25 12.6162 176.25 10.1206 174.978C7.92537 173.86 6.1406 172.075 5.02208 169.88C3.75049 167.384 3.75049 164.117 3.75049 157.583V142.417Z" fill="white"/>
<path d="M9.37549 164.175C9.37549 165.667 10.5942 166.875 12.0958 166.875H12.1349C10.6103 166.875 9.37549 165.667 9.37549 164.175Z" fill="#FBBC05"/>
<path d="M32.7517 143.25V150.299L42.2554 142.634V135.825C42.2554 134.333 41.0367 133.125 39.5351 133.125H18.9456L18.9272 143.25H32.7517Z" fill="#FBBC05"/>
<path d="M32.7512 157.351H18.9038L18.8877 166.876H39.5347C41.0385 166.876 42.2549 165.667 42.2549 164.176V158.029L32.7512 150.302V157.351Z" fill="#34A853"/>
<path d="M18.9459 133.125L9.37549 143.25H18.9298L18.9459 133.125Z" fill="#EA4335"/>
<path d="M9.37549 157.351V164.175C9.37549 165.667 10.6103 166.875 12.1349 166.875H18.8884L18.9045 157.351H9.37549Z" fill="#1967D2"/>
<path d="M18.9298 143.25H9.37549V157.351H18.9045L18.9298 143.25Z" fill="#4285F4"/>
<path d="M50.6123 161.775V138.6C50.0765 135.525 46.7032 139.05 46.7032 139.05L42.2583 142.635V158.027L48.6209 163.199C50.9181 163.501 50.6123 161.775 50.6123 161.775Z" fill="#34A853"/>
<path d="M32.752 150.299L42.258 158.028V142.636L32.752 150.299Z" fill="#188038"/>
</g>
<g clip-path="url(#clip0_6474_13735)">
<rect x="155.086" y="123.771" width="45.258" height="52.801" rx="3.7715" fill="#2FB776"/>
<path d="M155.086 163.372H200.344V172.801C200.344 174.884 198.655 176.572 196.572 176.572H158.857C156.774 176.572 155.086 174.884 155.086 172.801V163.372Z" fill="url(#paint9_linear_6474_13735)"/>
<rect x="177.715" y="150.172" width="22.629" height="13.2002" fill="#229C5B"/>
<rect x="177.715" y="136.972" width="22.629" height="13.2002" fill="#27AE68"/>
<path d="M155.086 127.543C155.086 125.46 156.774 123.771 158.857 123.771H177.715V136.972H155.086V127.543Z" fill="#1D854F"/>
<rect x="155.086" y="136.972" width="22.629" height="13.2002" fill="#197B43"/>
<rect x="155.086" y="150.172" width="22.629" height="13.2002" fill="#1B5B38"/>
<path d="M155.086 142.629C155.086 139.505 157.619 136.972 160.743 136.972H172.058C175.182 136.972 177.715 139.505 177.715 142.629V165.258C177.715 168.382 175.182 170.915 172.058 170.915H155.086V142.629Z" fill="black" fill-opacity="0.3"/>
<rect x="140" y="133.2" width="33.9435" height="33.9435" rx="3.7715" fill="url(#paint10_linear_6474_13735)"/>
<path d="M164.515 159.601L159.201 149.983L164.281 140.743H160.134L156.998 146.643L153.913 140.743H149.636L154.743 149.983L149.429 159.601H153.576L156.92 153.351L160.238 159.601H164.515Z" fill="white"/>
</g>
<g clip-path="url(#clip1_6474_13735)">
<path d="M295.086 163.372H340.344V172.801C340.344 174.884 338.655 176.572 336.572 176.572H298.857C296.774 176.572 295.086 174.884 295.086 172.801V163.372Z" fill="#5D29A1"/>
<rect x="295.086" y="150.172" width="45.258" height="13.2002" fill="#7F32CC"/>
<rect x="295.086" y="136.972" width="45.258" height="13.2002" fill="#9A40D6"/>
<path d="M298.857 123.771C296.774 123.771 295.086 125.46 295.086 127.543V172.801C295.086 174.884 296.774 176.572 298.857 176.572H325.258V136.972H340.344V127.543C340.344 125.46 338.655 123.771 336.572 123.771H298.857Z" fill="url(#paint11_linear_6474_13735)"/>
<path d="M295.086 142.629C295.086 139.505 297.619 136.972 300.743 136.972H312.058C315.182 136.972 317.715 139.505 317.715 142.629V165.258C317.715 168.382 315.182 170.915 312.058 170.915H295.086V142.629Z" fill="black" fill-opacity="0.3"/>
<rect x="280" y="133.2" width="33.9435" height="33.9435" rx="3.7715" fill="url(#paint12_linear_6474_13735)"/>
<path d="M304.515 159.601V140.743H300.534V151.735L293.131 140.743H289.429V159.601H293.353V148.205L301.035 159.601H304.515Z" fill="white"/>
</g>
<circle cx="452.058" cy="150.172" r="26.4005" fill="url(#paint13_linear_6474_13735)"/>
<mask id="mask0_6474_13735" style="mask-type:alpha" maskUnits="userSpaceOnUse" x="425" y="123" width="54" height="54">
<circle cx="452.058" cy="150.172" r="26.4005" fill="#C4C4C4"/>
</mask>
<g mask="url(#mask0_6474_13735)">
<rect x="453.943" y="120" width="32.0577" height="32.0577" fill="url(#paint14_linear_6474_13735)"/>
<path d="M431.314 142.629C431.314 139.505 433.847 136.972 436.972 136.972H452.058C455.182 136.972 457.715 139.505 457.715 142.629V165.258C457.715 168.382 455.182 170.915 452.058 170.915H431.314V142.629Z" fill="black" fill-opacity="0.3"/>
<rect x="421.886" y="120" width="32.0577" height="32.0577" fill="#EB6C4D"/>
</g>
<rect x="420" y="133.2" width="33.9435" height="33.9435" rx="3.7715" fill="url(#paint15_linear_6474_13735)"/>
<path d="M444.515 147.263C444.515 143.195 441.837 140.743 437.59 140.743H431.314V159.601H435.21V153.863H437.428C441.404 153.863 444.515 151.6 444.515 147.263ZM440.565 147.343C440.565 149.175 439.402 150.361 437.509 150.361H435.21V144.272H437.482C439.375 144.272 440.565 145.269 440.565 147.343Z" fill="white"/>
<g clip-path="url(#clip2_6474_13735)">
<path d="M595.829 146.218C595.829 145.277 596.592 144.515 597.532 144.515H618.641C619.581 144.515 620.344 145.277 620.344 146.218V158.658C620.344 165.427 614.856 170.915 608.086 170.915C601.317 170.915 595.829 165.427 595.829 158.658V146.218Z" fill="url(#paint16_linear_6474_13735)"/>
<path d="M576.972 143.055C576.972 141.778 578.007 140.743 579.283 140.743H604.832C606.109 140.743 607.144 141.778 607.144 143.055V161.487C607.144 169.818 600.389 176.573 592.058 176.573C583.726 176.573 576.972 169.818 576.972 161.487V143.055Z" fill="url(#paint17_linear_6474_13735)"/>
<circle cx="610.915" cy="135.086" r="5.65725" fill="#34439E"/>
<circle cx="610.915" cy="135.086" r="5.65725" fill="url(#paint18_linear_6474_13735)"/>
<circle cx="593.943" cy="131.314" r="7.543" fill="url(#paint19_linear_6474_13735)"/>
<mask id="mask1_6474_13735" style="mask-type:alpha" maskUnits="userSpaceOnUse" x="576" y="120" width="32" height="57">
<path d="M592.058 138.857C597.265 138.857 601.486 134.636 601.486 129.429C601.486 124.221 597.265 120 592.058 120C586.85 120 582.629 124.221 582.629 129.429C582.629 134.636 586.85 138.857 592.058 138.857Z" fill="url(#paint20_linear_6474_13735)"/>
<path d="M579.283 140.743C578.007 140.743 576.972 141.778 576.972 143.055V161.486C576.972 169.818 583.726 176.572 592.058 176.572C600.39 176.572 607.144 169.818 607.144 161.486V143.055C607.144 141.778 606.109 140.743 604.832 140.743H579.283Z" fill="url(#paint21_linear_6474_13735)"/>
</mask>
<g mask="url(#mask1_6474_13735)">
<path d="M573.2 142.629C573.2 139.505 575.733 136.972 578.857 136.972H592.058C595.182 136.972 597.715 139.505 597.715 142.629V165.258C597.715 168.382 595.182 170.915 592.058 170.915H573.2V142.629Z" fill="black" fill-opacity="0.3"/>
</g>
<rect x="560" y="133.2" width="33.9435" height="33.9435" rx="3.7715" fill="url(#paint22_linear_6474_13735)"/>
<path d="M584.515 140.743H569.429V144.203H575.076V159.601H578.867V144.203H584.515V140.743Z" fill="white"/>
</g>
<circle cx="731.853" cy="149.979" r="26.2316" fill="url(#paint23_linear_6474_13735)"/>
<mask id="mask2_6474_13735" style="mask-type:alpha" maskUnits="userSpaceOnUse" x="705" y="123" width="54" height="54">
<circle cx="731.853" cy="149.979" r="26.2316" fill="#C4C4C4"/>
</mask>
<g mask="url(#mask2_6474_13735)">
<rect x="733.727" y="120" width="31.8526" height="31.8526" fill="url(#paint24_linear_6474_13735)"/>
<path d="M711.242 142.484C711.242 139.38 713.759 136.863 716.863 136.863H731.853C734.957 136.863 737.474 139.38 737.474 142.484V164.968C737.474 168.073 734.957 170.589 731.853 170.589H711.242V142.484Z" fill="black" fill-opacity="0.3"/>
<rect x="701.874" y="120" width="31.8526" height="31.8526" fill="#EB6C4D"/>
</g>
<rect x="700" y="133.116" width="33.7263" height="33.7263" rx="3.74737" fill="url(#paint25_linear_6474_13735)"/>
<path d="M724.358 147.088C724.358 143.046 721.697 140.61 717.478 140.61H711.242V159.347H715.112V153.646H717.316C721.267 153.646 724.358 151.398 724.358 147.088ZM720.434 147.168C720.434 148.989 719.278 150.166 717.397 150.166H715.112V144.117H717.37C719.251 144.117 720.434 145.107 720.434 147.168Z" fill="white"/>
<circle cx="869.042" cy="141.547" r="17.8" fill="url(#paint26_linear_6474_13735)"/>
<circle cx="884.968" cy="151.853" r="14.9895" fill="url(#paint27_linear_6474_13735)"/>
<mask id="mask3_6474_13735" style="mask-type:alpha" maskUnits="userSpaceOnUse" x="858" y="131" width="26" height="46">
<path d="M883.095 164.032C883.095 170.758 877.642 176.211 870.916 176.211C864.19 176.211 858.737 170.758 858.737 164.032C858.737 157.305 858.737 131.242 858.737 131.242H883.095C883.095 131.242 883.095 159.72 883.095 164.032Z" fill="#C4C4C4"/>
</mask>
<g mask="url(#mask3_6474_13735)">
<circle cx="870.916" cy="164.031" r="12.1789" fill="url(#paint28_linear_6474_13735)"/>
<path d="M853.116 142.484C853.116 139.38 855.633 136.863 858.737 136.863H871.853C874.957 136.863 877.474 139.38 877.474 142.484V164.968C877.474 168.073 874.957 170.589 871.853 170.589H853.116V142.484Z" fill="black" fill-opacity="0.3"/>
</g>
<rect x="840" y="133.116" width="33.7263" height="33.7263" rx="3.74737" fill="url(#paint29_linear_6474_13735)"/>
<path d="M864.358 153.957C864.358 151.052 862.409 149.77 858.356 148.278C855.182 147.1 854.428 146.76 854.428 145.635C854.428 144.667 855.37 144.012 856.973 144.012C858.607 144.012 860.147 144.562 861.875 145.504L863.635 142.39C861.781 141.239 859.581 140.61 856.91 140.61C852.825 140.61 849.902 142.704 849.902 145.897C849.902 149.168 852.228 150.214 856.124 151.601C859.235 152.7 859.833 153.25 859.833 154.218C859.833 155.37 858.733 155.945 857.004 155.945C854.962 155.945 853.171 155.239 851.379 154.087L849.368 157.071C851.568 158.588 854.302 159.347 857.099 159.347C861.309 159.347 864.358 157.358 864.358 153.957Z" fill="white"/>
<circle cx="1010" cy="150" r="26.25" fill="#3290E8"/>
<path fill-rule="evenodd" clip-rule="evenodd" d="M1021.25 135H998.75C996.706 134.997 995.004 136.709 995 138.75V161.25C995 163.321 996.679 165 998.75 165H1021.25C1023.29 165.003 1025 163.29 1025 161.25V138.75C1025 136.679 1023.32 135 1021.25 135ZM1014 140.5C1014 139.948 1014.45 139.5 1015 139.5C1015.55 139.5 1016 139.948 1016 140.5V153.861C1016 154.412 1015.55 154.861 1015 154.861C1014.47 154.861 1014 154.392 1014 153.861L1014 140.5ZM1009 139.994C1009 139.442 1009.45 138.994 1010 138.994C1010.55 138.994 1011 139.442 1011 139.994V154.494C1011 155.047 1010.55 155.494 1010 155.494C1009.47 155.494 1009 155.025 1009 154.494L1009 139.994ZM1004 140.5C1004 139.948 1004.45 139.5 1005 139.5C1005.55 139.5 1006 139.948 1006 140.5V153.861C1006 154.412 1005.55 154.861 1005 154.861C1004.47 154.861 1004 154.392 1004 153.861V140.5ZM999 142.5C999 141.947 999.448 141.5 1000 141.5C1000.55 141.5 1001 141.947 1001 142.5V151.494C1001 152.047 1000.55 152.494 1000 152.494C999.455 152.495 999.001 152.038 999 151.494V142.5ZM1020.65 157.753C1020.5 157.887 1016.79 160.994 1010 160.994C1003.21 160.994 999.505 157.886 999.349 157.752C998.936 157.398 998.887 156.756 999.241 156.343C999.586 155.941 1000.24 155.89 1000.65 156.233C1000.71 156.282 1004.01 158.994 1010 158.994C1016.06 158.994 1019.32 156.262 1019.35 156.236C1019.75 155.89 1020.41 155.94 1020.76 156.343C1021.11 156.755 1021.07 157.399 1020.65 157.753ZM1021 151.495C1021 152.047 1020.55 152.495 1020 152.495C1019.45 152.496 1019 152.039 1019 151.495V142.5C1019 141.947 1019.45 141.5 1020 141.5C1020.55 141.5 1021 141.947 1021 142.5V151.495Z" fill="white"/>
<circle cx="1150.17" cy="150.172" r="26.4005" fill="#5FCF80"/>
<path d="M1164.85 139.346C1163.36 138.452 1161.67 137.197 1160.11 138.801C1158.17 141.553 1154.62 145.258 1156.43 148.858C1157.16 150.239 1158.38 151.27 1159.35 152.471C1159.92 153.059 1160.22 153.824 1160.11 154.653C1159.98 155.778 1159.08 156.665 1157.99 156.801C1156.53 156.971 1155.27 155.778 1155.27 154.312C1155.14 153.528 1155.34 151.756 1154.01 151.551C1153.15 151.415 1152.06 152.812 1151.49 154.653C1151.04 156.173 1151.29 157.467 1151.29 158.983C1151.29 160.607 1150.12 162.067 1148.38 161.881C1147.22 161.744 1146.22 160.79 1146.05 159.596C1145.91 158.649 1146.32 157.686 1146.88 156.937C1147.45 156.085 1148.31 154.79 1148.74 153.596C1149.2 152.335 1149.89 151.329 1149.01 150.665C1148.12 150 1144.39 155.562 1142.34 155.199C1141.41 155.028 1140.68 154.244 1140.52 153.324C1140.25 151.926 1141.15 150.699 1142.37 150.46C1143.81 150.199 1148.08 148.594 1147.61 146.846C1147.19 145.357 1143.53 148.116 1142.34 148.006C1141.21 147.971 1140.32 146.983 1140.29 145.824C1140.29 144.527 1141.32 143.608 1142.57 143.608C1144.04 143.608 1145.49 144.227 1146.98 143.881C1150.81 143.032 1152.24 139.622 1154.14 136.585C1155.04 135.153 1154.61 133.21 1153.15 132.358C1151.36 131.361 1149.51 130.769 1147.58 131.915L1135.11 139.346C1133.89 140.062 1133.12 141.426 1133.12 142.892V157.142C1133.12 158.608 1133.89 159.971 1135.11 160.687L1147.61 168.085C1149.07 168.971 1150.9 168.971 1152.39 168.085L1164.89 160.687C1166.11 159.971 1166.87 158.608 1166.87 157.142V142.892C1166.84 141.426 1166.08 140.062 1164.85 139.346Z" fill="white"/>
<path d="M35.5413 275.553C31.9795 276.894 27.9882 276.896 24.4263 275.554C23.0843 271.996 23.0839 268.006 24.4242 264.447C27.9852 263.105 31.9805 263.104 35.5415 264.447C36.883 268.004 36.8824 271.996 35.5413 275.553ZM55.8855 265.625H40.553L51.3941 254.79C49.6927 252.402 47.5922 250.303 45.2023 248.603L34.3603 259.438V244.115C31.4668 243.629 28.4992 243.63 25.6056 244.115V259.438L14.7637 248.603C12.3743 250.302 10.2732 252.403 8.57165 254.79L19.4144 265.625H4.08205C3.70358 268.603 3.58061 271.402 4.08205 274.375H19.4146L8.57186 285.21C10.2775 287.602 12.3701 289.693 14.7637 291.397L25.6056 280.562V295.885C28.4995 296.37 31.4662 296.37 34.3601 295.885V280.562L45.2031 291.397C47.5941 289.695 49.6909 287.599 51.3941 285.21L40.5513 274.375H55.8855C56.3721 271.486 56.3721 268.514 55.8855 265.625Z" fill="#FF4A00"/>
<path fill-rule="evenodd" clip-rule="evenodd" d="M150.717 294.783L144.268 286.75C142.717 284.817 141.875 282.44 141.875 279.994V250.903C141.875 247.239 144.806 244.198 148.588 243.94L178.497 241.898C180.67 241.75 182.83 242.327 184.615 243.534L195.123 250.639C197.004 251.91 198.125 253.989 198.125 256.208V289.281C198.125 292.867 195.242 295.836 191.539 296.064L158.343 298.108C155.388 298.29 152.532 297.045 150.717 294.783Z" fill="white"/>
<path d="M161.091 265.46V265.079C161.091 264.114 161.864 263.313 162.86 263.247L170.119 262.762L180.157 277.544V264.57L177.574 264.226V264.045C177.574 263.068 178.365 262.262 179.374 262.211L185.978 261.872V262.823C185.978 263.269 185.647 263.651 185.192 263.727L183.603 263.996V285.007L181.608 285.693C179.941 286.266 178.086 285.653 177.132 284.213L167.387 269.507V283.543L170.386 284.117L170.345 284.395C170.214 285.267 169.461 285.926 168.551 285.967L161.091 286.299C160.992 285.361 161.694 284.523 162.663 284.421L163.645 284.318V265.604L161.091 265.46Z" fill="black"/>
<path fill-rule="evenodd" clip-rule="evenodd" d="M178.766 245.563L148.857 247.605C147.065 247.727 145.677 249.167 145.677 250.903V279.994C145.677 281.624 146.238 283.209 147.273 284.498L153.721 292.531C154.764 293.83 156.405 294.545 158.102 294.441L191.298 292.398C192.999 292.293 194.324 290.929 194.324 289.281V256.208C194.324 255.189 193.809 254.233 192.945 253.649L182.436 246.544C181.365 245.82 180.07 245.474 178.766 245.563ZM150.34 251.357C149.924 251.049 150.122 250.407 150.645 250.37L178.967 248.338C179.869 248.274 180.766 248.522 181.496 249.039L187.179 253.065C187.394 253.218 187.293 253.548 187.026 253.563L157.033 255.194C156.125 255.243 155.229 254.977 154.507 254.442L150.34 251.357ZM155.626 260.308C155.626 259.333 156.413 258.528 157.42 258.474L189.131 256.747C190.112 256.693 190.938 257.448 190.938 258.397V287.035C190.938 288.008 190.154 288.812 189.149 288.869L157.638 290.662C156.547 290.724 155.626 289.885 155.626 288.828V260.308Z" fill="black"/>
<path fill-rule="evenodd" clip-rule="evenodd" d="M295.221 243.75H324.621C328.547 243.75 331.757 246.803 331.858 250.633L332.5 275.017L331.099 290.396C330.798 293.71 327.953 296.25 324.544 296.25H295.229C291.794 296.25 288.937 293.672 288.668 290.331L287.5 275.82L287.983 250.682C288.057 246.832 291.276 243.75 295.221 243.75ZM294.72 252.444H324.962C326.04 252.444 326.919 253.288 326.936 254.34L327.292 276.324C327.306 277.169 326.645 277.88 325.782 277.949L320 278.412C318.463 278.535 317.28 279.788 317.28 281.292V288.086C317.28 289.505 316.102 290.655 314.648 290.655H305.187C303.733 290.655 302.554 289.505 302.554 288.086V281.292C302.554 279.788 301.371 278.535 299.835 278.412L294.043 277.949C293.183 277.88 292.524 277.175 292.532 276.333L292.746 254.352C292.756 253.295 293.637 252.444 294.72 252.444Z" fill="#2274E5"/>
<path d="M324.962 252.444H294.721C293.638 252.444 292.757 253.295 292.747 254.352L292.533 276.334C292.525 277.175 293.184 277.88 294.044 277.949L299.835 278.412C301.372 278.535 302.555 279.788 302.555 281.292V282.001H317.281V281.292C317.281 279.788 318.464 278.535 320 278.412L325.782 277.95C326.646 277.881 327.307 277.17 327.293 276.324L326.937 254.34C326.92 253.288 326.041 252.444 324.962 252.444Z" fill="white"/>
<path d="M317.28 282.001V288.086C317.28 289.505 316.101 290.655 314.647 290.655H305.187C303.733 290.655 302.554 289.505 302.554 288.086V282.001H317.28Z" fill="#BEC2C8"/>
<path d="M303.954 265.063L301.897 267.03C303.844 268.715 308.207 272.512 310.083 274.214C312.649 270.233 319.351 262.922 322.381 259.765C322.162 259.524 321.575 258.89 320.983 258.28C316.277 261.972 311.015 267.016 308.972 269.077L303.954 265.063Z" fill="#2C3B4A"/>
<circle cx="450.172" cy="270.172" r="26.4005" fill="#00A82D"/>
<path d="M443.813 260.708C443.813 261.044 443.786 261.604 443.458 261.968C443.104 262.303 442.558 262.331 442.231 262.331C440.389 262.331 437.834 261.869 436.092 262.583C438.75 257.813 443.901 254.643 443.868 254.916C443.622 256.804 443.813 258.81 443.813 260.708ZM449.324 282.367C449.324 280.044 451.18 278.141 453.471 278.141C454.153 278.141 454.699 278.701 454.699 279.401C454.699 279.876 454.454 280.268 454.072 280.492C453.656 280.748 453.079 280.629 452.707 280.968C452.435 281.192 452.216 281.555 452.216 281.947C452.216 282.367 452.38 282.759 452.653 283.038C453.144 283.542 453.799 283.822 454.508 283.822C456.363 283.822 457.864 282.283 457.864 280.38C457.864 278.673 456.745 277.162 455.272 276.49C453.036 275.344 449.615 275.996 449.352 272.405C448.941 274.305 448.037 277.694 445.586 277.694C438.184 278.145 435.516 272.149 435 265.801C435 264.43 435.819 263.507 436.856 263.367C438.711 263.367 440.566 263.367 442.422 263.367C443.376 263.367 443.922 263.115 444.277 262.779C444.741 262.331 444.85 261.688 444.85 260.932C444.85 258.964 444.85 255.938 444.85 255.028C444.85 253.84 445.887 253.125 447.223 253.125C448.011 253.125 448.75 253.153 449.515 253.349C451.18 253.769 451.534 255.504 451.534 255.504C451.534 255.504 454.672 256.063 456.254 256.343C457.755 256.623 461.465 256.875 462.175 260.708C463.839 269.831 462.83 278.673 462.748 278.673C461.574 287.292 454.59 286.872 454.59 286.872C452.051 286.872 449.324 285.139 449.324 282.367ZM457.509 267.508C456.609 267.424 455.845 267.788 455.572 268.488C455.186 269.479 459.174 270.303 459.174 268.935C459.064 268.152 458.41 267.62 457.509 267.508Z" fill="white"/>
<path d="M590 243.75C575.522 243.75 563.75 255.521 563.75 270C563.75 284.478 575.522 296.25 590 296.25C604.479 296.25 616.25 284.478 616.25 270C616.25 255.521 604.479 243.75 590 243.75Z" fill="#333333"/>
<path fill-rule="evenodd" clip-rule="evenodd" d="M599.018 273.821C598.941 273.711 598.863 273.602 598.786 273.495C598.158 272.619 597.56 271.785 597.56 270.113V263.879C597.56 263.662 597.561 263.447 597.562 263.234C597.576 260.843 597.588 258.662 595.865 256.994C594.386 255.52 591.931 255 590.053 255C586.38 255 582.283 256.42 581.424 261.128C581.333 261.628 581.683 261.889 582.001 261.963L585.741 262.383C586.091 262.364 586.344 262.007 586.411 261.648C586.732 260.026 588.042 259.246 589.514 259.246C590.308 259.246 591.209 259.547 591.679 260.286C592.163 261.022 592.156 262.005 592.149 262.884C592.148 262.986 592.147 263.087 592.147 263.186V263.709C591.8 263.749 591.437 263.787 591.062 263.826C589.022 264.04 586.659 264.288 584.889 265.092C582.473 266.177 580.776 268.386 580.776 271.631C580.776 275.791 583.301 277.87 586.552 277.87C589.295 277.87 590.797 277.199 592.913 274.961C593.019 275.12 593.114 275.267 593.203 275.405C593.708 276.183 594.038 276.691 595.125 277.629C595.412 277.788 595.792 277.782 596.047 277.543C596.817 276.833 598.216 275.572 599.005 274.886C599.32 274.618 599.265 274.184 599.018 273.821ZM591.425 272.023C590.813 273.152 589.837 273.843 588.753 273.843C587.275 273.843 586.407 272.672 586.407 270.941C586.407 267.532 589.357 266.913 592.146 266.913C592.146 267.117 592.148 267.322 592.15 267.528C592.164 269.071 592.178 270.645 591.425 272.023Z" fill="white"/>
<path d="M603.63 280.623C599.936 283.48 594.579 285 589.965 285C583.502 285 577.679 282.496 573.274 278.327C572.928 277.999 573.237 277.552 573.652 277.806C578.406 280.706 584.284 282.451 590.355 282.451C594.45 282.451 598.952 281.561 603.094 279.718C603.719 279.441 604.242 280.151 603.63 280.623Z" fill="white"/>
<path d="M600.854 278.634C602.043 278.483 604.696 278.15 605.168 278.783C605.64 279.416 604.648 282.018 604.2 283.191L604.197 283.2C604.062 283.554 604.352 283.695 604.657 283.427C606.639 281.69 607.151 278.049 606.745 277.521C606.342 277.001 602.877 276.55 600.762 278.107C600.437 278.349 600.492 278.678 600.854 278.634Z" fill="white"/>
<path d="M756.25 267.252H740.257L754.107 259.255L751.361 254.495L737.509 262.492L745.504 248.641L740.745 245.894L732.749 259.741V243.75H727.252V259.743L719.256 245.894L714.495 248.641L722.49 262.489L708.642 254.495L705.894 259.255L719.744 267.252H703.75V272.749H719.742L705.894 280.747L708.64 285.507L722.492 277.509L714.495 291.36L719.254 294.108L727.252 280.258V296.25H732.749V279.915L740.892 294.02L745.355 291.444L737.21 277.336L751.357 285.505L754.106 280.745L740.257 272.747H756.249V267.252H756.25ZM730 277.472C729.019 277.472 728.048 277.279 727.141 276.904C726.235 276.528 725.411 275.978 724.717 275.284C724.023 274.59 723.473 273.766 723.097 272.859C722.721 271.952 722.528 270.981 722.528 269.999C722.528 269.017 722.721 268.046 723.096 267.139C723.472 266.232 724.022 265.408 724.716 264.714C725.409 264.02 726.233 263.469 727.139 263.093C728.046 262.717 729.018 262.524 729.999 262.524C731.98 262.524 733.881 263.311 735.282 264.712C736.684 266.114 737.471 268.015 737.471 269.997C737.472 271.98 736.685 273.881 735.284 275.283C733.882 276.684 731.982 277.472 730 277.472Z" fill="#625DF5"/>
<path d="M843.75 258.844C843.75 253.505 843.75 250.835 844.805 248.803C845.695 247.091 847.091 245.695 848.803 244.805C850.835 243.75 853.505 243.75 858.844 243.75H881.156C886.495 243.75 889.165 243.75 891.197 244.805C892.909 245.695 894.305 247.091 895.194 248.803C896.25 250.835 896.25 253.505 896.25 258.844V281.156C896.25 286.495 896.25 289.165 895.194 291.197C894.305 292.909 892.909 294.305 891.197 295.194C889.165 296.25 886.495 296.25 881.156 296.25H858.844C853.505 296.25 850.835 296.25 848.803 295.194C847.091 294.305 845.695 292.909 844.805 291.197C843.75 289.165 843.75 286.495 843.75 281.156V258.844Z" fill="url(#paint30_linear_6474_13735)"/>
<path d="M867.414 285.363L854.638 272.586C855.729 279.117 860.884 284.272 867.414 285.363Z" fill="#F2F3F8"/>
<path d="M854.447 269.133L870.868 285.553C871.842 285.5 872.792 285.357 873.71 285.132L854.868 266.29C854.644 267.208 854.501 268.159 854.447 269.133Z" fill="#F2F3F8"/>
<path d="M855.688 263.845L876.157 284.314C876.902 283.993 877.616 283.616 878.295 283.188L856.814 261.707C856.386 262.386 856.009 263.101 855.688 263.845Z" fill="#F2F3F8"/>
<path d="M858.197 259.831C861.054 256.519 865.281 254.423 869.998 254.423C878.6 254.423 885.574 261.397 885.574 270C885.574 274.717 883.478 278.944 880.166 281.8L858.197 259.831Z" fill="#F2F3F8"/>
<path d="M1010 243.75C995.497 243.75 983.75 255.497 983.75 270C983.75 281.616 991.264 291.426 1001.7 294.905C1003.01 295.134 1003.5 294.347 1003.5 293.658C1003.5 293.034 1003.47 290.967 1003.47 288.769C996.875 289.983 995.169 287.161 994.644 285.684C994.348 284.93 993.069 282.6 991.953 281.976C991.034 281.484 989.722 280.27 991.92 280.237C993.988 280.205 995.464 282.141 995.956 282.928C998.319 286.898 1002.09 285.783 1003.6 285.094C1003.83 283.387 1004.52 282.239 1005.27 281.583C999.434 280.926 993.331 278.662 993.331 268.622C993.331 265.767 994.348 263.405 996.022 261.567C995.759 260.911 994.841 258.22 996.284 254.611C996.284 254.611 998.483 253.922 1003.5 257.301C1005.6 256.711 1007.83 256.416 1010.07 256.416C1012.3 256.416 1014.53 256.711 1016.63 257.301C1021.65 253.889 1023.85 254.611 1023.85 254.611C1025.29 258.22 1024.37 260.911 1024.11 261.567C1025.78 263.405 1026.8 265.734 1026.8 268.622C1026.8 278.695 1020.66 280.926 1014.82 281.583C1015.78 282.403 1016.6 283.978 1016.6 286.439C1016.6 289.95 1016.56 292.772 1016.56 293.658C1016.56 294.347 1017.05 295.167 1018.37 294.905C1023.58 293.145 1028.11 289.796 1031.31 285.329C1034.52 280.861 1036.25 275.5 1036.25 270C1036.25 255.497 1024.5 243.75 1010 243.75Z" fill="black"/>
<circle cx="1150" cy="270" r="26.25" fill="#0F287F"/>
<path fill-rule="evenodd" clip-rule="evenodd" d="M1140.63 255L1131.25 260.625L1140.63 266.25L1131.25 271.875L1140.63 277.5L1150 271.875L1159.38 277.5L1168.75 271.875L1159.38 266.25L1168.75 260.625L1159.38 255L1150 260.625L1140.63 255ZM1150 260.625L1159.38 266.25L1150 271.875L1140.63 266.25L1150 260.625Z" fill="#DAF8FE"/>
<path d="M1140.63 281.25L1150 275.625L1159.38 281.25L1150 286.875L1140.63 281.25Z" fill="#DAF8FE"/>
<path d="M30 363.75C15.5215 363.75 3.75 375.522 3.75 390C3.75 404.479 15.5215 416.25 30 416.25C44.4785 416.25 56.25 404.479 56.25 390C56.25 375.522 44.4785 363.75 30 363.75Z" fill="url(#paint31_radial_6474_13735)"/>
<path d="M38.4762 389.89C34.8725 389.89 31.9516 392.852 31.9516 396.507C31.9516 400.162 34.8725 403.125 38.4762 403.125C42.0794 403.125 45.0005 400.162 45.0005 396.507C45.0005 392.852 42.0794 389.89 38.4762 389.89ZM21.5249 389.89C17.9217 389.89 15.0005 392.852 15.0005 396.507C15.0005 400.162 17.9217 403.125 21.5249 403.125C25.1284 403.125 28.0497 400.162 28.0497 396.507C28.0497 392.852 25.1284 389.89 21.5249 389.89ZM36.5248 381.617C36.5248 385.272 33.6039 388.236 30.0007 388.236C26.3971 388.236 23.4761 385.272 23.4761 381.617C23.4761 377.963 26.3971 375 30.0007 375C33.6039 375 36.5248 377.963 36.5248 381.617Z" fill="white"/>
<path d="M170 363.75C155.521 363.75 143.75 375.522 143.75 390C143.75 404.479 155.521 416.25 170 416.25C184.479 416.25 196.25 404.479 196.25 390C196.25 375.522 184.479 363.75 170 363.75Z" fill="#FDDD4C"/>
<path d="M158.504 396.844C157.93 395.975 159.374 394.66 158.787 393.555C158.448 392.919 157.895 392.522 157.23 392.438C156.593 392.358 155.936 392.592 155.517 393.048C154.856 393.768 154.753 394.747 154.881 395.093C154.928 395.22 155.001 395.255 155.054 395.262C155.414 395.31 155.617 394.386 155.741 394.193C156.085 393.663 156.865 393.502 157.404 393.851C158.426 394.512 157.54 395.58 157.616 396.483C157.691 397.361 158.238 397.714 158.73 397.751C159.208 397.77 159.542 397.504 159.627 397.31C159.829 396.847 158.976 397.559 158.504 396.844Z" fill="black"/>
<path d="M179.858 388.867C179.59 388.83 179.297 388.831 178.992 388.867C178.761 388.575 178.554 388.102 178.437 387.55C178.228 386.569 178.25 385.857 178.831 385.765C179.412 385.673 179.693 386.267 179.901 387.248C180.04 387.908 180.014 388.515 179.858 388.867Z" fill="black"/>
<path d="M173.496 389.451C173.519 389.673 173.527 389.898 173.521 390.106C174.083 390.139 174.481 390.406 174.587 390.575C174.641 390.662 174.619 390.719 174.602 390.746C174.544 390.836 174.419 390.822 174.158 390.793C173.93 390.767 173.684 390.745 173.429 390.756C173.29 391.183 172.878 391.222 172.588 390.907C172.386 390.969 171.989 391.223 171.871 390.947C171.87 390.81 172.013 390.611 172.272 390.436C172.095 390.099 171.976 389.737 171.906 389.364C171.539 389.43 171.209 389.533 170.95 389.613C170.828 389.651 170.347 389.868 170.291 389.624C170.253 389.454 170.517 389.176 170.795 388.974C171.106 388.753 171.451 388.597 171.809 388.506C171.801 387.973 171.937 387.602 172.324 387.54C172.803 387.464 173.101 387.833 173.306 388.517C173.886 388.678 174.465 389.078 174.721 389.491C174.82 389.651 174.839 389.775 174.775 389.84C174.614 390.006 173.724 389.523 173.496 389.451Z" fill="black"/>
<path d="M177.308 391.844C177.676 392.023 178.08 391.953 178.213 391.688C178.345 391.423 178.153 391.064 177.785 390.886C177.418 390.708 177.013 390.778 176.881 391.043C176.749 391.307 176.94 391.666 177.308 391.844Z" fill="black"/>
<path d="M179.118 390.529C179.125 390.124 179.373 389.801 179.672 389.806C179.97 389.812 180.207 390.143 180.2 390.548C180.193 390.952 179.945 391.275 179.647 391.27C179.348 391.265 179.112 390.934 179.118 390.529Z" fill="black"/>
<path fill-rule="evenodd" clip-rule="evenodd" d="M187.21 395.49C187.207 395.482 187.216 395.511 187.21 395.49C187.809 395.49 188.75 396.17 188.75 397.813C188.75 399.447 188.063 401.298 187.901 401.709C185.426 407.563 179.52 410.822 172.484 410.616C165.925 410.423 160.331 407.007 157.883 401.438C156.403 401.439 154.877 400.797 153.717 399.782C152.494 398.713 151.74 397.329 151.593 395.886C151.478 394.763 151.618 393.717 151.975 392.806L150.6 391.656C144.308 386.412 163.987 364.822 170.28 370.24C170.312 370.268 172.421 372.31 172.426 372.315C175.461 371.043 183.592 368.622 183.601 374.259C183.604 376.131 182.396 378.314 180.459 380.295C182.697 382.343 182.107 385.253 182.463 387.923L183.241 388.136C184.722 388.546 185.776 389.093 186.292 389.628C186.808 390.162 187.063 390.679 187.156 391.285C187.243 391.774 187.231 392.638 186.578 393.604C186.813 394.227 187.028 394.849 187.21 395.49ZM157.772 399.919C157.992 399.924 158.21 399.91 158.424 399.873C160.723 399.486 161.325 397.021 160.946 394.601C160.518 391.868 158.645 390.904 157.374 390.836C157.021 390.817 156.692 390.849 156.421 390.902C154.152 391.354 152.871 393.259 153.123 395.734C153.351 397.974 155.646 399.863 157.772 399.919ZM152.633 391.574C153.394 390.482 154.639 389.693 156.051 389.421C157.849 384.658 160.851 380.269 164.824 377.249C167.773 374.821 170.953 373.079 170.953 373.079C170.953 373.079 169.24 371.119 168.723 370.975C165.541 370.126 158.67 374.804 154.282 380.985C152.506 383.486 149.965 387.914 151.18 390.192C151.33 390.474 152.178 391.199 152.633 391.574ZM178.429 398.825C178.434 398.876 178.402 398.929 178.356 398.948C178.356 398.948 175.8 400.122 171.739 398.882C171.885 400.099 173.361 400.56 174.392 400.727C179.424 401.582 184.129 398.741 185.188 398.026C185.37 397.903 185.186 398.219 185.153 398.265C183.857 399.916 180.371 401.828 175.837 401.827C173.86 401.826 171.883 401.139 171.158 400.082C170.032 398.443 171.102 396.049 172.978 396.299C176.15 396.652 179.401 396.387 182.337 395.041C184.897 393.868 185.864 392.578 185.719 391.533C185.493 389.913 183.091 389.659 181.877 389.266C181.349 389.093 181.088 388.955 181.029 387.974C181.003 387.546 180.928 386.052 180.9 385.434C180.852 384.353 180.72 382.873 179.79 382.263C179.548 382.104 179.279 382.027 178.996 382.012C178.77 382.001 178.636 382.032 178.564 382.049C178.548 382.053 178.535 382.056 178.524 382.058C178.022 382.142 177.715 382.396 177.352 382.695C177.331 382.712 177.31 382.73 177.289 382.747C176.13 383.701 175.151 383.857 174.062 383.811C173.723 383.796 173.373 383.763 173.005 383.727C172.665 383.694 172.31 383.66 171.932 383.637L171.469 383.611C169.646 383.519 167.69 385.073 167.365 387.281C167.002 389.745 168.379 391.254 169.275 392.236C169.496 392.478 169.688 392.689 169.817 392.873C169.9 392.985 169.996 393.141 169.996 393.291C169.996 393.469 169.879 393.61 169.764 393.73C167.904 395.619 167.309 398.619 168.01 401.12C168.098 401.432 168.209 401.73 168.34 402.016C169.985 405.81 175.088 407.577 180.073 405.97C183.566 404.844 186.653 402.122 187.282 398.367C187.431 397.388 187.211 397.011 186.912 396.828C186.595 396.636 186.216 396.703 186.216 396.703C186.216 396.703 186.043 395.534 185.553 394.471C184.1 395.603 182.229 396.398 180.805 396.802C178.523 397.448 176.059 397.7 173.701 397.395C172.744 397.271 172.102 397.188 171.826 398.072C174.971 399.208 178.3 398.722 178.3 398.722C178.365 398.715 178.422 398.761 178.429 398.825ZM169.355 376.764C167.635 377.632 165.714 379.179 164.155 380.959C164.1 381.022 164.181 381.11 164.249 381.061C165.596 380.093 167.444 379.194 169.863 378.612C172.574 377.959 175.183 378.233 176.777 378.593C176.857 378.612 176.907 378.475 176.836 378.436C175.783 377.853 174.167 377.457 173.02 377.448C172.964 377.447 172.932 377.383 172.965 377.339C173.164 377.075 173.435 376.816 173.683 376.627C173.739 376.585 173.705 376.496 173.635 376.5C172.208 376.587 168.95 378.072 168.962 378.018C169.046 377.622 169.309 377.099 169.445 376.855C169.478 376.797 169.414 376.734 169.355 376.764Z" fill="black"/>
<path d="M283.75 369.42C283.75 366.288 286.288 363.75 289.419 363.75H330.581C333.712 363.75 336.25 366.288 336.25 369.42V410.581C336.25 413.712 333.712 416.25 330.581 416.25H289.419C286.288 416.25 283.75 413.712 283.75 410.581V369.42Z" fill="#558AAD"/>
<path d="M303.122 382.078C302.353 383.204 301.059 383.942 299.593 383.942C298.894 383.942 298.234 383.774 297.652 383.477L303.309 389.133C303.794 387.307 305.458 385.961 307.437 385.961C308.903 385.961 310.197 386.7 310.966 387.825H322.504C323.833 387.825 324.911 388.903 324.911 390.233C324.911 391.562 323.833 392.64 322.504 392.64H310.966C310.197 393.766 308.903 394.504 307.437 394.504C306.798 394.504 306.192 394.364 305.647 394.112L309.922 398.387H322.504C323.833 398.387 324.911 399.465 324.911 400.795C324.911 402.125 323.833 403.202 322.504 403.202H303.122C302.353 404.328 301.059 405.066 299.593 405.066C298.87 405.066 298.188 404.887 297.591 404.569L309.712 416.25H330.581C333.712 416.25 336.25 413.712 336.25 410.58V390L323.979 377.729L323.937 377.736C324.528 378.174 324.911 378.878 324.911 379.671C324.911 381 323.833 382.078 322.504 382.078H303.122Z" fill="#4C7B9B"/>
<rect x="296.797" y="398.388" width="28.1139" height="4.81509" rx="2.40754" fill="#A1BED2"/>
<rect x="303.865" y="387.825" width="21.0466" height="4.81509" rx="2.40754" fill="#A1BED2"/>
<rect x="296.797" y="377.263" width="28.1139" height="4.81509" rx="2.40754" fill="#A1BED2"/>
<path d="M303.122 382.078C303.591 381.393 303.865 380.564 303.865 379.671C303.865 378.822 303.617 378.031 303.19 377.366L308.058 382.078H303.122Z" fill="#98B3C6"/>
<path d="M310.966 392.641C311.435 391.955 311.709 391.126 311.709 390.233C311.709 389.461 311.504 388.736 311.145 388.111L315.825 392.641H310.966Z" fill="#98B3C6"/>
<path d="M303.122 403.203C303.591 402.517 303.865 401.688 303.865 400.795C303.865 399.947 303.617 399.156 303.19 398.491L308.058 403.203H303.122Z" fill="#98B3C6"/>
<ellipse cx="299.593" cy="379.671" rx="4.27145" ry="4.27145" fill="white"/>
<ellipse cx="307.437" cy="390.233" rx="4.27145" ry="4.27145" fill="white"/>
<ellipse cx="299.593" cy="400.795" rx="4.27145" ry="4.27145" fill="white"/>
<path d="M450 363.75C435.521 363.75 423.75 375.522 423.75 390C423.75 404.479 435.521 416.25 450 416.25C464.479 416.25 476.25 404.479 476.25 390C476.25 375.522 464.479 363.75 450 363.75Z" fill="white"/>
<path d="M450.004 371.25C438.9 371.25 430.209 385.877 429.375 398.23C432.856 404.489 441.263 406.875 450.004 406.875C458.745 406.875 467.143 404.523 470.625 398.23C469.798 385.877 461.099 371.25 450.004 371.25Z" fill="#B3DCFF"/>
<path d="M462.852 386.612C460.414 383.353 457.308 379.895 455.505 379.895C453.702 379.895 448.668 389.127 446.322 389.127C443.976 389.127 442.807 384.926 439.969 384.943C436.095 384.943 432.305 396.744 432.305 396.744C432.305 396.744 433.874 403.945 450.287 403.945C466.701 403.945 468.011 396.865 468.011 396.865C466.82 393.189 465.079 389.729 462.852 386.612Z" fill="#5ECC62"/>
<path d="M441.205 395.758C441.205 395.332 441.327 394.916 441.555 394.562C441.784 394.208 442.108 393.932 442.488 393.769C442.868 393.606 443.286 393.563 443.689 393.646C444.093 393.729 444.463 393.934 444.754 394.235C445.044 394.536 445.242 394.92 445.323 395.338C445.403 395.755 445.362 396.188 445.204 396.581C445.047 396.975 444.781 397.311 444.439 397.547C444.097 397.784 443.695 397.91 443.284 397.91C442.733 397.91 442.204 397.683 441.814 397.28C441.424 396.876 441.205 396.328 441.205 395.758ZM454.638 395.758C454.638 396.183 454.76 396.599 454.988 396.953C455.217 397.307 455.541 397.583 455.921 397.746C456.301 397.909 456.719 397.952 457.122 397.869C457.525 397.786 457.896 397.581 458.187 397.28C458.477 396.979 458.675 396.595 458.755 396.177C458.836 395.76 458.794 395.327 458.637 394.934C458.48 394.54 458.213 394.204 457.872 393.968C457.53 393.731 457.128 393.605 456.717 393.605C456.444 393.605 456.173 393.661 455.921 393.769C455.669 393.877 455.44 394.036 455.247 394.235C455.054 394.435 454.901 394.673 454.796 394.934C454.692 395.195 454.638 395.475 454.638 395.758ZM454.262 398.913C454.324 398.759 454.328 398.587 454.273 398.43C454.218 398.274 454.109 398.144 453.966 398.067C453.824 397.99 453.658 397.971 453.503 398.014C453.347 398.057 453.213 398.159 453.127 398.299C452.798 398.828 452.34 399.257 451.799 399.543C451.257 399.828 450.653 399.96 450.046 399.924C449.423 399.939 448.805 399.796 448.248 399.506C447.691 399.217 447.21 398.791 446.849 398.265C446.754 398.129 446.613 398.036 446.455 398.003C446.296 397.971 446.132 398.001 445.994 398.088C445.856 398.175 445.755 398.313 445.711 398.474C445.666 398.635 445.682 398.807 445.755 398.956C446.231 399.676 446.873 400.262 447.622 400.662C448.371 401.061 449.204 401.262 450.046 401.247C450.887 401.286 451.722 401.09 452.463 400.679C453.205 400.268 453.827 399.658 454.262 398.913Z" fill="black"/>
<path d="M446.614 393.087C444.068 393.087 442.757 390.493 442.048 388.877C441.413 387.433 441.296 385.142 439.493 385.082C439.655 385.012 439.827 384.974 440.002 384.969C442.841 384.969 444.043 389.153 446.356 389.153C448.668 389.153 453.711 379.895 455.506 379.895C455.905 379.917 456.294 380.035 456.641 380.241C456.463 380.206 456.279 380.215 456.105 380.268C455.931 380.32 455.771 380.415 455.639 380.543C455.063 381.157 449.77 393.087 446.614 393.087Z" fill="#00AD45"/>
<path d="M569.375 412.35C569.375 413.547 570.073 414.375 571.259 414.375H593.701C590.689 408.426 587.317 403 583.12 397.913C578.777 400.635 574.187 402.99 569.375 404.909V412.35Z" fill="#F15713"/>
<path d="M569.375 375.295C574.175 377.208 578.754 379.555 583.086 382.268C587.298 377.172 590.944 371.589 593.964 365.625H571.713C570.421 365.625 569.375 366.682 569.375 367.986" fill="#69AAB5"/>
<path d="M583.12 397.913C586.849 395.575 590.395 392.97 593.716 390.101C590.385 387.224 586.826 384.612 583.088 382.269C580.816 385.018 578.375 387.617 575.8 390.071C578.388 392.539 580.84 395.15 583.12 397.913Z" fill="#FFB1A2"/>
<path d="M593.715 390.102C590.394 392.971 586.848 395.576 583.12 397.913C587.317 403 590.689 408.426 593.701 414.375L610.553 414.375C612.109 414.375 612.684 413.272 612.109 412.281C607.233 403.882 600.996 396.394 593.715 390.102Z" fill="#F37036"/>
<path d="M593.963 365.628C590.945 371.588 587.295 377.175 583.086 382.269C586.824 384.612 590.385 387.224 593.716 390.102C601.106 383.713 607.423 376.095 612.33 367.542C612.817 366.693 612.193 365.625 611.219 365.625L593.963 365.628Z" fill="#85B8C1"/>
<path d="M569.375 395.638C571.604 393.884 573.747 392.028 575.8 390.072C573.747 388.116 571.604 386.258 569.375 384.506V395.638Z" fill="#F76F6D"/>
<path d="M569.375 375.295C574.175 377.208 578.754 379.555 583.086 382.268C580.814 385.018 578.375 387.617 575.799 390.071C573.746 388.116 571.604 386.259 569.375 384.507L569.375 375.295Z" fill="#F39D90"/>
<path d="M583.12 397.913C580.84 395.15 578.388 392.539 575.799 390.071C573.746 392.027 571.604 393.884 569.375 395.638V404.908C574.187 402.99 578.777 400.635 583.12 397.913Z" fill="#FA8176"/>
<circle cx="730" cy="390" r="26.25" fill="#0F287F"/>
<path fill-rule="evenodd" clip-rule="evenodd" d="M720.625 375L711.25 380.625L720.625 386.25L711.25 391.875L720.625 397.5L730 391.875L739.375 397.5L748.75 391.875L739.375 386.25L748.75 380.625L739.375 375L730 380.625L720.625 375ZM730 380.625L739.375 386.25L730 391.875L720.625 386.25L730 380.625Z" fill="#DAF8FE"/>
<path d="M720.625 401.25L730 395.625L739.375 401.25L730 406.875L720.625 401.25Z" fill="#DAF8FE"/>
<path fill-rule="evenodd" clip-rule="evenodd" d="M886.9 367.5H853.129C850.02 367.5 847.5 370.018 847.5 373.125V406.875C847.5 409.982 850.02 412.5 853.129 412.5H886.9C889.997 412.484 892.5 409.97 892.5 406.875V373.125C892.5 370.03 889.997 367.516 886.9 367.5ZM856.875 373.125H864.375C866.446 373.125 868.125 374.804 868.125 376.875V403.125C868.125 405.196 866.446 406.875 864.375 406.875H856.875C854.804 406.875 853.125 405.196 853.125 403.125V376.875C853.125 374.804 854.804 373.125 856.875 373.125ZM883.125 373.125H875.625C873.554 373.125 871.875 374.804 871.875 376.875V390C871.875 392.071 873.554 393.75 875.625 393.75H883.125C885.196 393.75 886.875 392.071 886.875 390V376.875C886.875 374.804 885.196 373.125 883.125 373.125Z" fill="url(#paint32_linear_6474_13735)"/>
<circle cx="1010" cy="390" r="26.25" fill="#172132"/>
<path d="M994.812 380.625C993.881 380.625 993.125 381.388 993.125 382.33V397.67C993.125 398.612 993.881 399.375 994.812 399.375H995.656C996.588 399.375 997.344 398.612 997.344 397.67V384.886H1004.94C1005.87 384.886 1006.63 384.123 1006.63 383.182V382.33C1006.63 381.388 1005.87 380.625 1004.94 380.625H994.812Z" fill="white"/>
<path d="M1011.69 380.625H1010.84C1009.91 380.625 1009.16 381.388 1009.16 382.33V397.67C1009.16 398.612 1009.91 399.375 1010.84 399.375H1011.69C1012.62 399.375 1013.37 398.612 1013.37 397.67V382.33C1013.37 381.388 1012.62 380.625 1011.69 380.625Z" fill="white"/>
<path d="M1025.19 380.625H1024.34C1023.41 380.625 1022.66 381.388 1022.66 382.33V397.67C1022.66 398.612 1023.41 399.375 1024.34 399.375H1025.19C1026.12 399.375 1026.88 398.612 1026.88 397.67V382.33C1026.88 381.388 1026.12 380.625 1025.19 380.625Z" fill="white"/>
<path d="M1017.59 384.034H1018.44C1019.37 384.034 1020.13 384.797 1020.13 385.739V395.114C1020.13 396.055 1019.37 396.818 1018.44 396.818H1017.59C1016.66 396.818 1015.91 396.055 1015.91 395.114V385.739C1015.91 384.797 1016.66 384.034 1017.59 384.034Z" fill="white"/>
<path d="M1002.41 389.148H1000.72C999.787 389.148 999.031 389.911 999.031 390.852V391.705C999.031 392.646 999.787 393.409 1000.72 393.409H1002.41C1003.34 393.409 1004.09 392.646 1004.09 391.705V390.852C1004.09 389.911 1003.34 389.148 1002.41 389.148Z" fill="white"/>
<path fill-rule="evenodd" clip-rule="evenodd" d="M1135.22 363.75H1164.62C1168.55 363.75 1171.76 366.803 1171.86 370.633L1172.5 395.017L1171.1 410.396C1170.8 413.71 1167.95 416.25 1164.54 416.25H1135.23C1131.79 416.25 1128.94 413.672 1128.67 410.331L1127.5 395.82L1127.98 370.682C1128.06 366.833 1131.28 363.75 1135.22 363.75ZM1134.72 372.444H1164.96C1166.04 372.444 1166.92 373.288 1166.94 374.34L1167.29 396.324C1167.31 397.17 1166.65 397.881 1165.78 397.95L1160 398.412C1158.46 398.535 1157.28 399.788 1157.28 401.292V408.086C1157.28 409.505 1156.1 410.655 1154.65 410.655H1145.19C1143.73 410.655 1142.55 409.505 1142.55 408.086V401.292C1142.55 399.788 1141.37 398.535 1139.84 398.412L1134.04 397.949C1133.18 397.88 1132.52 397.175 1132.53 396.333L1132.75 374.352C1132.76 373.295 1133.64 372.444 1134.72 372.444Z" fill="#2274E5"/>
<path d="M1164.96 372.444H1134.72C1133.64 372.444 1132.76 373.295 1132.75 374.352L1132.53 396.334C1132.52 397.175 1133.18 397.88 1134.04 397.949L1139.83 398.412C1141.37 398.535 1142.55 399.788 1142.55 401.292V402.001H1157.28V401.292C1157.28 399.788 1158.46 398.535 1160 398.412L1165.78 397.95C1166.65 397.881 1167.31 397.17 1167.29 396.324L1166.94 374.34C1166.92 373.288 1166.04 372.444 1164.96 372.444Z" fill="white"/>
<path d="M1157.28 402.001V408.086C1157.28 409.505 1156.1 410.655 1154.65 410.655H1145.19C1143.73 410.655 1142.55 409.505 1142.55 408.086V402.001H1157.28Z" fill="#BEC2C8"/>
<path d="M1143.95 385.063L1141.9 387.03C1143.84 388.716 1148.21 392.513 1150.08 394.215C1152.65 390.233 1159.35 382.922 1162.38 379.765C1162.16 379.524 1161.57 378.89 1160.98 378.28C1156.28 381.973 1151.01 387.017 1148.97 389.077L1143.95 385.063Z" fill="#2C3B4A"/>
<defs>
<filter id="filter0_d_6474_13735" x="838" y="-1" width="64" height="64" filterUnits="userSpaceOnUse" color-interpolation-filters="sRGB">
<feFlood flood-opacity="0" result="BackgroundImageFix"/>
<feColorMatrix in="SourceAlpha" type="matrix" values="0 0 0 0 0 0 0 0 0 0 0 0 0 0 0 0 0 0 127 0" result="hardAlpha"/>
<feOffset dy="1"/>
<feGaussianBlur stdDeviation="1"/>
<feColorMatrix type="matrix" values="0 0 0 0 0.0627451 0 0 0 0 0.0941176 0 0 0 0 0.156863 0 0 0 0.05 0"/>
<feBlend mode="normal" in2="BackgroundImageFix" result="effect1_dropShadow_6474_13735"/>
<feBlend mode="normal" in="SourceGraphic" in2="effect1_dropShadow_6474_13735" result="shape"/>
</filter>
<filter id="filter1_d_6474_13735" x="978" y="-1" width="64" height="64" filterUnits="userSpaceOnUse" color-interpolation-filters="sRGB">
<feFlood flood-opacity="0" result="BackgroundImageFix"/>
<feColorMatrix in="SourceAlpha" type="matrix" values="0 0 0 0 0 0 0 0 0 0 0 0 0 0 0 0 0 0 127 0" result="hardAlpha"/>
<feOffset dy="1"/>
<feGaussianBlur stdDeviation="1"/>
<feColorMatrix type="matrix" values="0 0 0 0 0.0627451 0 0 0 0 0.0941176 0 0 0 0 0.156863 0 0 0 0.05 0"/>
<feBlend mode="normal" in2="BackgroundImageFix" result="effect1_dropShadow_6474_13735"/>
<feBlend mode="normal" in="SourceGraphic" in2="effect1_dropShadow_6474_13735" result="shape"/>
</filter>
<filter id="filter2_d_6474_13735" x="1118" y="-1" width="64" height="64" filterUnits="userSpaceOnUse" color-interpolation-filters="sRGB">
<feFlood flood-opacity="0" result="BackgroundImageFix"/>
<feColorMatrix in="SourceAlpha" type="matrix" values="0 0 0 0 0 0 0 0 0 0 0 0 0 0 0 0 0 0 127 0" result="hardAlpha"/>
<feOffset dy="1"/>
<feGaussianBlur stdDeviation="1"/>
<feColorMatrix type="matrix" values="0 0 0 0 0.0627451 0 0 0 0 0.0941176 0 0 0 0 0.156863 0 0 0 0.05 0"/>
<feBlend mode="normal" in2="BackgroundImageFix" result="effect1_dropShadow_6474_13735"/>
<feBlend mode="normal" in="SourceGraphic" in2="effect1_dropShadow_6474_13735" result="shape"/>
</filter>
<filter id="filter3_d_6474_13735" x="-2" y="119" width="64" height="64" filterUnits="userSpaceOnUse" color-interpolation-filters="sRGB">
<feFlood flood-opacity="0" result="BackgroundImageFix"/>
<feColorMatrix in="SourceAlpha" type="matrix" values="0 0 0 0 0 0 0 0 0 0 0 0 0 0 0 0 0 0 127 0" result="hardAlpha"/>
<feOffset dy="1"/>
<feGaussianBlur stdDeviation="1"/>
<feColorMatrix type="matrix" values="0 0 0 0 0.0627451 0 0 0 0 0.0941176 0 0 0 0 0.156863 0 0 0 0.05 0"/>
<feBlend mode="normal" in2="BackgroundImageFix" result="effect1_dropShadow_6474_13735"/>
<feBlend mode="normal" in="SourceGraphic" in2="effect1_dropShadow_6474_13735" result="shape"/>
</filter>
<linearGradient id="paint0_linear_6474_13735" x1="26.8923" y1="29.8139" x2="11.4197" y2="46.423" gradientUnits="userSpaceOnUse">
<stop stop-color="#0052CC"/>
<stop offset="0.923" stop-color="#2684FF"/>
</linearGradient>
<linearGradient id="paint1_linear_6474_13735" x1="158.87" y1="11.3182" x2="158.87" y2="42.2507" gradientUnits="userSpaceOnUse">
<stop stop-color="#0052CC"/>
<stop offset="1" stop-color="#2684FF"/>
</linearGradient>
<linearGradient id="paint2_linear_6474_13735" x1="158.763" y1="11.3183" x2="158.763" y2="42.2508" gradientUnits="userSpaceOnUse">
<stop stop-color="#0052CC"/>
<stop offset="1" stop-color="#2684FF"/>
</linearGradient>
<linearGradient id="paint3_linear_6474_13735" x1="299.865" y1="34.3568" x2="320.119" y2="37.8918" gradientUnits="userSpaceOnUse">
<stop stop-color="#0052CC"/>
<stop offset="1" stop-color="#2684FF"/>
</linearGradient>
<linearGradient id="paint4_linear_6474_13735" x1="453.449" y1="26.5922" x2="461.086" y2="44.0484" gradientUnits="userSpaceOnUse">
<stop stop-color="#0052CC"/>
<stop offset="1" stop-color="#2684FF"/>
</linearGradient>
<linearGradient id="paint5_linear_6474_13735" x1="590" y1="8.11274" x2="590" y2="35.0617" gradientUnits="userSpaceOnUse">
<stop stop-color="#2684FF"/>
<stop offset="0.82" stop-color="#0052CC"/>
</linearGradient>
<linearGradient id="paint6_linear_6474_13735" x1="582.456" y1="34.2462" x2="589.677" y2="53.5552" gradientUnits="userSpaceOnUse">
<stop stop-color="#2684FF"/>
<stop offset="0.62" stop-color="#0052CC"/>
</linearGradient>
<linearGradient id="paint7_linear_6474_13735" x1="718.87" y1="11.3185" x2="718.87" y2="42.2509" gradientUnits="userSpaceOnUse">
<stop stop-color="#0052CC"/>
<stop offset="1" stop-color="#2684FF"/>
</linearGradient>
<linearGradient id="paint8_linear_6474_13735" x1="718.763" y1="11.3183" x2="718.763" y2="42.2508" gradientUnits="userSpaceOnUse">
<stop stop-color="#0052CC"/>
<stop offset="1" stop-color="#2684FF"/>
</linearGradient>
<linearGradient id="paint9_linear_6474_13735" x1="155.086" y1="169.972" x2="200.344" y2="169.972" gradientUnits="userSpaceOnUse">
<stop stop-color="#163C27"/>
<stop offset="1" stop-color="#2A6043"/>
</linearGradient>
<linearGradient id="paint10_linear_6474_13735" x1="140" y1="150.172" x2="173.943" y2="150.172" gradientUnits="userSpaceOnUse">
<stop stop-color="#185A30"/>
<stop offset="1" stop-color="#176F3D"/>
</linearGradient>
<linearGradient id="paint11_linear_6474_13735" x1="295.086" y1="150.172" x2="326.201" y2="150.172" gradientUnits="userSpaceOnUse">
<stop stop-color="#8C42AC"/>
<stop offset="1" stop-color="#C36DEF"/>
</linearGradient>
<linearGradient id="paint12_linear_6474_13735" x1="280" y1="150.172" x2="315.829" y2="150.172" gradientUnits="userSpaceOnUse">
<stop stop-color="#44176C"/>
<stop offset="1" stop-color="#621F9C"/>
</linearGradient>
<linearGradient id="paint13_linear_6474_13735" x1="425.657" y1="153.813" x2="478.458" y2="153.813" gradientUnits="userSpaceOnUse">
<stop stop-color="#A73A24"/>
<stop offset="1" stop-color="#F75936"/>
</linearGradient>
<linearGradient id="paint14_linear_6474_13735" x1="479.401" y1="138.857" x2="453.943" y2="138.857" gradientUnits="userSpaceOnUse">
<stop stop-color="#FDB8A3"/>
<stop offset="1" stop-color="#F1876D"/>
</linearGradient>
<linearGradient id="paint15_linear_6474_13735" x1="420" y1="152.513" x2="453.943" y2="152.513" gradientUnits="userSpaceOnUse">
<stop stop-color="#A73A24"/>
<stop offset="1" stop-color="#F75936"/>
</linearGradient>
<linearGradient id="paint16_linear_6474_13735" x1="595.829" y1="145.904" x2="620.644" y2="162.119" gradientUnits="userSpaceOnUse">
<stop stop-color="#364088"/>
<stop offset="1" stop-color="#6E7EE1"/>
</linearGradient>
<linearGradient id="paint17_linear_6474_13735" x1="576.972" y1="156.591" x2="607.144" y2="156.591" gradientUnits="userSpaceOnUse">
<stop stop-color="#515FC4"/>
<stop offset="1" stop-color="#7084EA"/>
</linearGradient>
<linearGradient id="paint18_linear_6474_13735" x1="605.258" y1="130.024" x2="616.188" y2="137.716" gradientUnits="userSpaceOnUse">
<stop stop-color="#364088"/>
<stop offset="1" stop-color="#6E7EE1"/>
</linearGradient>
<linearGradient id="paint19_linear_6474_13735" x1="588.556" y1="125.927" x2="598.254" y2="137.241" gradientUnits="userSpaceOnUse">
<stop stop-color="#4858AE"/>
<stop offset="1" stop-color="#4E60CE"/>
</linearGradient>
<linearGradient id="paint20_linear_6474_13735" x1="585.323" y1="122.694" x2="597.446" y2="136.837" gradientUnits="userSpaceOnUse">
<stop stop-color="#4858AE"/>
<stop offset="1" stop-color="#4E60CE"/>
</linearGradient>
<linearGradient id="paint21_linear_6474_13735" x1="585.323" y1="122.694" x2="597.446" y2="136.837" gradientUnits="userSpaceOnUse">
<stop stop-color="#4858AE"/>
<stop offset="1" stop-color="#4E60CE"/>
</linearGradient>
<linearGradient id="paint22_linear_6474_13735" x1="560" y1="150.172" x2="593.943" y2="150.172" gradientUnits="userSpaceOnUse">
<stop stop-color="#2A3887"/>
<stop offset="1" stop-color="#4C56B9"/>
</linearGradient>
<linearGradient id="paint23_linear_6474_13735" x1="705.621" y1="153.597" x2="758.084" y2="153.597" gradientUnits="userSpaceOnUse">
<stop stop-color="#A73A24"/>
<stop offset="1" stop-color="#F75936"/>
</linearGradient>
<linearGradient id="paint24_linear_6474_13735" x1="759.021" y1="138.737" x2="733.727" y2="138.737" gradientUnits="userSpaceOnUse">
<stop stop-color="#FDB8A3"/>
<stop offset="1" stop-color="#F1876D"/>
</linearGradient>
<linearGradient id="paint25_linear_6474_13735" x1="700" y1="152.305" x2="733.726" y2="152.305" gradientUnits="userSpaceOnUse">
<stop stop-color="#A73A24"/>
<stop offset="1" stop-color="#F75936"/>
</linearGradient>
<linearGradient id="paint26_linear_6474_13735" x1="851.242" y1="141.547" x2="889.809" y2="141.547" gradientUnits="userSpaceOnUse">
<stop stop-color="#103A3B"/>
<stop offset="1" stop-color="#116B6E"/>
</linearGradient>
<linearGradient id="paint27_linear_6474_13735" x1="873.726" y1="144.358" x2="899.957" y2="159.347" gradientUnits="userSpaceOnUse">
<stop stop-color="#1D9097"/>
<stop offset="1" stop-color="#29BBC2"/>
</linearGradient>
<linearGradient id="paint28_linear_6474_13735" x1="862.485" y1="160.284" x2="883.095" y2="169.653" gradientUnits="userSpaceOnUse">
<stop stop-color="#28A6B5"/>
<stop offset="1" stop-color="#31D6EC"/>
</linearGradient>
<linearGradient id="paint29_linear_6474_13735" x1="840" y1="149.979" x2="876.537" y2="149.979" gradientUnits="userSpaceOnUse">
<stop stop-color="#105557"/>
<stop offset="1" stop-color="#116B6E"/>
</linearGradient>
<linearGradient id="paint30_linear_6474_13735" x1="843.75" y1="296.25" x2="896.25" y2="243.75" gradientUnits="userSpaceOnUse">
<stop stop-color="#29359B"/>
<stop offset="1" stop-color="#6068CA"/>
</linearGradient>
<radialGradient id="paint31_radial_6474_13735" cx="0" cy="0" r="1" gradientUnits="userSpaceOnUse" gradientTransform="translate(30 392.443) scale(34.7882)">
<stop stop-color="#FFB900"/>
<stop offset="0.6" stop-color="#F95D8F"/>
<stop offset="0.9991" stop-color="#F95353"/>
</radialGradient>
<linearGradient id="paint32_linear_6474_13735" x1="870.014" y1="412.5" x2="870.014" y2="367.5" gradientUnits="userSpaceOnUse">
<stop stop-color="#0052CC"/>
<stop offset="0.51698" stop-color="#217EF8"/>
<stop offset="1" stop-color="#2684FF"/>
</linearGradient>
<clipPath id="clip0_6474_13735">
<rect width="60" height="60" fill="white" transform="translate(140 120)"/>
</clipPath>
<clipPath id="clip1_6474_13735">
<rect width="60" height="60" fill="white" transform="translate(280 120)"/>
</clipPath>
<clipPath id="clip2_6474_13735">
<rect width="60" height="60" fill="white" transform="translate(560 120)"/>
</clipPath>
</defs>
</svg>
