<svg width="30" height="30" viewBox="0 0 44 44" fill="none" xmlns="http://www.w3.org/2000/svg">
<path d="M23.8516 5.35342L34.6683 10.1568C37.785 11.5318 37.785 13.8051 34.6683 15.1801L23.8516 19.9834C22.6233 20.5334 20.6066 20.5334 19.3783 19.9834L8.56162 15.1801C5.44495 13.8051 5.44495 11.5318 8.56162 10.1568L19.3783 5.35342C20.6066 4.80342 22.6233 4.80342 23.8516 5.35342Z" stroke="#0F67EB" stroke-width="3" stroke-linecap="round" stroke-linejoin="round"/>
<path d="M5.5 20.1665C5.5 21.7065 6.655 23.4848 8.06667 24.1082L20.515 29.6448C21.4683 30.0665 22.55 30.0665 23.485 29.6448L35.9333 24.1082C37.345 23.4848 38.5 21.7065 38.5 20.1665" stroke="#0F67EB" stroke-width="3" stroke-linecap="round" stroke-linejoin="round"/>
<path d="M5.5 29.3335C5.5 31.0385 6.50833 32.5785 8.06667 33.2752L20.515 38.8118C21.4683 39.2335 22.55 39.2335 23.485 38.8118L35.9333 33.2752C37.4917 32.5785 38.5 31.0385 38.5 29.3335" stroke="#0F67EB" stroke-width="3" stroke-linecap="round" stroke-linejoin="round"/>
</svg>
