<svg width="30" height="30" viewBox="0 0 30 30" fill="none" xmlns="http://www.w3.org/2000/svg">
<path d="M16.2624 3.6499L23.6374 6.9249C25.7624 7.8624 25.7624 9.4124 23.6374 10.3499L16.2624 13.6249C15.4249 13.9999 14.0499 13.9999 13.2124 13.6249L5.8374 10.3499C3.7124 9.4124 3.7124 7.8624 5.8374 6.9249L13.2124 3.6499C14.0499 3.2749 15.4249 3.2749 16.2624 3.6499Z" stroke="#0F67EB" stroke-width="1.5" stroke-linecap="round" stroke-linejoin="round"/>
<path d="M3.75 13.75C3.75 14.8 4.5375 16.0125 5.5 16.4375L13.9875 20.2125C14.6375 20.5 15.375 20.5 16.0125 20.2125L24.5 16.4375C25.4625 16.0125 26.25 14.8 26.25 13.75" stroke="#0F67EB" stroke-width="1.5" stroke-linecap="round" stroke-linejoin="round"/>
<path d="M3.75 20C3.75 21.1625 4.4375 22.2125 5.5 22.6875L13.9875 26.4625C14.6375 26.75 15.375 26.75 16.0125 26.4625L24.5 22.6875C25.5625 22.2125 26.25 21.1625 26.25 20" stroke="#0F67EB" stroke-width="1.5" stroke-linecap="round" stroke-linejoin="round"/>
</svg>
