<svg width="60" height="60" viewBox="0 0 60 60" fill="none" xmlns="http://www.w3.org/2000/svg">
<path d="M46.1504 0C53.2907 7.90393e-05 59.0771 6.0273 59.0771 13.4648V37.1084C59.0771 44.5459 53.2907 50.5761 46.1504 50.5762H42.6436C40.7661 50.5763 38.9652 51.3515 37.6367 52.7354L32.9678 57.5947C31.074 59.5705 28.0054 59.5705 26.1084 57.5947L21.4434 52.7354C20.115 51.3515 18.3141 50.5763 16.4365 50.5762H12.9297C5.78944 50.5761 0 44.5459 0 37.1084V13.4648C3.43641e-05 6.02731 5.78946 9.47696e-05 12.9297 0H46.1504ZM19.3662 25.7764C18.7086 24.693 17.3241 24.2626 16.1553 24.8193C14.9868 25.376 14.4485 26.7219 14.875 27.915L14.9736 28.1514L15.2178 28.6387C17.832 33.6276 23.325 36.9608 29.5361 36.9609C35.9504 36.9609 41.5978 33.4099 44.1025 28.1514C44.6962 26.9049 44.1674 25.4131 42.9209 24.8193C41.6744 24.2257 40.1826 24.7546 39.5889 26.001C37.9605 29.4199 34.134 31.9609 29.5361 31.9609C25.0858 31.9608 21.356 29.5769 19.6465 26.3193L19.4873 26.001L19.3662 25.7764Z" fill="#0F67EB"/>
</svg>
