<svg width="48" height="48" viewBox="0 0 48 48" fill="none" xmlns="http://www.w3.org/2000/svg">
<path d="M21.4273 45.042L17.9282 41.3973C16.9319 40.3593 15.5811 39.7782 14.1728 39.7782H11.5431C6.18785 39.7782 1.8457 35.2551 1.8457 29.677V11.9444C1.8457 6.36617 6.18785 1.8457 11.5431 1.8457H36.4584C41.8137 1.8457 46.1534 6.36617 46.1534 11.9444V29.677C46.1534 35.2551 41.8137 39.7782 36.4584 39.7782H33.8287C32.4205 39.7782 31.0696 40.3593 30.0732 41.3973L26.5719 45.042C25.1516 46.5239 22.85 46.5239 21.4273 45.042Z" fill="#0F67EB"/>
<path d="M14.7695 22.1543C16.3195 25.4084 19.8719 27.6928 23.999 27.6928C28.1286 27.6928 31.6812 25.4084 33.2311 22.1543" stroke="white" stroke-width="4" stroke-linecap="round" stroke-linejoin="round"/>
</svg>
