<svg width="122" height="48" viewBox="0 0 122 48" fill="none" xmlns="http://www.w3.org/2000/svg">
<g clip-path="url(#clip0_6017_2739)">
<path d="M38.1255 32.4264L39.5936 28.9949C41.2011 30.1853 43.2977 30.8154 45.3949 30.8154C46.9327 30.8154 47.9111 30.2204 47.9111 29.3102C47.876 26.789 38.6498 28.7498 38.5796 22.4112C38.5445 19.1897 41.4106 16.7036 45.4651 16.7036C47.876 16.7036 50.288 17.2991 52.0002 18.6649L50.6283 22.1696C49.0529 21.1566 47.1071 20.4503 45.2551 20.4503C43.997 20.4503 43.1579 21.0453 43.1579 21.8162C43.193 24.3023 52.4899 22.9365 52.5947 28.9949C52.5947 32.2865 49.7983 34.5977 45.8139 34.5977C42.8787 34.5977 40.1876 33.8975 38.125 32.4264H38.1255ZM96.5835 27.7523C96.213 28.4108 95.6739 28.9588 95.0217 29.3402C94.3694 29.7216 93.6275 29.9226 92.8719 29.9227C90.5171 29.9227 88.6084 28.01 88.6084 25.6507C88.6084 23.2913 90.5171 21.3786 92.8719 21.3786C93.6275 21.3787 94.3694 21.5797 95.0217 21.9611C95.6739 22.3425 96.213 22.8905 96.5835 23.549L100.665 21.2834C99.1363 18.5512 96.2201 16.7036 92.8719 16.7036C87.9402 16.7036 83.9424 20.709 83.9424 25.6507C83.9424 30.5918 87.9402 34.5977 92.8719 34.5977C96.2201 34.5977 99.1363 32.7502 100.665 30.0179L96.5835 27.7523ZM55.2432 34.2473H60.3458V9.25576H55.2437L55.2432 34.2473ZM103.242 9.25576V34.2473H108.345V26.7599L114.391 34.2473H120.913L113.224 25.3524L120.354 17.0525H114.111L108.345 23.953V9.25576H103.242ZM76.066 17.0535V19.085C75.2274 17.684 73.1653 16.7036 70.9985 16.7036C66.525 16.7036 62.9953 20.6609 62.9953 25.6331C62.9953 30.6054 66.525 34.5977 70.9985 34.5977C73.1653 34.5977 75.2274 33.6173 76.066 32.2163V34.2473H81.1686V17.0535H76.066ZM76.066 27.7869C75.3322 29.0124 73.7944 29.9222 72.0822 29.9222C69.7269 29.9222 67.8182 28.01 67.8182 25.6507C67.8182 23.2913 69.7269 21.3786 72.0822 21.3786C73.7944 21.3786 75.3322 22.324 76.066 23.5841V27.7869Z" fill="#0F67EB"/>
<path d="M11.1782 8.70312C9.52467 8.70312 8.18437 10.0464 8.18437 11.703C8.18397 12.0966 8.2611 12.4864 8.41134 12.8501C8.56158 13.2139 8.782 13.5444 9.06001 13.823C9.33801 14.1016 9.66817 14.3227 10.0316 14.4736C10.3951 14.6246 10.7847 14.7025 11.1782 14.7029H14.1726V11.703C14.1733 10.9081 13.8582 10.1456 13.2967 9.58299C12.7351 9.02041 11.9731 8.70392 11.1782 8.70312ZM11.1782 16.7028H3.19407C1.5405 16.7028 0.200195 18.0461 0.200195 19.7032C0.200195 21.3598 1.5405 22.7031 3.19407 22.7031H11.1787C12.8318 22.7031 14.1726 21.3598 14.1726 19.7032C14.1726 18.0461 12.8318 16.7028 11.1782 16.7028Z" fill="#0F67EB"/>
<path d="M30.1414 19.7032C30.1414 18.0461 28.8006 16.7028 27.147 16.7028C25.4934 16.7028 24.1531 18.0461 24.1531 19.7032V22.7031H27.147C27.9419 22.7023 28.7039 22.3858 29.2654 21.8233C29.827 21.2607 30.142 20.4981 30.1414 19.7032ZM22.1572 19.7032V11.703C22.1579 10.9081 21.8428 10.1456 21.2812 9.58299C20.7197 9.02041 19.9577 8.70392 19.1628 8.70312C17.5092 8.70312 16.1689 10.0464 16.1689 11.703V19.7027C16.1689 21.3603 17.5092 22.7036 19.1628 22.7036C19.9577 22.7028 20.7197 22.3863 21.2812 21.8238C21.8428 21.2612 22.1579 20.4986 22.1572 19.7037" fill="#0F67EB"/>
<path d="M19.1628 38.7031C19.9577 38.7023 20.7197 38.3858 21.2812 37.8233C21.8428 37.2607 22.1579 36.4981 22.1572 35.7032C22.1579 34.9084 21.8428 34.1458 21.2812 33.5832C20.7197 33.0206 19.9577 32.7041 19.1628 32.7033H16.1689V35.7032C16.1689 37.3598 17.5092 38.7031 19.1628 38.7031ZM19.1628 30.7034H27.1475C28.8006 30.7034 30.1414 29.3601 30.1414 27.703C30.142 26.9081 29.827 26.1456 29.2654 25.583C28.7039 25.0204 27.9419 24.7039 27.147 24.7031H19.1628C17.5092 24.7031 16.1689 26.0464 16.1689 27.703C16.1686 28.0966 16.2457 28.4864 16.3959 28.8501C16.5462 29.2139 16.7666 29.5444 17.0446 29.823C17.3226 30.1016 17.6527 30.3227 18.0162 30.4736C18.3796 30.6246 18.7693 30.7025 19.1628 30.7029" fill="#0F67EB"/>
<path d="M0.200197 27.703C0.199802 28.0966 0.276927 28.4864 0.42717 28.8501C0.577412 29.2139 0.79783 29.5444 1.07584 29.823C1.35384 30.1016 1.684 30.3227 2.04744 30.4736C2.41089 30.6246 2.80052 30.7025 3.19407 30.7029C3.98894 30.7021 4.75095 30.3856 5.31249 29.823C5.87403 29.2605 6.18912 28.4979 6.18845 27.703V24.7031H3.19407C1.5405 24.7031 0.200197 26.0464 0.200197 27.703ZM8.18437 27.703V35.7027C8.18437 37.3598 9.52467 38.7031 11.1782 38.7031C11.9731 38.7023 12.7351 38.3858 13.2967 37.8233C13.8582 37.2607 14.1733 36.4981 14.1726 35.7032V27.703C14.173 27.3094 14.0959 26.9196 13.9456 26.5558C13.7953 26.192 13.5749 25.8614 13.2968 25.5828C13.0187 25.3043 12.6885 25.0832 12.325 24.9323C11.9615 24.7813 11.5718 24.7035 11.1782 24.7031C9.52467 24.7031 8.18437 26.0464 8.18437 27.703Z" fill="#0F67EB"/>
</g>
<defs>
<clipPath id="clip0_6017_2739">
<rect width="121" height="48" fill="white" transform="translate(0.200195)"/>
</clipPath>
</defs>
</svg>
