<svg width="200" height="32" viewBox="0 0 200 32" fill="none" xmlns="http://www.w3.org/2000/svg">
<circle cx="16" cy="16" r="14" fill="url(#paint0_linear_6030_2997)"/>
<path d="M21.2137 20.2816L21.8356 16.3301H17.9452V13.767C17.9452 12.6857 18.4877 11.6311 20.2302 11.6311H22V8.26699C22 8.26699 20.3945 8 18.8603 8C15.6548 8 13.5617 9.89294 13.5617 13.3184V16.3301H10V20.2816H13.5617V29.8345C14.2767 29.944 15.0082 30 15.7534 30C16.4986 30 17.2302 29.944 17.9452 29.8345V20.2816H21.2137Z" fill="white"/>
<circle cx="58" cy="16" r="14" fill="url(#paint1_linear_6030_2997)"/>
<path d="M64.9866 10.2088C65.1112 9.40332 64.3454 8.76755 63.6292 9.082L49.3648 15.3448C48.8512 15.5703 48.8888 16.3483 49.4215 16.5179L52.3631 17.4547C52.9246 17.6335 53.5325 17.541 54.0228 17.2023L60.655 12.6203C60.855 12.4821 61.073 12.7665 60.9021 12.9426L56.1281 17.8646C55.665 18.3421 55.7569 19.1512 56.314 19.5005L61.659 22.8523C62.2585 23.2282 63.0297 22.8506 63.1418 22.1261L64.9866 10.2088Z" fill="white"/>
<rect x="86" y="2" width="28" height="28" rx="14" fill="#1275B1"/>
<path d="M96.6186 9.69215C96.6186 10.6267 95.8085 11.3843 94.8093 11.3843C93.81 11.3843 93 10.6267 93 9.69215C93 8.7576 93.81 8 94.8093 8C95.8085 8 96.6186 8.7576 96.6186 9.69215Z" fill="white"/>
<path d="M93.2474 12.6281H96.3402V22H93.2474V12.6281Z" fill="white"/>
<path d="M101.32 12.6281H98.2268V22H101.32C101.32 22 101.32 19.0496 101.32 17.2049C101.32 16.0976 101.698 14.9855 103.206 14.9855C104.911 14.9855 104.901 16.4345 104.893 17.5571C104.882 19.0244 104.907 20.5219 104.907 22H108V17.0537C107.974 13.8954 107.151 12.4401 104.443 12.4401C102.835 12.4401 101.839 13.1701 101.32 13.8305V12.6281Z" fill="white"/>
<rect x="128" y="2" width="28" height="28" rx="6" fill="url(#paint2_radial_6030_2997)"/>
<rect x="128" y="2" width="28" height="28" rx="6" fill="url(#paint3_radial_6030_2997)"/>
<rect x="128" y="2" width="28" height="28" rx="6" fill="url(#paint4_radial_6030_2997)"/>
<path d="M149 10.5C149 11.3284 148.328 12 147.5 12C146.672 12 146 11.3284 146 10.5C146 9.67157 146.672 9 147.5 9C148.328 9 149 9.67157 149 10.5Z" fill="white"/>
<path fill-rule="evenodd" clip-rule="evenodd" d="M142 21C144.761 21 147 18.7614 147 16C147 13.2386 144.761 11 142 11C139.239 11 137 13.2386 137 16C137 18.7614 139.239 21 142 21ZM142 19C143.657 19 145 17.6569 145 16C145 14.3431 143.657 13 142 13C140.343 13 139 14.3431 139 16C139 17.6569 140.343 19 142 19Z" fill="white"/>
<path fill-rule="evenodd" clip-rule="evenodd" d="M132 15.6C132 12.2397 132 10.5595 132.654 9.27606C133.229 8.14708 134.147 7.2292 135.276 6.65396C136.56 6 138.24 6 141.6 6H142.4C145.76 6 147.44 6 148.724 6.65396C149.853 7.2292 150.771 8.14708 151.346 9.27606C152 10.5595 152 12.2397 152 15.6V16.4C152 19.7603 152 21.4405 151.346 22.7239C150.771 23.8529 149.853 24.7708 148.724 25.346C147.44 26 145.76 26 142.4 26H141.6C138.24 26 136.56 26 135.276 25.346C134.147 24.7708 133.229 23.8529 132.654 22.7239C132 21.4405 132 19.7603 132 16.4V15.6ZM141.6 8H142.4C144.113 8 145.278 8.00156 146.178 8.0751C147.055 8.14674 147.503 8.27659 147.816 8.43597C148.569 8.81947 149.181 9.43139 149.564 10.184C149.723 10.4968 149.853 10.9452 149.925 11.8221C149.998 12.7223 150 13.8868 150 15.6V16.4C150 18.1132 149.998 19.2777 149.925 20.1779C149.853 21.0548 149.723 21.5032 149.564 21.816C149.181 22.5686 148.569 23.1805 147.816 23.564C147.503 23.7234 147.055 23.8533 146.178 23.9249C145.278 23.9984 144.113 24 142.4 24H141.6C139.887 24 138.722 23.9984 137.822 23.9249C136.945 23.8533 136.497 23.7234 136.184 23.564C135.431 23.1805 134.819 22.5686 134.436 21.816C134.277 21.5032 134.147 21.0548 134.075 20.1779C134.002 19.2777 134 18.1132 134 16.4V15.6C134 13.8868 134.002 12.7223 134.075 11.8221C134.147 10.9452 134.277 10.4968 134.436 10.184C134.819 9.43139 135.431 8.81947 136.184 8.43597C136.497 8.27659 136.945 8.14674 137.822 8.0751C138.722 8.00156 139.887 8 141.6 8Z" fill="white"/>
<circle cx="184" cy="16" r="14" fill="white"/>
<path d="M184 30C191.732 30 198 23.732 198 16C198 8.26801 191.732 2 184 2C176.268 2 170 8.26801 170 16C170 21.6801 173.383 26.5702 178.243 28.7655C178.25 28.6141 178.257 28.4752 178.264 28.3561C178.272 28.1938 178.279 28.0682 178.279 27.9976C178.279 27.5769 178.565 25.4904 178.565 25.4904L180.315 18.3053C180.046 17.8678 179.844 16.9423 179.844 16.2356C179.844 12.9711 181.661 12.2644 182.772 12.2644C184.185 12.2644 184.505 13.7957 184.505 14.9231C184.505 15.5194 184.195 16.4528 183.877 17.4134C183.54 18.4314 183.192 19.4799 183.192 20.1899C183.192 21.5697 184.555 22.2596 185.498 22.2596C187.988 22.2596 190.276 19.1298 190.276 16C190.276 12.8702 188.813 9.08412 184.017 9.08412C179.221 9.08412 177.067 12.7356 177.067 15.5288C177.067 17.4134 177.774 18.7933 178.127 19.0288C178.228 19.1186 178.4 19.3957 178.279 19.786C178.158 20.1764 177.937 21.0481 177.841 21.4351C177.83 21.5248 177.724 21.6774 177.387 21.5697C176.966 21.4351 174.291 19.7524 174.291 15.5288C174.291 11.3053 177.606 6.39182 184.017 6.39182C190.428 6.39182 193.709 10.6995 193.709 16C193.709 21.3005 189.418 24.6827 186.154 24.6827C183.542 24.6827 182.519 23.516 182.334 22.9327L181.341 26.7187C181.107 27.3468 180.67 28.4757 180.13 29.4583C181.359 29.8111 182.658 30 184 30Z" fill="#BB0F23"/>
<defs>
<linearGradient id="paint0_linear_6030_2997" x1="16" y1="2" x2="16" y2="29.917" gradientUnits="userSpaceOnUse">
<stop stop-color="#18ACFE"/>
<stop offset="1" stop-color="#0163E0"/>
</linearGradient>
<linearGradient id="paint1_linear_6030_2997" x1="58" y1="2" x2="58" y2="30" gradientUnits="userSpaceOnUse">
<stop stop-color="#37BBFE"/>
<stop offset="1" stop-color="#007DBB"/>
</linearGradient>
<radialGradient id="paint2_radial_6030_2997" cx="0" cy="0" r="1" gradientUnits="userSpaceOnUse" gradientTransform="translate(138 23) rotate(-55.3758) scale(25.5196)">
<stop stop-color="#B13589"/>
<stop offset="0.79309" stop-color="#C62F94"/>
<stop offset="1" stop-color="#8A3AC8"/>
</radialGradient>
<radialGradient id="paint3_radial_6030_2997" cx="0" cy="0" r="1" gradientUnits="userSpaceOnUse" gradientTransform="translate(137 31) rotate(-65.1363) scale(22.5942)">
<stop stop-color="#E0E8B7"/>
<stop offset="0.444662" stop-color="#FB8A2E"/>
<stop offset="0.71474" stop-color="#E2425C"/>
<stop offset="1" stop-color="#E2425C" stop-opacity="0"/>
</radialGradient>
<radialGradient id="paint4_radial_6030_2997" cx="0" cy="0" r="1" gradientUnits="userSpaceOnUse" gradientTransform="translate(126.5 3) rotate(-8.1301) scale(38.8909 8.31836)">
<stop offset="0.156701" stop-color="#406ADC"/>
<stop offset="0.467799" stop-color="#6A45BE"/>
<stop offset="1" stop-color="#6A45BE" stop-opacity="0"/>
</radialGradient>
</defs>
</svg>
