<svg width="554" height="524" viewBox="0 0 554 524" fill="none" xmlns="http://www.w3.org/2000/svg">
    <circle cx="284" cy="274" r="149" stroke="#BDCFF5" stroke-width="2" stroke-dasharray="8 8">
        <animate attributeName="stroke-dashoffset" from="0" to="50" dur="1s" repeatCount="indefinite"/>
    </circle>
    <g filter="url(#filter0_d_6119_1253)">
        <circle cx="284" cy="274" r="100" fill="white"/>
        <circle cx="284" cy="274" r="98" stroke="url(#paint0_linear_6119_1253)" stroke-width="4"/>
    </g>
    <circle cx="284" cy="274" r="199" stroke="#BDCFF5" stroke-width="2" stroke-dasharray="8 8">
        <animate attributeName="stroke-dashoffset" from="0" to="-50" dur="1s" repeatCount="indefinite"/>
    </circle>
    <circle cx="284" cy="274" r="249" stroke="#BDCFF5" stroke-width="2" stroke-dasharray="8 8">
        <animate attributeName="stroke-dashoffset" from="0" to="50" dur="1s" repeatCount="indefinite"/>
    </circle>
    <path d="M278.319 320.469L270.592 312.42C268.391 310.128 265.408 308.845 262.299 308.845H256.491C244.665 308.845 235.076 298.856 235.076 286.538V247.378C235.076 235.06 244.665 225.077 256.491 225.077H311.513C323.339 225.077 332.922 235.06 332.922 247.378V286.538C332.922 298.856 323.339 308.845 311.513 308.845H305.705C302.595 308.845 299.612 310.128 297.412 312.42L289.68 320.469C286.543 323.741 281.461 323.741 278.319 320.469Z"
          fill="#0F67EB"/>
    <path d="M263.615 269.923C267.038 277.109 274.883 282.154 283.997 282.154C293.117 282.154 300.962 277.109 304.384 269.923"
          stroke="white" stroke-width="7" stroke-linecap="round" stroke-linejoin="round"/>
    <g filter="url(#filter1_d_6119_1253)">
        <rect x="402" y="105" width="64" height="64" rx="32" fill="white" shape-rendering="crispEdges"/>
        <circle cx="434" cy="137" r="14" fill="url(#paint1_linear_6119_1253)"/>
        <path d="M439.214 141.282L439.836 137.33H435.945V134.767C435.945 133.686 436.488 132.631 438.23 132.631H440V129.267C440 129.267 438.395 129 436.86 129C433.655 129 431.562 130.893 431.562 134.318V137.33H428V141.282H431.562V150.834C432.277 150.944 433.008 151 433.753 151C434.499 151 435.23 150.944 435.945 150.834V141.282H439.214Z"
              fill="white"/>
    </g>
    <g filter="url(#filter2_d_6119_1253)">
        <rect x="152" y="410" width="64" height="64" rx="32" fill="white" shape-rendering="crispEdges"/>
        <path d="M176.451 445.793C176.607 444.499 177.138 443.774 178.138 443.032C179.569 442.026 181.356 442.595 181.356 442.595V439.22C181.791 439.209 182.225 439.234 182.655 439.297V443.64C182.655 443.64 180.868 443.071 179.437 444.077C178.438 444.82 177.906 445.545 177.751 446.838C177.746 447.541 177.877 448.459 178.485 449.254C178.335 449.177 178.182 449.089 178.026 448.99C176.688 448.092 176.444 446.745 176.451 445.793ZM190.035 432.979C189.051 431.9 188.679 430.811 188.544 430.046H189.782C189.782 430.046 189.535 432.052 191.335 434.025L191.36 434.051C190.875 433.746 190.43 433.386 190.035 432.979ZM196 436.037V440.293C196 440.293 194.42 440.231 193.251 439.934C191.618 439.518 190.569 438.88 190.569 438.88C190.569 438.88 189.844 438.424 189.785 438.393V447.182C189.785 447.671 189.651 448.893 189.242 449.913C188.709 451.246 187.886 452.121 187.734 452.3C187.734 452.3 186.733 453.483 184.967 454.28C183.375 454.999 181.977 454.98 181.56 454.999C181.56 454.999 179.143 455.094 176.969 453.681C176.499 453.37 176.06 453.017 175.658 452.628L175.669 452.636C177.844 454.049 180.26 453.953 180.26 453.953C180.678 453.935 182.076 453.953 183.667 453.234C185.432 452.437 186.434 451.254 186.434 451.254C186.584 451.075 187.411 450.2 187.942 448.866C188.35 447.847 188.485 446.625 188.485 446.135V437.347C188.544 437.38 189.268 437.835 189.268 437.835C189.268 437.835 190.318 438.473 191.951 438.889C193.12 439.186 194.7 439.248 194.7 439.248V435.913C195.24 436.034 195.701 436.067 196 436.037Z"
              fill="#EE1D52"/>
        <path d="M194.7 435.913V439.247C194.7 439.247 193.121 439.185 191.951 438.888C190.318 438.472 189.268 437.834 189.268 437.834C189.268 437.834 188.544 437.379 188.485 437.346V446.136C188.485 446.626 188.351 447.848 187.943 448.867C187.409 450.201 186.586 451.076 186.435 451.255C186.435 451.255 185.433 452.438 183.668 453.235C182.076 453.954 180.678 453.936 180.26 453.954C180.26 453.954 177.844 454.05 175.669 452.637L175.659 452.629C175.429 452.406 175.213 452.172 175.011 451.926C174.317 451.08 173.892 450.079 173.785 449.793C173.785 449.792 173.785 449.791 173.785 449.79C173.613 449.294 173.252 448.102 173.301 446.948C173.388 444.912 174.105 443.662 174.294 443.349C174.795 442.496 175.448 441.732 176.222 441.092C176.905 440.54 177.679 440.1 178.513 439.792C179.414 439.429 180.379 439.235 181.356 439.22V442.595C181.356 442.595 179.569 442.028 178.138 443.032C177.138 443.774 176.608 444.499 176.451 445.793C176.445 446.745 176.688 448.092 178.025 448.991C178.181 449.09 178.334 449.178 178.484 449.254C178.717 449.558 179.002 449.822 179.325 450.037C180.631 450.863 181.724 450.921 183.123 450.384C184.056 450.025 184.758 449.217 185.084 448.321C185.288 447.761 185.286 447.198 185.286 446.615V430.046H188.541C188.676 430.811 189.048 431.9 190.032 432.979C190.427 433.386 190.872 433.746 191.357 434.051C191.5 434.2 192.233 434.932 193.173 435.382C193.659 435.615 194.172 435.793 194.7 435.913Z"
              fill="black"/>
        <path d="M172.489 448.757V448.759L172.57 448.978C172.561 448.953 172.531 448.875 172.489 448.757Z"
              fill="#69C9D0"/>
        <path d="M178.513 439.792C177.679 440.1 176.905 440.54 176.222 441.092C175.448 441.733 174.795 442.499 174.295 443.354C174.105 443.666 173.389 444.917 173.302 446.953C173.252 448.107 173.614 449.298 173.786 449.794C173.785 449.796 173.785 449.797 173.786 449.798C173.894 450.081 174.318 451.082 175.012 451.93C175.213 452.176 175.43 452.411 175.659 452.633C174.924 452.146 174.267 451.556 173.712 450.884C173.024 450.045 172.6 449.055 172.489 448.763C172.489 448.761 172.489 448.758 172.489 448.756V448.753C172.317 448.257 171.954 447.065 172.005 445.91C172.092 443.874 172.808 442.624 172.998 442.311C173.499 441.455 174.151 440.69 174.925 440.049C175.608 439.496 176.382 439.057 177.216 438.748C177.736 438.542 178.278 438.389 178.832 438.293C179.667 438.154 180.52 438.142 181.359 438.257V439.22C180.381 439.235 179.415 439.429 178.513 439.792Z"
              fill="#69C9D0"/>
        <path d="M188.544 430.046H185.288V446.616C185.288 447.198 185.288 447.76 185.086 448.321C184.757 449.217 184.058 450.025 183.126 450.384C181.726 450.923 180.633 450.863 179.328 450.037C179.004 449.823 178.719 449.559 178.484 449.257C179.596 449.825 180.591 449.815 181.824 449.341C182.756 448.982 183.456 448.173 183.784 447.277C183.989 446.718 183.986 446.155 183.986 445.573V429H188.482C188.482 429 188.431 429.412 188.544 430.046ZM194.7 434.991V435.913C194.172 435.793 193.661 435.614 193.175 435.382C192.235 434.932 191.503 434.2 191.359 434.051C191.526 434.156 191.698 434.251 191.876 434.336C193.019 434.883 194.145 435.047 194.7 434.991Z"
              fill="#69C9D0"/>
    </g>
    <g filter="url(#filter3_d_6119_1253)">
        <rect x="216" y="92" width="64" height="64" rx="32" fill="white" shape-rendering="crispEdges"/>
        <path d="M243.789 136C240.554 136 237.538 135.059 235 133.436C237.155 133.575 240.958 133.241 243.324 130.985C239.765 130.822 238.16 128.092 237.951 126.926C238.253 127.043 239.695 127.183 240.509 126.856C236.416 125.83 235.788 122.237 235.927 121.141C236.695 121.677 237.997 121.864 238.509 121.817C234.695 119.088 236.067 114.983 236.742 114.096C239.479 117.889 243.581 120.019 248.656 120.137C248.561 119.717 248.51 119.28 248.51 118.832C248.51 115.611 251.113 113 254.325 113C256.003 113 257.514 113.713 258.576 114.853C259.697 114.59 261.384 113.975 262.209 113.443C261.793 114.936 260.499 116.181 259.716 116.643C259.71 116.627 259.722 116.659 259.716 116.643C260.404 116.539 262.265 116.181 263 115.683C262.636 116.521 261.264 117.916 260.138 118.696C260.347 127.938 253.276 136 243.789 136Z"
              fill="#47ACDF"/>
    </g>
    <g filter="url(#filter4_d_6119_1253)">
        <rect x="20" y="310" width="64" height="64" rx="32" fill="white" shape-rendering="crispEdges"/>
        <circle cx="52" cy="342" r="14" fill="white"/>
        <path d="M52 356C59.732 356 66 349.732 66 342C66 334.268 59.732 328 52 328C44.268 328 38 334.268 38 342C38 347.68 41.3827 352.57 46.2435 354.766C46.25 354.614 46.2573 354.475 46.2636 354.356C46.2722 354.194 46.2788 354.068 46.2788 353.998C46.2788 353.577 46.5649 351.49 46.5649 351.49L48.3149 344.305C48.0457 343.868 47.8438 342.942 47.8438 342.236C47.8438 338.971 49.6611 338.264 50.7716 338.264C52.1851 338.264 52.5048 339.796 52.5048 340.923C52.5048 341.519 52.1955 342.453 51.8772 343.413C51.5398 344.431 51.1923 345.48 51.1923 346.19C51.1923 347.57 52.5553 348.26 53.4976 348.26C55.988 348.26 58.2764 345.13 58.2764 342C58.2764 338.87 56.8125 335.084 52.0168 335.084C47.2212 335.084 45.0673 338.736 45.0673 341.529C45.0673 343.413 45.774 344.793 46.1274 345.029C46.2284 345.119 46.4 345.396 46.2788 345.786C46.1577 346.176 45.9367 347.048 45.8413 347.435C45.8301 347.525 45.7236 347.677 45.387 347.57C44.9663 347.435 42.2909 345.752 42.2909 341.529C42.2909 337.305 45.6058 332.392 52.0168 332.392C58.4279 332.392 61.7091 336.7 61.7091 342C61.7091 347.3 57.4183 350.683 54.1538 350.683C51.5423 350.683 50.5192 349.516 50.3341 348.933L49.3413 352.719C49.1069 353.347 48.6696 354.476 48.1304 355.458C49.3594 355.811 50.6576 356 52 356Z"
              fill="#BB0F23"/>
    </g>
    <g filter="url(#filter5_d_6119_1253)">
        <rect x="470" y="382" width="64" height="64" rx="32" fill="white" shape-rendering="crispEdges"/>
        <path fill-rule="evenodd" clip-rule="evenodd"
              d="M504.875 425.539C503.801 425.839 502.669 426 501.5 426C494.596 426 489 420.404 489 413.5C489 406.596 494.596 401 501.5 401C508.404 401 514 406.596 514 413.5C514 417.444 512.173 420.962 509.32 423.252C510.106 424.245 511.018 425.013 512.015 425.013C513.659 425.013 514.154 423.69 514.196 423.028H516C516 426.531 513.905 428.879 510.462 428.991C509.248 429.03 507.215 429.096 504.875 425.539ZM503.775 423.626C503.115 423.87 502.361 424 501.5 424C496.329 424 495 419.299 495 413.5C495 407.701 496.33 403 501.5 403C506.67 403 508 407.701 508 413.5C508 415.854 507.781 418.026 507.175 419.777C506.196 418.054 504.65 416 501.801 416C499.429 416 497.612 416.971 497 417.457L497.753 418.962C497.962 418.892 498.491 418.754 498.93 418.754C499.479 418.754 501.424 418.577 503.307 422.66C503.464 423 503.62 423.321 503.775 423.626Z"
              fill="#B72D2C"/>
    </g>
    <g filter="url(#filter6_d_6119_1253)">
        <rect x="331" y="417" width="64" height="64" rx="32" fill="white" shape-rendering="crispEdges"/>
        <circle cx="363" cy="449" r="14" fill="#FFFA37"/>
        <path fill-rule="evenodd" clip-rule="evenodd"
              d="M368.026 441.186C367.06 439.969 365.467 439 363.012 439C360.909 439.021 356.704 440.184 356.704 444.674C356.704 445.329 356.756 446.207 356.801 446.854C356.748 446.839 356.682 446.81 356.578 446.76L356.563 446.753C356.379 446.664 356.099 446.53 355.71 446.53C355.316 446.53 354.936 446.684 354.654 446.912C354.373 447.139 354.133 447.488 354.133 447.911C354.133 448.438 354.43 448.789 354.778 449.014C355.086 449.213 355.475 449.341 355.783 449.441L355.814 449.451C356.143 449.56 356.385 449.642 356.552 449.746C356.681 449.827 356.701 449.878 356.703 449.926C356.702 449.933 356.698 449.948 356.689 449.972C356.671 450.022 356.642 450.09 356.599 450.174C356.512 450.343 356.387 450.55 356.237 450.771C355.935 451.216 355.567 451.673 355.292 451.938C355.021 452.199 354.576 452.523 354.11 452.781C353.879 452.909 353.654 453.015 353.452 453.088C353.243 453.163 353.09 453.192 352.996 453.192C352.921 453.192 352.857 453.207 352.828 453.214C352.789 453.224 352.748 453.237 352.707 453.253C352.627 453.283 352.531 453.328 352.435 453.392C352.254 453.515 352 453.761 352 454.15C352 454.353 352.048 454.525 352.13 454.674C352.202 454.805 352.295 454.904 352.348 454.961L352.356 454.969L352.371 454.985C352.664 455.301 353.15 455.52 353.622 455.671C354.027 455.801 354.48 455.897 354.921 455.955C354.927 455.984 354.934 456.014 354.941 456.048L354.943 456.059C354.971 456.19 355.008 456.363 355.062 456.523C355.113 456.674 355.206 456.898 355.396 457.057C355.637 457.259 355.953 457.28 356.159 457.279C356.38 457.278 356.639 457.247 356.884 457.217L356.905 457.215C357.25 457.173 357.611 457.13 357.984 457.13C358.666 457.13 359.103 457.415 359.789 457.884L359.794 457.887C360.032 458.049 360.298 458.231 360.6 458.409C361.612 459.008 362.435 459.002 362.901 459C362.931 458.999 362.961 458.999 362.988 458.999C363.016 458.999 363.045 458.999 363.076 459C363.543 459.003 364.387 459.008 365.4 458.409C365.702 458.231 365.968 458.049 366.206 457.887L366.211 457.884C366.897 457.415 367.334 457.13 368.016 457.13C368.389 457.13 368.75 457.173 369.095 457.215L369.116 457.217C369.361 457.247 369.62 457.278 369.841 457.279C370.047 457.28 370.363 457.259 370.604 457.057C370.794 456.898 370.887 456.674 370.938 456.523C370.992 456.363 371.029 456.19 371.057 456.059L371.059 456.048C371.066 456.014 371.073 455.984 371.079 455.955C371.52 455.897 371.973 455.801 372.378 455.671C372.85 455.52 373.336 455.301 373.629 454.985L373.644 454.969L373.652 454.961C373.705 454.904 373.798 454.805 373.87 454.674C373.952 454.525 374 454.353 374 454.15C374 453.761 373.746 453.515 373.565 453.392C373.469 453.328 373.373 453.283 373.293 453.253C373.252 453.237 373.211 453.224 373.172 453.214C373.143 453.207 373.079 453.192 373.004 453.192C372.91 453.192 372.757 453.163 372.548 453.088C372.346 453.015 372.121 452.909 371.89 452.781C371.424 452.523 370.979 452.199 370.708 451.938C370.433 451.673 370.065 451.216 369.763 450.771C369.613 450.55 369.488 450.343 369.401 450.174C369.358 450.09 369.329 450.022 369.311 449.972C369.302 449.948 369.298 449.933 369.297 449.926C369.299 449.878 369.319 449.827 369.448 449.746C369.615 449.642 369.857 449.56 370.186 449.451L370.217 449.441C370.525 449.341 370.914 449.213 371.222 449.014C371.57 448.789 371.867 448.438 371.867 447.911C371.867 447.488 371.627 447.139 371.346 446.912C371.064 446.684 370.684 446.53 370.29 446.53C369.901 446.53 369.621 446.664 369.437 446.753L369.422 446.76C369.318 446.81 369.252 446.839 369.199 446.854C369.244 446.207 369.296 445.329 369.296 444.674C369.296 443.784 368.973 442.379 368.026 441.186ZM358.783 441.773C357.982 442.775 357.708 443.966 357.708 444.674C357.708 445.33 357.763 446.241 357.81 446.895C357.826 447.112 357.781 447.365 357.592 447.566C357.4 447.769 357.139 447.835 356.906 447.835C356.569 447.835 356.313 447.712 356.149 447.633L356.13 447.624C355.947 447.536 355.851 447.496 355.71 447.496C355.581 447.496 355.424 447.551 355.3 447.651C355.174 447.754 355.137 447.853 355.137 447.911C355.137 448.027 355.18 448.11 355.338 448.212C355.524 448.333 355.79 448.423 356.138 448.537L356.168 448.547C356.457 448.642 356.815 448.759 357.098 448.935C357.415 449.133 357.708 449.451 357.708 449.94C357.708 450.068 357.672 450.192 357.639 450.285C357.603 450.387 357.554 450.494 357.499 450.601C357.39 450.815 357.241 451.057 357.078 451.298C356.755 451.775 356.344 452.292 356.002 452.62C355.657 452.953 355.137 453.326 354.612 453.618C354.347 453.765 354.071 453.896 353.804 453.992C353.566 454.078 353.309 454.146 353.062 454.156C353.056 454.159 353.049 454.162 353.042 454.166C353.031 454.171 353.02 454.177 353.011 454.184L353.006 454.187C353.007 454.194 353.008 454.199 353.009 454.202C353.011 454.21 353.013 454.215 353.017 454.221C353.026 454.238 353.041 454.258 353.103 454.324L353.119 454.341C353.23 454.461 353.504 454.616 353.938 454.755C354.351 454.887 354.84 454.982 355.302 455.026C355.533 455.048 355.666 455.192 355.723 455.27C355.781 455.35 355.814 455.435 355.833 455.491C355.871 455.599 355.899 455.733 355.921 455.839L355.925 455.855C355.955 455.999 355.982 456.121 356.017 456.224C356.029 456.261 356.04 456.288 356.05 456.309C356.072 456.311 356.106 456.313 356.155 456.313C356.367 456.312 356.58 456.281 356.79 456.255C357.127 456.215 357.543 456.165 357.984 456.165C359.007 456.165 359.682 456.626 360.334 457.071L360.371 457.096C360.612 457.261 360.854 457.426 361.125 457.587C361.892 458.039 362.475 458.036 362.901 458.034C362.931 458.034 362.96 458.033 362.988 458.033C363.016 458.033 363.045 458.034 363.075 458.034C363.506 458.036 364.108 458.039 364.875 457.587C365.146 457.426 365.388 457.261 365.629 457.096L365.666 457.071C366.318 456.626 366.993 456.165 368.016 456.165C368.457 456.165 368.873 456.215 369.21 456.255L369.22 456.257C369.492 456.289 369.691 456.313 369.845 456.313C369.894 456.313 369.928 456.311 369.95 456.309C369.96 456.288 369.971 456.261 369.983 456.224C370.018 456.121 370.045 455.999 370.075 455.855L370.079 455.839C370.101 455.733 370.129 455.599 370.167 455.491C370.186 455.435 370.219 455.35 370.277 455.27C370.334 455.192 370.467 455.048 370.698 455.026C371.16 454.982 371.649 454.887 372.062 454.755C372.496 454.616 372.77 454.461 372.881 454.341L372.897 454.324C372.959 454.258 372.974 454.238 372.983 454.221C372.987 454.215 372.989 454.21 372.991 454.202C372.992 454.199 372.993 454.194 372.994 454.187L372.989 454.184C372.98 454.177 372.969 454.171 372.958 454.166C372.951 454.162 372.944 454.159 372.938 454.156C372.691 454.146 372.434 454.078 372.196 453.992C371.929 453.896 371.653 453.765 371.388 453.618C370.863 453.326 370.343 452.953 369.998 452.62C369.656 452.292 369.245 451.775 368.922 451.298C368.759 451.057 368.61 450.815 368.501 450.601C368.446 450.494 368.397 450.387 368.361 450.285C368.328 450.192 368.292 450.068 368.292 449.94C368.292 449.451 368.585 449.133 368.902 448.935C369.185 448.759 369.543 448.642 369.832 448.547L369.862 448.537C370.21 448.423 370.476 448.333 370.662 448.212C370.82 448.11 370.863 448.027 370.863 447.911C370.863 447.853 370.826 447.754 370.7 447.651C370.576 447.551 370.419 447.496 370.29 447.496C370.149 447.496 370.053 447.536 369.87 447.624L369.851 447.633C369.687 447.712 369.431 447.835 369.094 447.835C368.861 447.835 368.6 447.769 368.408 447.566C368.219 447.365 368.174 447.112 368.19 446.895C368.237 446.241 368.292 445.33 368.292 444.674C368.292 443.964 368.023 442.774 367.228 441.771C366.451 440.793 365.152 439.966 363.012 439.966C360.871 439.966 359.566 440.793 358.783 441.773Z"
              fill="black"/>
        <path fill-rule="evenodd" clip-rule="evenodd"
              d="M358.783 441.773C357.982 442.776 357.708 443.966 357.708 444.674C357.708 445.33 357.763 446.241 357.81 446.895C357.826 447.112 357.781 447.365 357.592 447.566C357.4 447.769 357.139 447.835 356.906 447.835C356.569 447.835 356.313 447.712 356.149 447.633L356.13 447.624C355.947 447.536 355.851 447.496 355.71 447.496C355.581 447.496 355.425 447.551 355.3 447.652C355.174 447.754 355.137 447.853 355.137 447.911C355.137 448.027 355.18 448.11 355.338 448.212C355.524 448.333 355.79 448.423 356.138 448.537L356.168 448.547C356.457 448.642 356.815 448.759 357.098 448.935C357.415 449.133 357.708 449.451 357.708 449.94C357.708 450.068 357.672 450.192 357.639 450.285C357.603 450.387 357.554 450.494 357.499 450.601C357.39 450.815 357.241 451.057 357.078 451.298C356.755 451.775 356.344 452.292 356.002 452.621C355.657 452.953 355.137 453.326 354.612 453.618C354.347 453.765 354.071 453.896 353.804 453.992C353.566 454.078 353.309 454.146 353.062 454.156C353.056 454.159 353.049 454.162 353.042 454.166C353.031 454.171 353.02 454.178 353.011 454.184L353.006 454.187C353.007 454.194 353.008 454.199 353.009 454.202C353.011 454.21 353.014 454.215 353.017 454.221C353.026 454.238 353.042 454.258 353.103 454.324L353.119 454.341C353.231 454.461 353.504 454.616 353.938 454.755C354.352 454.887 354.84 454.982 355.302 455.026C355.533 455.048 355.666 455.192 355.723 455.27C355.781 455.35 355.814 455.435 355.833 455.491C355.871 455.599 355.899 455.733 355.922 455.839L355.925 455.855C355.955 455.999 355.982 456.122 356.017 456.224C356.029 456.261 356.041 456.288 356.05 456.309C356.072 456.311 356.106 456.314 356.155 456.313C356.367 456.312 356.58 456.281 356.79 456.255C357.127 456.215 357.543 456.165 357.984 456.165C359.007 456.165 359.682 456.626 360.334 457.071L360.371 457.096C360.612 457.261 360.854 457.426 361.126 457.587C361.892 458.039 362.475 458.036 362.901 458.034C362.931 458.034 362.96 458.033 362.988 458.033C363.017 458.033 363.046 458.034 363.075 458.034C363.506 458.036 364.109 458.039 364.875 457.587C365.147 457.426 365.388 457.261 365.63 457.096L365.666 457.071C366.318 456.626 366.993 456.165 368.016 456.165C368.457 456.165 368.873 456.215 369.21 456.255L369.22 456.257C369.492 456.289 369.691 456.313 369.845 456.313C369.894 456.314 369.928 456.311 369.95 456.309C369.96 456.288 369.971 456.261 369.983 456.224C370.018 456.122 370.045 455.999 370.075 455.855L370.079 455.839C370.101 455.733 370.13 455.599 370.167 455.491C370.186 455.435 370.22 455.35 370.278 455.27C370.334 455.192 370.467 455.048 370.698 455.026C371.16 454.982 371.649 454.887 372.062 454.755C372.496 454.616 372.77 454.461 372.881 454.341L372.897 454.324C372.959 454.258 372.974 454.238 372.984 454.221C372.987 454.215 372.989 454.21 372.991 454.202C372.992 454.199 372.993 454.194 372.994 454.187L372.989 454.184C372.98 454.178 372.969 454.171 372.958 454.166C372.951 454.162 372.944 454.159 372.938 454.156C372.691 454.146 372.434 454.078 372.196 453.992C371.929 453.896 371.653 453.765 371.389 453.618C370.863 453.326 370.344 452.953 369.998 452.621C369.656 452.292 369.245 451.775 368.922 451.298C368.759 451.057 368.611 450.815 368.501 450.601C368.446 450.494 368.397 450.387 368.361 450.285C368.328 450.192 368.292 450.068 368.292 449.94C368.292 449.451 368.585 449.133 368.903 448.935C369.185 448.759 369.543 448.642 369.832 448.547L369.862 448.537C370.21 448.423 370.476 448.333 370.662 448.212C370.82 448.11 370.863 448.027 370.863 447.911C370.863 447.853 370.826 447.754 370.7 447.652C370.576 447.551 370.419 447.496 370.29 447.496C370.149 447.496 370.053 447.536 369.87 447.624L369.851 447.633C369.687 447.712 369.431 447.835 369.095 447.835C368.861 447.835 368.6 447.769 368.408 447.566C368.219 447.365 368.174 447.112 368.19 446.895C368.237 446.241 368.292 445.33 368.292 444.674C368.292 443.964 368.023 442.774 367.228 441.772C366.451 440.793 365.153 439.966 363.012 439.966C360.871 439.966 359.566 440.793 358.783 441.773Z"
              fill="white"/>
    </g>
    <g filter="url(#filter7_d_6119_1253)">
        <rect x="403" y="246" width="64" height="64" rx="32" fill="white" shape-rendering="crispEdges"/>
        <rect x="421" y="264" width="28" height="28" rx="6" fill="url(#paint2_radial_6119_1253)"/>
        <rect x="421" y="264" width="28" height="28" rx="6" fill="url(#paint3_radial_6119_1253)"/>
        <rect x="421" y="264" width="28" height="28" rx="6" fill="url(#paint4_radial_6119_1253)"/>
        <path d="M442 272.5C442 273.328 441.328 274 440.5 274C439.672 274 439 273.328 439 272.5C439 271.672 439.672 271 440.5 271C441.328 271 442 271.672 442 272.5Z"
              fill="white"/>
        <path fill-rule="evenodd" clip-rule="evenodd"
              d="M435 283C437.761 283 440 280.761 440 278C440 275.239 437.761 273 435 273C432.239 273 430 275.239 430 278C430 280.761 432.239 283 435 283ZM435 281C436.657 281 438 279.657 438 278C438 276.343 436.657 275 435 275C433.343 275 432 276.343 432 278C432 279.657 433.343 281 435 281Z"
              fill="white"/>
        <path fill-rule="evenodd" clip-rule="evenodd"
              d="M425 277.6C425 274.24 425 272.56 425.654 271.276C426.229 270.147 427.147 269.229 428.276 268.654C429.56 268 431.24 268 434.6 268H435.4C438.76 268 440.44 268 441.724 268.654C442.853 269.229 443.771 270.147 444.346 271.276C445 272.56 445 274.24 445 277.6V278.4C445 281.76 445 283.44 444.346 284.724C443.771 285.853 442.853 286.771 441.724 287.346C440.44 288 438.76 288 435.4 288H434.6C431.24 288 429.56 288 428.276 287.346C427.147 286.771 426.229 285.853 425.654 284.724C425 283.44 425 281.76 425 278.4V277.6ZM434.6 270H435.4C437.113 270 438.278 270.002 439.178 270.075C440.055 270.147 440.503 270.277 440.816 270.436C441.569 270.819 442.181 271.431 442.564 272.184C442.723 272.497 442.853 272.945 442.925 273.822C442.998 274.722 443 275.887 443 277.6V278.4C443 280.113 442.998 281.278 442.925 282.178C442.853 283.055 442.723 283.503 442.564 283.816C442.181 284.569 441.569 285.181 440.816 285.564C440.503 285.723 440.055 285.853 439.178 285.925C438.278 285.998 437.113 286 435.4 286H434.6C432.887 286 431.722 285.998 430.822 285.925C429.945 285.853 429.497 285.723 429.184 285.564C428.431 285.181 427.819 284.569 427.436 283.816C427.277 283.503 427.147 283.055 427.075 282.178C427.002 281.278 427 280.113 427 278.4V277.6C427 275.887 427.002 274.722 427.075 273.822C427.147 272.945 427.277 272.497 427.436 272.184C427.819 271.431 428.431 270.819 429.184 270.436C429.497 270.277 429.945 270.147 430.822 270.075C431.722 270.002 432.887 270 434.6 270Z"
              fill="white"/>
    </g>
    <rect x="84" y="142" width="64" height="64" rx="32" fill="white"/>
    <rect x="102" y="160" width="28" height="28" rx="14" fill="#1275B1"/>
    <path d="M112.619 167.692C112.619 168.627 111.809 169.384 110.809 169.384C109.81 169.384 109 168.627 109 167.692C109 166.758 109.81 166 110.809 166C111.809 166 112.619 166.758 112.619 167.692Z"
          fill="white"/>
    <path d="M109.247 170.628H112.34V180H109.247V170.628Z" fill="white"/>
    <path d="M117.32 170.628H114.227V180H117.32C117.32 180 117.32 177.05 117.32 175.205C117.32 174.098 117.698 172.986 119.206 172.986C120.911 172.986 120.901 174.435 120.893 175.557C120.882 177.024 120.907 178.522 120.907 180H124V175.054C123.974 171.895 123.151 170.44 120.443 170.44C118.835 170.44 117.839 171.17 117.32 171.83V170.628Z"
          fill="white"/>
    <g filter="url(#filter8_d_6119_1253)">
        <rect x="293" y="10" width="64" height="64" rx="32" fill="white" shape-rendering="crispEdges"/>
        <path d="M325 28C317.278 28 311 34.2781 311 42C311 49.7219 317.278 56 325 56C332.722 56 339 49.7219 339 42C339 34.2781 332.722 28 325 28Z"
              fill="#FC471E"/>
        <path fill-rule="evenodd" clip-rule="evenodd"
              d="M329.019 34.9095C329.007 34.9898 329 35.0723 329 35.1563C329 36.0043 329.672 36.6918 330.5 36.6918C331.328 36.6918 332 36.0043 332 35.1563C332 34.3082 331.328 33.6207 330.5 33.6207C330.131 33.6207 329.793 33.7572 329.532 33.9836L325.636 33L324.228 38.7651C322.355 38.8913 320.671 39.4719 319.4 40.3485C319.04 39.9863 318.545 39.7629 318 39.7629C316.895 39.7629 316 40.6796 316 41.8103C316 42.5973 316.434 43.2805 317.07 43.6232C317.024 43.8674 317 44.1166 317 44.3696C317 47.4792 320.582 50 325 50C329.418 50 333 47.4792 333 44.3696C333 44.1166 332.976 43.8674 332.93 43.6232C333.566 43.2805 334 42.5973 334 41.8103C334 40.6796 333.105 39.7629 332 39.7629C331.455 39.7629 330.96 39.9863 330.6 40.3485C329.215 39.3935 327.34 38.7897 325.265 38.7423L326.364 34.2414L329.019 34.9095ZM321.5 44.8815C322.328 44.8815 323 44.194 323 43.3459C323 42.4978 322.328 41.8103 321.5 41.8103C320.672 41.8103 320 42.4978 320 43.3459C320 44.194 320.672 44.8815 321.5 44.8815ZM328.5 44.8815C329.328 44.8815 330 44.194 330 43.3459C330 42.4978 329.328 41.8103 328.5 41.8103C327.672 41.8103 327 42.4978 327 43.3459C327 44.194 327.672 44.8815 328.5 44.8815ZM321.777 46.503C321.548 46.3462 321.237 46.4097 321.084 46.6449C320.931 46.8802 320.993 47.198 321.223 47.3548C322.311 48.0973 323.655 48.4686 325 48.4686C326.345 48.4686 327.689 48.0973 328.777 47.3548C329.007 47.198 329.069 46.8802 328.916 46.6449C328.763 46.4097 328.452 46.3462 328.223 46.503C327.303 47.1309 326.151 47.4449 325 47.4449C324.317 47.4449 323.635 47.3345 323 47.1137C322.565 46.9621 322.152 46.7585 321.777 46.503Z"
              fill="white"/>
    </g>

    <path d="M73.1012 305.372C72.7543 306.421 73.3232 307.552 74.3718 307.899C75.4205 308.246 76.5519 307.677 76.8988 306.628L73.1012 305.372ZM166.041 270.022C166.984 269.447 167.283 268.217 166.707 267.274L157.335 251.906C156.76 250.963 155.529 250.665 154.586 251.24C153.643 251.815 153.345 253.046 153.92 253.989L162.251 267.649L148.591 275.98C147.648 276.555 147.35 277.786 147.925 278.729C148.5 279.672 149.731 279.97 150.674 279.395L166.041 270.022ZM76.8988 306.628C79.799 297.861 87.659 285.362 101.784 276.763C115.847 268.202 136.276 263.413 164.529 270.259L165.471 266.371C136.301 259.303 114.767 264.177 99.7039 273.346C84.703 282.479 76.2746 295.779 73.1012 305.372L76.8988 306.628Z"
          fill="url(#paint5_linear_6119_1253)"/>
    <path d="M393.832 340.377C392.935 341.022 392.731 342.272 393.377 343.168L403.891 357.778C404.537 358.674 405.786 358.878 406.683 358.233C407.58 357.588 407.783 356.338 407.138 355.441L397.792 342.455L410.778 333.109C411.674 332.463 411.878 331.214 411.233 330.317C410.588 329.42 409.338 329.217 408.441 329.862L393.832 340.377ZM420.075 372.909L422.072 373.02L420.075 372.909ZM453.866 411.996C454.968 412.069 455.922 411.236 455.996 410.134C456.069 409.032 455.236 408.078 454.134 408.004L453.866 411.996ZM394.678 343.974C398.788 344.644 404.97 346.913 409.944 351.492C414.849 356.008 418.632 362.807 418.078 372.798L422.072 373.02C422.698 361.745 418.369 353.812 412.653 348.55C407.007 343.351 400.062 340.799 395.322 340.026L394.678 343.974ZM418.078 372.798C417.314 386.562 421.331 396.158 428.223 402.437C435.043 408.651 444.399 411.361 453.866 411.996L454.134 408.004C445.164 407.403 436.82 404.858 430.917 399.481C425.088 394.169 421.361 385.838 422.072 373.02L418.078 372.798Z"
          fill="url(#paint6_linear_6119_1253)"/>
    <path d="M346.487 72.372C345.5 71.877 344.298 72.2762 343.803 73.2637C343.308 74.2511 343.707 75.4529 344.695 75.9479L346.487 72.372ZM357.823 108.532L358.142 106.558L357.823 108.532ZM385.897 149.636L383.947 150.083L385.897 149.636ZM339.334 176.241C339.449 177.34 340.432 178.137 341.531 178.023L359.433 176.152C360.532 176.037 361.33 175.053 361.215 173.955C361.1 172.856 360.116 172.059 359.018 172.173L343.104 173.836L341.442 157.923C341.327 156.824 340.343 156.027 339.245 156.142C338.146 156.256 337.348 157.24 337.463 158.339L339.334 176.241ZM344.695 75.9479C345.247 76.225 346.046 76.8865 347.036 78.0409C347.996 79.1618 349.027 80.6176 350.071 82.3113C352.157 85.6975 354.211 89.8991 355.784 93.9549C357.371 98.0504 358.398 101.819 358.556 104.382C358.638 105.714 358.459 106.373 358.328 106.6C358.293 106.661 358.307 106.613 358.386 106.579C358.449 106.552 358.402 106.6 358.142 106.558L357.504 110.507C358.317 110.638 359.17 110.598 359.973 110.251C360.792 109.897 361.388 109.297 361.789 108.606C362.53 107.327 362.644 105.676 362.549 104.136C362.353 100.952 361.148 96.7246 359.513 92.509C357.863 88.2536 355.705 83.8298 353.476 80.213C352.362 78.4053 351.21 76.7653 350.073 75.438C348.964 74.1443 347.751 73.0054 346.487 72.372L344.695 75.9479ZM358.142 106.558C357.307 106.423 356.882 106.098 356.648 105.793C356.398 105.464 356.223 104.962 356.244 104.261C356.289 102.813 357.182 100.918 358.91 99.5829C360.565 98.3047 362.974 97.5588 366.061 98.3753C369.207 99.2078 373.213 101.713 377.774 107.297L380.872 104.767C375.995 98.7957 371.325 95.6303 367.084 94.5084C362.783 93.3706 359.094 94.3865 356.465 96.4171C353.909 98.3911 352.332 101.352 352.246 104.138C352.203 105.553 352.548 107.012 353.468 108.219C354.406 109.448 355.802 110.231 357.504 110.507L358.142 106.558ZM377.774 107.297C382.196 112.711 383.15 117.453 382.395 121.407C381.624 125.447 378.999 129.037 375.57 131.912C372.148 134.783 368.096 136.792 364.823 137.718C363.173 138.185 361.848 138.339 360.964 138.268C359.967 138.187 360.173 137.913 360.312 138.265L356.589 139.729C357.321 141.59 359.214 142.14 360.642 142.255C362.182 142.379 364.019 142.102 365.912 141.567C369.724 140.489 374.282 138.214 378.141 134.977C381.993 131.746 385.322 127.407 386.324 122.157C387.342 116.82 385.889 110.909 380.872 104.767L377.774 107.297ZM360.312 138.265C360.288 138.205 360.242 138.094 360.425 137.799C360.639 137.453 361.115 136.98 361.95 136.511C363.607 135.579 366.204 134.929 369.101 135.126C371.965 135.32 375.023 136.336 377.67 138.605C380.309 140.868 382.662 144.482 383.947 150.083L387.846 149.189C386.401 142.892 383.662 138.474 380.273 135.568C376.891 132.669 372.984 131.38 369.372 131.135C365.793 130.892 362.404 131.667 359.99 133.024C358.789 133.699 357.709 134.587 357.024 135.692C356.308 136.849 356.02 138.281 356.589 139.729L360.312 138.265ZM383.947 150.083C384.437 152.217 384.342 153.723 383.961 154.821C383.589 155.893 382.876 156.77 381.753 157.54C379.357 159.183 375.499 160.099 370.491 161.072C360.92 162.932 347.822 164.842 339.77 174.774L342.877 177.293C349.824 168.724 361.197 166.953 371.254 164.999C376.061 164.064 380.807 163.039 384.015 160.839C385.695 159.688 387.034 158.167 387.74 156.133C388.438 154.124 388.448 151.814 387.846 149.189L383.947 150.083Z"
          fill="url(#paint7_linear_6119_1253)"/>
    <defs>
        <filter id="filter0_d_6119_1253" x="154" y="154" width="260" height="260" filterUnits="userSpaceOnUse"
                color-interpolation-filters="sRGB">
            <feFlood flood-opacity="0" result="BackgroundImageFix"/>
            <feColorMatrix in="SourceAlpha" type="matrix" values="0 0 0 0 0 0 0 0 0 0 0 0 0 0 0 0 0 0 127 0"
                           result="hardAlpha"/>
            <feOffset dy="10"/>
            <feGaussianBlur stdDeviation="15"/>
            <feComposite in2="hardAlpha" operator="out"/>
            <feColorMatrix type="matrix" values="0 0 0 0 0.0431373 0 0 0 0 0.32549 0 0 0 0 0.698039 0 0 0 0.25 0"/>
            <feBlend mode="normal" in2="BackgroundImageFix" result="effect1_dropShadow_6119_1253"/>
            <feBlend mode="normal" in="SourceGraphic" in2="effect1_dropShadow_6119_1253" result="shape"/>
        </filter>
        <filter id="filter1_d_6119_1253" x="382" y="95" width="104" height="104" filterUnits="userSpaceOnUse"
                color-interpolation-filters="sRGB">
            <feFlood flood-opacity="0" result="BackgroundImageFix"/>
            <feColorMatrix in="SourceAlpha" type="matrix" values="0 0 0 0 0 0 0 0 0 0 0 0 0 0 0 0 0 0 127 0"
                           result="hardAlpha"/>
            <feOffset dy="10"/>
            <feGaussianBlur stdDeviation="10"/>
            <feComposite in2="hardAlpha" operator="out"/>
            <feColorMatrix type="matrix" values="0 0 0 0 0.0431373 0 0 0 0 0.32549 0 0 0 0 0.698039 0 0 0 0.2 0"/>
            <feBlend mode="normal" in2="BackgroundImageFix" result="effect1_dropShadow_6119_1253"/>
            <feBlend mode="normal" in="SourceGraphic" in2="effect1_dropShadow_6119_1253" result="shape"/>
        </filter>
        <filter id="filter2_d_6119_1253" x="132" y="400" width="104" height="104" filterUnits="userSpaceOnUse"
                color-interpolation-filters="sRGB">
            <feFlood flood-opacity="0" result="BackgroundImageFix"/>
            <feColorMatrix in="SourceAlpha" type="matrix" values="0 0 0 0 0 0 0 0 0 0 0 0 0 0 0 0 0 0 127 0"
                           result="hardAlpha"/>
            <feOffset dy="10"/>
            <feGaussianBlur stdDeviation="10"/>
            <feComposite in2="hardAlpha" operator="out"/>
            <feColorMatrix type="matrix" values="0 0 0 0 0.0431373 0 0 0 0 0.32549 0 0 0 0 0.698039 0 0 0 0.2 0"/>
            <feBlend mode="normal" in2="BackgroundImageFix" result="effect1_dropShadow_6119_1253"/>
            <feBlend mode="normal" in="SourceGraphic" in2="effect1_dropShadow_6119_1253" result="shape"/>
        </filter>
        <filter id="filter3_d_6119_1253" x="196" y="82" width="104" height="104" filterUnits="userSpaceOnUse"
                color-interpolation-filters="sRGB">
            <feFlood flood-opacity="0" result="BackgroundImageFix"/>
            <feColorMatrix in="SourceAlpha" type="matrix" values="0 0 0 0 0 0 0 0 0 0 0 0 0 0 0 0 0 0 127 0"
                           result="hardAlpha"/>
            <feOffset dy="10"/>
            <feGaussianBlur stdDeviation="10"/>
            <feComposite in2="hardAlpha" operator="out"/>
            <feColorMatrix type="matrix" values="0 0 0 0 0.0431373 0 0 0 0 0.32549 0 0 0 0 0.698039 0 0 0 0.2 0"/>
            <feBlend mode="normal" in2="BackgroundImageFix" result="effect1_dropShadow_6119_1253"/>
            <feBlend mode="normal" in="SourceGraphic" in2="effect1_dropShadow_6119_1253" result="shape"/>
        </filter>
        <filter id="filter4_d_6119_1253" x="0" y="300" width="104" height="104" filterUnits="userSpaceOnUse"
                color-interpolation-filters="sRGB">
            <feFlood flood-opacity="0" result="BackgroundImageFix"/>
            <feColorMatrix in="SourceAlpha" type="matrix" values="0 0 0 0 0 0 0 0 0 0 0 0 0 0 0 0 0 0 127 0"
                           result="hardAlpha"/>
            <feOffset dy="10"/>
            <feGaussianBlur stdDeviation="10"/>
            <feComposite in2="hardAlpha" operator="out"/>
            <feColorMatrix type="matrix" values="0 0 0 0 0.0431373 0 0 0 0 0.32549 0 0 0 0 0.698039 0 0 0 0.2 0"/>
            <feBlend mode="normal" in2="BackgroundImageFix" result="effect1_dropShadow_6119_1253"/>
            <feBlend mode="normal" in="SourceGraphic" in2="effect1_dropShadow_6119_1253" result="shape"/>
        </filter>
        <filter id="filter5_d_6119_1253" x="450" y="372" width="104" height="104" filterUnits="userSpaceOnUse"
                color-interpolation-filters="sRGB">
            <feFlood flood-opacity="0" result="BackgroundImageFix"/>
            <feColorMatrix in="SourceAlpha" type="matrix" values="0 0 0 0 0 0 0 0 0 0 0 0 0 0 0 0 0 0 127 0"
                           result="hardAlpha"/>
            <feOffset dy="10"/>
            <feGaussianBlur stdDeviation="10"/>
            <feComposite in2="hardAlpha" operator="out"/>
            <feColorMatrix type="matrix" values="0 0 0 0 0.0431373 0 0 0 0 0.32549 0 0 0 0 0.698039 0 0 0 0.2 0"/>
            <feBlend mode="normal" in2="BackgroundImageFix" result="effect1_dropShadow_6119_1253"/>
            <feBlend mode="normal" in="SourceGraphic" in2="effect1_dropShadow_6119_1253" result="shape"/>
        </filter>
        <filter id="filter6_d_6119_1253" x="311" y="407" width="104" height="104" filterUnits="userSpaceOnUse"
                color-interpolation-filters="sRGB">
            <feFlood flood-opacity="0" result="BackgroundImageFix"/>
            <feColorMatrix in="SourceAlpha" type="matrix" values="0 0 0 0 0 0 0 0 0 0 0 0 0 0 0 0 0 0 127 0"
                           result="hardAlpha"/>
            <feOffset dy="10"/>
            <feGaussianBlur stdDeviation="10"/>
            <feComposite in2="hardAlpha" operator="out"/>
            <feColorMatrix type="matrix" values="0 0 0 0 0.0431373 0 0 0 0 0.32549 0 0 0 0 0.698039 0 0 0 0.2 0"/>
            <feBlend mode="normal" in2="BackgroundImageFix" result="effect1_dropShadow_6119_1253"/>
            <feBlend mode="normal" in="SourceGraphic" in2="effect1_dropShadow_6119_1253" result="shape"/>
        </filter>
        <filter id="filter7_d_6119_1253" x="383" y="236" width="104" height="104" filterUnits="userSpaceOnUse"
                color-interpolation-filters="sRGB">
            <feFlood flood-opacity="0" result="BackgroundImageFix"/>
            <feColorMatrix in="SourceAlpha" type="matrix" values="0 0 0 0 0 0 0 0 0 0 0 0 0 0 0 0 0 0 127 0"
                           result="hardAlpha"/>
            <feOffset dy="10"/>
            <feGaussianBlur stdDeviation="10"/>
            <feComposite in2="hardAlpha" operator="out"/>
            <feColorMatrix type="matrix" values="0 0 0 0 0.0431373 0 0 0 0 0.32549 0 0 0 0 0.698039 0 0 0 0.2 0"/>
            <feBlend mode="normal" in2="BackgroundImageFix" result="effect1_dropShadow_6119_1253"/>
            <feBlend mode="normal" in="SourceGraphic" in2="effect1_dropShadow_6119_1253" result="shape"/>
        </filter>
        <filter id="filter8_d_6119_1253" x="273" y="0" width="104" height="104" filterUnits="userSpaceOnUse"
                color-interpolation-filters="sRGB">
            <feFlood flood-opacity="0" result="BackgroundImageFix"/>
            <feColorMatrix in="SourceAlpha" type="matrix" values="0 0 0 0 0 0 0 0 0 0 0 0 0 0 0 0 0 0 127 0"
                           result="hardAlpha"/>
            <feOffset dy="10"/>
            <feGaussianBlur stdDeviation="10"/>
            <feComposite in2="hardAlpha" operator="out"/>
            <feColorMatrix type="matrix" values="0 0 0 0 0.0431373 0 0 0 0 0.32549 0 0 0 0 0.698039 0 0 0 0.2 0"/>
            <feBlend mode="normal" in2="BackgroundImageFix" result="effect1_dropShadow_6119_1253"/>
            <feBlend mode="normal" in="SourceGraphic" in2="effect1_dropShadow_6119_1253" result="shape"/>
        </filter>
        <linearGradient id="paint0_linear_6119_1253" x1="214.882" y1="213.13" x2="408.514" y2="236.996"
                        gradientUnits="userSpaceOnUse">
            <stop stop-color="#3F84ED"/>
            <stop offset="1" stop-color="#7CAAF1"/>
        </linearGradient>
        <linearGradient id="paint1_linear_6119_1253" x1="434" y1="123" x2="434" y2="150.917"
                        gradientUnits="userSpaceOnUse">
            <stop stop-color="#18ACFE"/>
            <stop offset="1" stop-color="#0163E0"/>
        </linearGradient>
        <radialGradient id="paint2_radial_6119_1253" cx="0" cy="0" r="1" gradientUnits="userSpaceOnUse"
                        gradientTransform="translate(431 285) rotate(-55.3758) scale(25.5196)">
            <stop stop-color="#B13589"/>
            <stop offset="0.79309" stop-color="#C62F94"/>
            <stop offset="1" stop-color="#8A3AC8"/>
        </radialGradient>
        <radialGradient id="paint3_radial_6119_1253" cx="0" cy="0" r="1" gradientUnits="userSpaceOnUse"
                        gradientTransform="translate(430 293) rotate(-65.1363) scale(22.5942)">
            <stop stop-color="#E0E8B7"/>
            <stop offset="0.444662" stop-color="#FB8A2E"/>
            <stop offset="0.71474" stop-color="#E2425C"/>
            <stop offset="1" stop-color="#E2425C" stop-opacity="0"/>
        </radialGradient>
        <radialGradient id="paint4_radial_6119_1253" cx="0" cy="0" r="1" gradientUnits="userSpaceOnUse"
                        gradientTransform="translate(419.5 265) rotate(-8.1301) scale(38.8909 8.31836)">
            <stop offset="0.156701" stop-color="#406ADC"/>
            <stop offset="0.467799" stop-color="#6A45BE"/>
            <stop offset="1" stop-color="#6A45BE" stop-opacity="0"/>
        </radialGradient>
        <linearGradient id="paint5_linear_6119_1253" x1="88.8971" y1="273.022" x2="171.321" y2="295.322"
                        gradientUnits="userSpaceOnUse">
            <stop stop-color="#3F84ED"/>
            <stop offset="1" stop-color="#7CAAF1"/>
        </linearGradient>
        <linearGradient id="paint6_linear_6119_1253" x1="404.11" y1="355.304" x2="461.444" y2="361.436"
                        gradientUnits="userSpaceOnUse">
            <stop stop-color="#3F84ED"/>
            <stop offset="1" stop-color="#7CAAF1"/>
        </linearGradient>
        <linearGradient id="paint7_linear_6119_1253" x1="356.611" y1="169.097" x2="303.056" y2="106.03"
                        gradientUnits="userSpaceOnUse">
            <stop stop-color="#3F84ED"/>
            <stop offset="1" stop-color="#7CAAF1"/>
        </linearGradient>
    </defs>
</svg>
