<svg width="30" height="30" viewBox="0 0 30 30" fill="none" xmlns="http://www.w3.org/2000/svg">
<path d="M19.2377 6.5125L21.0002 10.0375C21.2377 10.525 21.8752 10.9875 22.4127 11.0875L25.6002 11.6125C27.6377 11.95 28.1127 13.425 26.6502 14.9L24.1627 17.3875C23.7502 17.8 23.5127 18.6125 23.6502 19.2L24.3627 22.275C24.9252 24.7 23.6252 25.65 21.4877 24.375L18.5002 22.6C17.9627 22.275 17.0627 22.275 16.5252 22.6L13.5377 24.375C11.4002 25.6375 10.1002 24.7 10.6627 22.275L11.3752 19.2C11.5127 18.625 11.2752 17.8125 10.8627 17.3875L8.3752 14.9C6.9127 13.4375 7.38769 11.9625 9.42519 11.6125L12.6127 11.0875C13.1502 11 13.7877 10.525 14.0252 10.0375L15.7877 6.5125C16.7252 4.6 18.2752 4.6 19.2377 6.5125Z" stroke="#0F67EB" stroke-width="1.5" stroke-linecap="round" stroke-linejoin="round"/>
<path d="M10 6.25H2.5" stroke="#0F67EB" stroke-width="1.5" stroke-linecap="round" stroke-linejoin="round"/>
<path d="M6.25 23.75H2.5" stroke="#0F67EB" stroke-width="1.5" stroke-linecap="round" stroke-linejoin="round"/>
<path d="M3.75 15H2.5" stroke="#0F67EB" stroke-width="1.5" stroke-linecap="round" stroke-linejoin="round"/>
</svg>
