<svg width="198" height="48" viewBox="0 0 198 48" fill="none" xmlns="http://www.w3.org/2000/svg">
<path d="M21.4273 45.042L17.9282 41.3973C16.9319 40.3593 15.5811 39.7782 14.1728 39.7782H11.5431C6.18785 39.7782 1.8457 35.2551 1.8457 29.677V11.9444C1.8457 6.36617 6.18785 1.8457 11.5431 1.8457H36.4584C41.8137 1.8457 46.1534 6.36617 46.1534 11.9444V29.677C46.1534 35.2551 41.8137 39.7782 36.4584 39.7782H33.8287C32.4205 39.7782 31.0696 40.3593 30.0732 41.3973L26.5719 45.042C25.1516 46.5239 22.85 46.5239 21.4273 45.042Z" fill="#0F67EB"/>
<path d="M14.7695 22.1543C16.3195 25.4084 19.8719 27.6928 23.999 27.6928C28.1286 27.6928 31.6812 25.4084 33.2311 22.1543" stroke="white" stroke-width="4" stroke-linecap="round" stroke-linejoin="round"/>
<path d="M181.516 41.999C180.807 41.999 180.151 41.9447 179.547 41.8361C178.953 41.7366 178.479 41.6189 178.125 41.4832L179.332 37.6551C180.089 37.8633 180.764 37.9628 181.358 37.9538C181.952 37.9447 182.475 37.7682 182.925 37.4243C183.385 37.0895 183.773 36.5284 184.089 35.7411L184.535 34.6144L176.529 13.3291H182.048L187.136 29.0758H187.366L192.468 13.3291H198.001L189.162 36.7049C188.75 37.809 188.204 38.7547 187.524 39.542C186.844 40.3384 186.01 40.9447 185.023 41.361C184.046 41.7864 182.877 41.999 181.516 41.999Z" fill="#1A1C1E"/>
<path d="M153.764 34.182V6.38086H158.966V16.7791H159.182C159.45 16.2723 159.829 15.7339 160.317 15.1637C160.806 14.5846 161.467 14.0913 162.301 13.6841C163.134 13.2678 164.198 13.0597 165.491 13.0597C167.197 13.0597 168.735 13.4714 170.105 14.295C171.484 15.1094 172.577 16.3176 173.382 17.9194C174.196 19.5122 174.603 21.467 174.603 23.7837C174.603 26.0733 174.206 28.0191 173.41 29.6209C172.615 31.2227 171.532 32.4444 170.162 33.2861C168.792 34.1277 167.24 34.5485 165.506 34.5485C164.241 34.5485 163.192 34.3494 162.358 33.9512C161.525 33.553 160.854 33.0734 160.346 32.5123C159.848 31.9422 159.46 31.4037 159.182 30.8969H158.88V34.182H153.764ZM158.866 23.7566C158.866 25.105 159.067 26.286 159.469 27.2996C159.881 28.3132 160.471 29.105 161.237 29.6752C162.013 30.2363 162.952 30.5168 164.054 30.5168C165.204 30.5168 166.167 30.2272 166.943 29.648C167.719 29.0598 168.303 28.2589 168.696 27.2453C169.099 26.2227 169.3 25.0598 169.3 23.7566C169.3 22.4624 169.103 21.3131 168.711 20.3086C168.318 19.304 167.733 18.5167 166.957 17.9466C166.181 17.3764 165.213 17.0914 164.054 17.0914C162.943 17.0914 161.999 17.3674 161.223 17.9194C160.447 18.4715 159.857 19.2452 159.455 20.2407C159.062 21.2362 158.866 22.4081 158.866 23.7566Z" fill="#1A1C1E"/>
<path d="M128.24 42V13.3301H133.357V16.7781H133.659C133.927 16.2713 134.305 15.7328 134.794 15.1627C135.283 14.5835 135.944 14.0903 136.777 13.683C137.611 13.2667 138.674 13.0586 139.968 13.0586C141.673 13.0586 143.211 13.4704 144.581 14.2939C145.961 15.1084 147.053 16.3165 147.858 17.9184C148.673 19.5111 149.08 21.4659 149.08 23.7827C149.08 26.0723 148.682 28.018 147.887 29.6198C147.092 31.2216 146.009 32.4434 144.639 33.285C143.269 34.1266 141.716 34.5475 139.982 34.5475C138.717 34.5475 137.668 34.3484 136.835 33.9502C136.001 33.552 135.33 33.0723 134.823 32.5112C134.324 31.9411 133.936 31.4026 133.659 30.8959H133.443V42H128.24ZM133.342 23.7555C133.342 25.1039 133.544 26.285 133.946 27.2985C134.358 28.3121 134.947 29.104 135.714 29.6741C136.49 30.2352 137.429 30.5158 138.531 30.5158C139.68 30.5158 140.643 30.2262 141.419 29.647C142.196 29.0587 142.78 28.2578 143.173 27.2442C143.575 26.2216 143.776 25.0587 143.776 23.7555C143.776 22.4614 143.58 21.3121 143.187 20.3075C142.794 19.303 142.21 18.5157 141.434 17.9455C140.658 17.3754 139.69 17.0903 138.531 17.0903C137.419 17.0903 136.475 17.3663 135.699 17.9184C134.923 18.4704 134.334 19.2442 133.932 20.2397C133.539 21.2351 133.342 22.4071 133.342 23.7555Z" fill="#1A1C1E"/>
<path d="M114.028 34.5882C111.815 34.5882 109.903 34.1538 108.294 33.285C106.694 32.4072 105.462 31.1674 104.6 29.5655C103.738 27.9547 103.307 26.0587 103.307 23.8777C103.307 21.7329 103.738 19.8505 104.6 18.2306C105.472 16.6016 106.689 15.3346 108.251 14.4296C109.812 13.5156 111.647 13.0586 113.755 13.0586C115.116 13.0586 116.4 13.2667 117.607 13.683C118.824 14.0903 119.897 14.7238 120.826 15.5835C121.765 16.4432 122.503 17.5383 123.039 18.8686C123.576 20.1899 123.844 21.7646 123.844 23.5926V25.0994H105.75V21.7872H118.857C118.848 20.846 118.632 20.0089 118.21 19.2758C117.789 18.5338 117.2 17.95 116.443 17.5247C115.695 17.0994 114.823 16.8867 113.827 16.8867C112.763 16.8867 111.829 17.131 111.024 17.6197C110.22 18.0994 109.592 18.7329 109.142 19.5202C108.701 20.2985 108.476 21.1537 108.466 22.0858V24.9772C108.466 26.1899 108.701 27.2307 109.17 28.0994C109.64 28.9592 110.296 29.6198 111.139 30.0814C111.983 30.5339 112.969 30.7601 114.1 30.7601C114.857 30.7601 115.542 30.6606 116.155 30.4615C116.768 30.2533 117.3 29.9501 117.751 29.552C118.201 29.1538 118.541 28.6605 118.771 28.0723L123.629 28.5881C123.322 29.8008 122.738 30.8597 121.875 31.7646C121.023 32.6606 119.93 33.3574 118.599 33.8552C117.267 34.3438 115.743 34.5882 114.028 34.5882Z" fill="#1A1C1E"/>
<path d="M100.14 13.3295V17.1304H87.4492V13.3295H100.14ZM90.5823 8.33398H95.785V27.9088C95.785 28.5695 95.8904 29.0762 96.1012 29.4292C96.3216 29.7731 96.609 30.0084 96.9635 30.1351C97.318 30.2618 97.7109 30.3251 98.142 30.3251C98.4678 30.3251 98.7648 30.3025 99.0331 30.2573C99.311 30.212 99.5218 30.1713 99.6655 30.1351L100.542 33.9767C100.264 34.0672 99.8667 34.1668 99.3493 34.2754C98.8415 34.384 98.2187 34.4473 97.4809 34.4654C96.1779 34.5016 95.0041 34.3161 93.9598 33.9089C92.9154 33.4926 92.0866 32.85 91.4734 31.9813C90.8698 31.1125 90.5728 30.0265 90.5823 28.7233V8.33398Z" fill="#1A1C1E"/>
<path d="M79.0597 14.0217C78.9255 12.8362 78.3602 11.9131 77.3637 11.2525C76.3769 10.5918 75.093 10.2615 73.512 10.2615C72.4006 10.2615 71.4472 10.4199 70.652 10.7366C69.8567 11.0534 69.2483 11.4832 68.8267 12.0262C68.4052 12.5692 68.1896 13.1891 68.18 13.886C68.18 14.4652 68.3189 14.9674 68.5968 15.3928C68.8842 15.8181 69.2723 16.1801 69.7609 16.4788C70.2496 16.7683 70.7909 17.0127 71.385 17.2118C71.979 17.4109 72.5778 17.5783 73.1815 17.7141L75.9409 18.3656C77.0524 18.61 78.1207 18.9403 79.1459 19.3566C80.1807 19.7729 81.1053 20.2978 81.9197 20.9313C82.7437 21.5648 83.3952 22.3295 83.8743 23.2254C84.3534 24.1214 84.5929 25.1711 84.5929 26.3748C84.5929 28.0037 84.1522 29.4381 83.2707 30.678C82.3892 31.9088 81.1149 32.8726 79.4477 33.5694C77.7901 34.2572 75.7828 34.6011 73.4258 34.6011C71.1358 34.6011 69.1477 34.2662 67.4614 33.5966C65.7846 32.9269 64.472 31.9495 63.5234 30.6644C62.5845 29.3793 62.0767 27.8137 62 25.9675H67.2458C67.3225 26.9359 67.6386 27.7413 68.1944 28.3838C68.7501 29.0264 69.4735 29.506 70.3645 29.8228C71.2652 30.1395 72.2712 30.2979 73.3827 30.2979C74.542 30.2979 75.5577 30.135 76.4296 29.8092C77.311 29.4743 78.0009 29.0128 78.4991 28.4246C78.9974 27.8273 79.2513 27.1304 79.2609 26.334C79.2513 25.6101 79.0261 25.0128 78.5854 24.5422C78.1446 24.0625 77.5266 23.6643 76.7314 23.3476C75.9457 23.0218 75.0259 22.7322 73.9719 22.4788L70.6232 21.6643C68.1992 21.0761 66.2829 20.1847 64.8744 18.9901C63.4755 17.7865 62.7761 16.1892 62.7761 14.1982C62.7761 12.5602 63.2456 11.1258 64.1846 9.89499C65.1331 8.66421 66.4218 7.70945 68.0506 7.03071C69.6795 6.34292 71.5239 5.99902 73.5839 5.99902C75.6726 5.99902 77.5027 6.34292 79.074 7.03071C80.6549 7.70945 81.8957 8.65516 82.7964 9.86784C83.697 11.0715 84.1617 12.4561 84.1905 14.0217H79.0597Z" fill="#1A1C1E"/>
</svg>
